<svg xmlns="http://www.w3.org/2000/svg" xmlns:xlink="http://www.w3.org/1999/xlink" width="1000" zoomAndPan="magnify" viewBox="0 0 750 749.999995" height="1000" preserveAspectRatio="xMidYMid meet" version="1.0"><path fill="#000000" d="M 577.578125 37.785156 C 576.96875 39.003906 576.359375 40.222656 576.359375 42.660156 C 576.359375 45.097656 576.96875 46.316406 577.578125 47.535156 C 578.796875 48.753906 580.015625 48.753906 581.234375 48.753906 C 582.453125 48.753906 584.28125 48.144531 585.5 46.925781 C 586.71875 45.707031 587.328125 43.878906 586.71875 42.050781 C 586.109375 40.222656 584.890625 38.394531 582.453125 37.785156 C 580.015625 36.566406 578.1875 36.566406 577.578125 37.785156 Z M 577.578125 37.785156 " fill-opacity="1" fill-rule="evenodd"/><path fill="#000000" d="M 611.085938 39.003906 C 609.261719 40.832031 609.261719 43.269531 610.476562 45.707031 C 611.695312 48.144531 617.179688 49.363281 626.929688 48.753906 C 636.675781 48.144531 642.160156 47.535156 642.769531 46.316406 C 643.378906 45.097656 643.988281 43.878906 643.988281 42.660156 C 643.988281 41.441406 642.769531 40.222656 640.941406 38.394531 C 639.113281 36.566406 634.238281 35.957031 625.710938 35.957031 C 617.789062 36.566406 612.914062 37.175781 611.085938 39.003906 Z M 611.085938 39.003906 " fill-opacity="1" fill-rule="evenodd"/><path fill="#000000" d="M 519.089844 39.003906 C 502.03125 40.222656 493.5 41.441406 492.28125 42.050781 C 491.0625 42.660156 490.453125 43.878906 489.84375 46.316406 C 489.234375 48.753906 489.84375 49.972656 490.453125 51.191406 C 491.671875 52.410156 495.9375 52.410156 505.078125 51.800781 C 513.605469 50.582031 520.308594 50.582031 524.574219 50.582031 C 528.839844 51.191406 531.273438 50.582031 531.882812 49.972656 C 532.492188 49.363281 537.367188 48.753906 546.507812 48.753906 C 555.644531 48.753906 560.519531 47.535156 561.738281 45.707031 C 562.957031 43.878906 562.347656 42.050781 561.128906 40.222656 C 559.910156 38.394531 556.253906 37.785156 551.378906 37.175781 C 546.507812 37.175781 535.539062 37.785156 519.089844 39.003906 Z M 519.089844 39.003906 " fill-opacity="1" fill-rule="evenodd"/><path fill="#000000" d="M 683.589844 104.210938 C 682.371094 106.039062 682.371094 110.304688 682.371094 116.398438 C 682.371094 122.492188 682.980469 126.757812 684.199219 128.585938 C 685.417969 130.414062 686.636719 131.023438 689.074219 131.023438 C 691.511719 131.023438 692.730469 129.195312 693.945312 124.929688 C 695.164062 120.664062 695.773438 117.007812 695.164062 112.132812 C 695.164062 107.257812 694.554688 104.820312 693.945312 104.210938 C 693.335938 102.992188 691.511719 102.382812 689.074219 101.773438 C 686.027344 101.773438 684.199219 102.382812 683.589844 104.210938 Z M 683.589844 104.210938 " fill-opacity="1" fill-rule="evenodd"/><path fill="#000000" d="M 279.652344 112.132812 C 272.949219 112.742188 269.292969 113.960938 268.683594 115.179688 C 268.074219 117.007812 268.683594 118.835938 269.902344 121.273438 C 271.730469 123.710938 275.386719 124.929688 282.089844 124.929688 C 288.789062 124.929688 293.054688 124.320312 293.664062 123.710938 C 294.882812 123.101562 296.710938 123.101562 298.539062 123.710938 C 300.367188 124.320312 305.847656 124.929688 314.378906 124.929688 C 323.519531 124.929688 328.390625 124.320312 330.21875 123.101562 C 332.046875 121.882812 332.65625 120.054688 332.65625 118.226562 C 332.65625 115.789062 332.046875 114.570312 330.828125 113.351562 C 329.609375 112.132812 322.300781 111.523438 309.503906 111.523438 C 296.710938 111.523438 286.351562 111.523438 279.652344 112.132812 Z M 279.652344 112.132812 " fill-opacity="1" fill-rule="evenodd"/><path fill="#000000" d="M 215.070312 113.351562 C 206.539062 113.960938 198.621094 114.570312 190.699219 113.960938 C 182.777344 113.351562 177.296875 113.351562 173.640625 113.960938 C 169.984375 114.570312 167.546875 114.570312 166.328125 113.960938 C 165.109375 113.351562 155.972656 113.351562 138.914062 113.351562 C 121.851562 113.351562 111.496094 113.960938 107.230469 114.570312 C 102.964844 115.179688 101.136719 117.007812 101.136719 119.445312 C 100.527344 122.492188 101.136719 124.320312 102.964844 125.539062 C 104.792969 126.757812 106.011719 127.367188 107.230469 126.757812 C 108.449219 126.148438 112.714844 126.148438 119.414062 126.148438 C 126.117188 126.148438 132.210938 126.148438 136.476562 125.539062 C 141.347656 124.929688 145.003906 124.929688 149.269531 125.539062 C 153.535156 126.148438 160.234375 126.148438 169.984375 125.539062 C 179.734375 124.929688 191.308594 124.929688 204.710938 124.929688 C 218.117188 125.539062 226.035156 124.929688 227.863281 124.320312 C 229.691406 123.710938 230.910156 122.492188 232.128906 121.273438 C 233.347656 120.054688 233.347656 118.835938 233.347656 116.398438 C 232.738281 114.570312 232.128906 113.351562 230.300781 112.132812 C 228.472656 112.742188 223.597656 112.742188 215.070312 113.351562 Z M 215.070312 113.351562 " fill-opacity="1" fill-rule="evenodd"/><path fill="#000000" d="M 246.75 113.351562 C 246.140625 113.960938 245.53125 115.789062 246.140625 118.226562 C 246.75 120.054688 246.75 121.882812 247.96875 123.101562 C 248.578125 123.710938 250.40625 124.320312 252.234375 124.320312 C 254.0625 124.320312 255.28125 123.710938 255.890625 123.101562 C 256.5 121.882812 256.5 120.664062 256.5 118.226562 C 256.5 115.789062 254.671875 113.960938 252.234375 113.351562 C 249.1875 112.742188 247.359375 112.742188 246.75 113.351562 Z M 246.75 113.351562 " fill-opacity="1" fill-rule="evenodd"/><path fill="#000000" d="M 661.65625 116.398438 C 660.4375 117.617188 659.828125 121.273438 661.046875 127.367188 C 661.65625 133.460938 662.265625 137.726562 663.484375 139.554688 C 664.09375 141.382812 665.921875 142.601562 668.359375 142.601562 C 670.1875 143.210938 672.011719 142.601562 673.230469 141.382812 C 673.839844 140.164062 674.449219 135.898438 673.839844 129.195312 C 673.230469 122.492188 672.011719 118.226562 671.40625 117.007812 C 670.1875 115.789062 668.96875 115.179688 667.140625 115.179688 C 665.3125 115.179688 662.875 115.179688 661.65625 116.398438 Z M 661.65625 116.398438 " fill-opacity="1" fill-rule="evenodd"/><path fill="#000000" d="M 241.269531 1.828125 C 237.613281 2.4375 235.785156 3.046875 234.566406 3.65625 C 233.347656 4.265625 231.519531 4.875 229.082031 3.65625 C 226.644531 2.4375 224.207031 2.4375 222.378906 2.4375 C 220.554688 3.046875 219.335938 3.046875 218.726562 3.65625 C 218.117188 4.265625 216.898438 4.265625 213.851562 3.65625 C 210.804688 3.046875 206.539062 3.046875 199.839844 3.65625 C 193.136719 4.265625 188.871094 4.265625 187.042969 3.046875 C 185.214844 1.828125 183.386719 1.828125 182.167969 3.046875 C 180.949219 4.265625 178.515625 4.265625 175.46875 3.65625 C 172.421875 3.046875 170.59375 3.65625 170.59375 4.265625 C 169.984375 4.875 168.15625 4.875 164.5 3.65625 C 160.84375 2.4375 158.410156 3.046875 157.191406 4.265625 C 155.972656 5.484375 153.535156 6.703125 149.878906 7.921875 C 146.222656 9.140625 144.394531 10.359375 143.785156 12.1875 C 143.785156 14.015625 142.566406 15.234375 140.128906 16.453125 C 138.304688 17.671875 136.476562 19.5 135.257812 21.328125 C 134.039062 23.15625 132.210938 26.203125 127.945312 29.25 C 123.679688 32.300781 121.851562 34.738281 121.242188 35.957031 C 120.632812 37.175781 119.414062 37.785156 118.199219 38.394531 C 116.980469 39.003906 115.152344 40.832031 113.324219 43.878906 C 111.496094 47.535156 109.058594 49.363281 106.011719 51.191406 C 102.964844 53.019531 101.136719 54.238281 100.527344 56.066406 C 99.917969 57.894531 97.484375 59.722656 93.828125 62.769531 C 89.5625 65.816406 87.125 68.863281 85.296875 71.300781 C 83.46875 74.347656 82.25 75.566406 80.421875 75.566406 C 79.203125 75.566406 75.550781 79.222656 70.066406 86.535156 C 64.582031 93.851562 60.925781 96.898438 59.707031 96.898438 C 57.878906 96.898438 56.664062 98.726562 54.835938 101.773438 C 53.007812 105.429688 50.570312 107.867188 48.132812 109.085938 C 45.085938 110.914062 43.867188 112.132812 43.257812 113.960938 C 42.648438 115.789062 41.429688 117.007812 38.382812 118.835938 C 35.339844 120.664062 32.902344 122.492188 31.683594 123.710938 C 29.855469 125.539062 29.246094 126.757812 28.636719 128.585938 C 28.027344 130.414062 26.808594 132.242188 23.761719 133.460938 C 20.714844 134.679688 17.667969 138.945312 12.1875 145.039062 C 6.703125 151.132812 4.265625 156.621094 4.265625 162.105469 C 4.265625 166.980469 4.875 170.027344 5.484375 170.636719 C 6.09375 171.246094 6.09375 172.464844 4.875 173.683594 C 3.65625 175.511719 3.65625 179.167969 4.875 185.261719 C 6.09375 191.355469 6.09375 195.621094 5.484375 197.449219 C 4.875 199.277344 4.265625 204.761719 4.265625 213.902344 C 4.265625 223.046875 4.875 228.53125 5.484375 230.359375 C 6.09375 232.1875 6.09375 234.625 4.875 237.0625 C 3.65625 239.5 3.046875 241.9375 3.046875 243.15625 C 3.046875 243.765625 3.046875 244.375 3.046875 244.984375 C 3.65625 244.984375 3.65625 244.984375 4.265625 244.984375 C 4.265625 244.984375 4.875 244.984375 5.484375 244.984375 C 5.484375 251.078125 5.484375 257.171875 5.484375 263.265625 C 5.484375 275.453125 4.875 281.550781 4.265625 282.160156 C 3.65625 282.160156 3.046875 283.988281 3.046875 287.035156 C 3.046875 290.082031 3.046875 292.519531 4.265625 294.347656 C 5.484375 296.175781 5.484375 298.003906 5.484375 299.832031 C 5.484375 300.441406 5.484375 301.660156 5.484375 302.878906 C 4.875 302.878906 4.875 302.878906 4.265625 302.878906 C 3.65625 302.878906 3.65625 302.878906 3.046875 302.878906 C 3.046875 306.535156 3.046875 309.582031 3.046875 313.238281 C 3.046875 319.941406 3.65625 324.207031 4.875 324.816406 C 6.09375 325.425781 6.09375 326.644531 6.09375 329.082031 C 6.09375 330.910156 5.484375 332.738281 4.875 334.566406 C 3.65625 336.394531 3.65625 341.882812 4.265625 352.242188 C 4.875 362.601562 4.875 369.914062 3.65625 374.789062 C 3.046875 379.664062 2.4375 382.710938 3.046875 384.539062 C 3.65625 386.367188 3.65625 388.804688 3.046875 391.242188 C 2.4375 393.679688 2.4375 396.117188 3.046875 396.726562 C 3.65625 397.335938 3.65625 399.773438 2.4375 402.824219 C 1.21875 405.871094 1.21875 407.699219 1.828125 408.308594 C 2.4375 408.917969 2.4375 411.964844 2.4375 417.449219 C 1.828125 422.933594 1.828125 426.589844 2.4375 427.808594 C 2.4375 428.417969 2.4375 429.636719 3.046875 430.246094 C 3.65625 430.246094 3.65625 430.246094 4.265625 429.636719 C 4.265625 429.636719 4.875 429.027344 5.484375 429.027344 C 4.875 432.683594 4.875 436.339844 4.265625 439.996094 C 3.65625 447.308594 3.65625 452.183594 4.875 455.230469 C 6.09375 458.277344 6.09375 461.933594 5.484375 465.59375 C 4.265625 469.25 3.65625 471.6875 3.65625 472.296875 C 3.65625 472.90625 3.65625 472.90625 3.65625 473.515625 C 4.265625 473.515625 4.265625 473.515625 4.875 473.515625 C 4.875 473.515625 5.484375 473.515625 6.09375 473.515625 C 6.09375 474.125 6.09375 474.734375 5.484375 475.953125 C 4.875 477.78125 5.484375 478.390625 6.09375 479 C 6.703125 479 6.703125 480.828125 5.484375 483.265625 C 4.265625 485.703125 4.265625 493.625 4.875 506.421875 C 5.484375 519.21875 5.484375 527.140625 4.265625 529.582031 C 3.65625 532.019531 3.046875 533.847656 3.65625 535.066406 C 4.265625 536.285156 4.265625 538.722656 4.265625 542.988281 C 4.265625 546.644531 4.265625 549.082031 4.875 550.300781 C 5.484375 551.519531 5.484375 553.347656 4.265625 557.003906 C 3.65625 560.050781 3.046875 562.488281 3.65625 563.097656 C 4.265625 564.316406 4.265625 564.925781 3.65625 566.144531 C 3.046875 566.753906 3.046875 566.753906 3.046875 567.363281 C 3.65625 567.363281 3.65625 567.363281 3.65625 567.363281 C 3.65625 567.363281 4.265625 567.363281 4.875 567.363281 C 4.875 570.410156 4.875 573.457031 4.265625 575.894531 C 4.265625 578.941406 3.65625 581.378906 3.65625 584.425781 C 4.265625 584.425781 4.265625 584.425781 4.875 584.425781 C 4.875 584.425781 5.484375 584.425781 6.09375 584.425781 C 5.484375 596.617188 5.484375 609.414062 4.875 621.601562 C 4.265625 633.789062 4.265625 645.976562 3.65625 658.777344 C 4.265625 658.777344 4.265625 658.777344 4.875 658.777344 C 5.484375 658.777344 6.09375 660.605469 6.09375 663.652344 C 6.09375 666.699219 6.09375 669.136719 5.484375 671.574219 C 4.265625 673.402344 3.65625 675.839844 3.65625 677.667969 C 3.65625 678.886719 3.65625 680.105469 3.65625 680.714844 C 4.265625 680.714844 4.265625 680.714844 4.875 680.714844 C 4.875 680.714844 5.484375 680.714844 6.09375 680.714844 C 6.09375 683.761719 6.09375 686.808594 6.09375 689.246094 C 6.09375 692.292969 6.09375 694.730469 6.09375 697.777344 C 5.484375 697.777344 5.484375 697.777344 4.875 697.167969 C 4.265625 697.167969 4.265625 697.167969 3.65625 696.558594 C 3.65625 697.167969 3.65625 697.167969 3.65625 697.167969 C 3.65625 697.777344 4.265625 698.386719 4.875 699.605469 C 4.875 700.214844 5.484375 700.824219 6.09375 701.433594 C 5.484375 701.433594 5.484375 701.433594 4.875 701.433594 C 4.875 702.652344 4.875 703.261719 4.265625 704.480469 C 4.265625 706.917969 4.265625 708.746094 5.484375 709.964844 C 6.703125 711.183594 6.703125 714.230469 6.703125 717.890625 C 6.703125 721.546875 7.3125 724.59375 8.53125 726.421875 C 9.75 728.25 12.1875 730.6875 15.839844 732.515625 C 19.496094 734.953125 26.199219 735.5625 35.945312 735.5625 C 45.695312 734.953125 51.179688 735.5625 53.007812 736.171875 C 54.835938 737.390625 57.269531 737.390625 60.316406 736.171875 C 63.972656 735.5625 65.800781 734.953125 67.019531 735.5625 C 68.238281 736.171875 69.457031 735.5625 71.285156 734.34375 C 73.113281 733.125 74.941406 733.125 77.984375 733.734375 C 81.03125 734.34375 82.859375 734.953125 82.859375 735.5625 C 82.859375 736.171875 83.46875 736.78125 84.6875 736.78125 C 85.296875 736.78125 85.296875 736.78125 85.90625 736.78125 C 85.90625 736.171875 85.90625 736.171875 85.90625 735.5625 C 85.90625 734.953125 85.90625 734.953125 85.90625 734.34375 C 86.515625 734.953125 87.125 734.953125 87.734375 735.5625 C 88.34375 736.171875 88.34375 736.171875 88.953125 736.78125 C 88.953125 736.171875 88.953125 736.171875 89.5625 735.5625 C 89.5625 734.953125 92.609375 734.34375 98.699219 734.34375 C 104.183594 734.34375 107.230469 734.953125 107.839844 735.5625 C 107.839844 736.171875 109.058594 736.171875 109.667969 736.171875 C 110.277344 736.171875 110.277344 736.171875 110.886719 735.5625 C 110.886719 736.171875 110.886719 736.171875 110.886719 736.78125 C 110.886719 736.78125 110.886719 737.390625 110.886719 738 C 110.886719 737.390625 110.886719 737.390625 111.496094 736.78125 C 112.105469 736.171875 115.152344 736.171875 120.632812 736.78125 C 126.726562 737.390625 129.773438 737.390625 130.992188 736.171875 C 132.210938 735.5625 133.429688 735.5625 135.867188 736.171875 C 138.300781 737.390625 140.128906 738 141.347656 738 C 142.566406 738 143.785156 737.390625 144.394531 736.171875 C 145.613281 735.5625 149.878906 734.953125 158.410156 735.5625 C 166.9375 736.171875 171.8125 736.171875 174.25 734.953125 C 176.078125 733.734375 178.515625 733.734375 180.339844 734.953125 C 182.167969 735.5625 183.996094 736.171875 186.433594 736.171875 C 188.871094 736.171875 191.308594 735.5625 194.355469 734.953125 C 197.402344 733.734375 200.445312 734.34375 202.882812 735.5625 C 205.320312 736.78125 207.757812 736.78125 209.585938 736.171875 C 211.414062 735.5625 212.632812 734.953125 213.851562 735.5625 C 214.460938 735.5625 214.460938 735.5625 215.070312 736.171875 C 215.070312 735.5625 215.070312 735.5625 215.070312 734.953125 C 215.070312 734.953125 215.070312 734.34375 215.070312 733.734375 C 220.550781 733.734375 226.644531 733.734375 232.738281 733.734375 C 244.3125 733.734375 250.40625 734.34375 251.625 735.5625 C 252.84375 736.171875 255.28125 736.171875 258.328125 735.5625 C 261.980469 734.34375 264.417969 734.34375 266.246094 735.5625 C 268.074219 736.171875 270.511719 736.171875 272.949219 735.5625 C 275.996094 734.34375 277.824219 733.734375 279.652344 733.734375 C 280.871094 733.734375 281.480469 733.734375 282.695312 733.734375 C 282.695312 734.34375 282.695312 734.34375 282.695312 734.953125 C 282.695312 735.5625 282.695312 735.5625 282.695312 736.171875 C 284.523438 736.171875 286.351562 736.171875 288.179688 735.5625 C 291.835938 734.953125 294.273438 735.5625 294.882812 736.171875 C 295.492188 736.78125 297.320312 736.78125 299.757812 735.5625 C 302.195312 734.34375 304.628906 734.34375 307.675781 734.953125 C 310.722656 735.5625 314.378906 735.5625 318.035156 735.5625 C 322.300781 734.953125 324.125 734.34375 324.125 733.734375 C 324.125 733.125 324.125 733.125 324.125 733.125 C 326.5625 733.125 329 733.125 332.046875 733.734375 C 337.53125 734.34375 341.1875 734.953125 343.015625 735.5625 C 345.449219 736.171875 353.371094 736.171875 367.992188 735.5625 C 382.007812 734.34375 391.144531 734.34375 394.191406 735.5625 C 396.019531 736.171875 397.238281 736.171875 399.066406 736.78125 C 399.066406 736.171875 399.066406 736.171875 399.066406 735.5625 C 399.066406 734.34375 402.113281 733.734375 408.8125 733.734375 C 414.90625 733.125 420.390625 733.125 423.4375 733.734375 C 427.089844 734.34375 428.308594 734.34375 428.308594 734.953125 C 428.308594 735.5625 431.355469 736.171875 438.058594 736.171875 C 441.105469 736.171875 444.761719 736.78125 447.804688 736.78125 C 447.804688 736.171875 447.804688 736.171875 447.804688 735.5625 C 447.804688 734.953125 448.414062 734.34375 450.242188 733.734375 C 452.070312 733.125 455.726562 732.515625 463.039062 731.90625 C 469.738281 731.296875 475.222656 731.90625 478.878906 733.125 C 482.535156 734.953125 487.410156 734.953125 494.109375 734.34375 C 500.8125 733.734375 504.46875 733.734375 505.6875 734.953125 C 506.296875 735.5625 506.90625 735.5625 507.515625 736.171875 C 507.515625 735.5625 508.125 735.5625 508.734375 734.953125 C 509.339844 733.734375 511.777344 733.734375 516.652344 734.34375 C 521.527344 734.953125 523.964844 734.953125 525.183594 734.34375 C 525.792969 733.734375 529.445312 733.125 534.929688 733.125 C 540.414062 732.515625 544.679688 733.125 546.507812 734.34375 C 548.335938 734.953125 550.769531 734.953125 553.207031 734.34375 C 555.644531 733.125 559.300781 733.125 564.175781 733.125 C 569.050781 733.734375 572.703125 733.125 575.75 732.515625 C 578.1875 731.90625 580.625 730.6875 582.453125 728.859375 C 584.28125 727.03125 586.71875 725.203125 590.375 723.984375 C 594.027344 722.765625 597.683594 719.71875 601.949219 714.230469 C 606.214844 708.746094 609.871094 705.089844 612.304688 703.261719 C 614.742188 701.433594 616.570312 700.214844 617.789062 698.386719 C 619.007812 696.558594 620.226562 695.949219 620.835938 695.949219 C 621.445312 695.949219 622.054688 695.339844 622.664062 694.121094 C 623.273438 693.511719 624.492188 692.292969 626.320312 691.683594 C 628.148438 691.074219 629.976562 689.246094 631.195312 686.808594 C 632.410156 684.371094 634.238281 682.542969 637.285156 680.714844 C 640.332031 678.886719 641.550781 677.058594 642.160156 675.230469 C 642.769531 673.402344 644.597656 670.964844 647.644531 667.917969 C 651.300781 664.871094 653.125 663.042969 654.34375 663.042969 C 655.5625 663.042969 656.78125 661.824219 658.609375 659.386719 C 660.4375 656.949219 662.265625 655.117188 664.703125 653.289062 C 667.140625 651.460938 668.359375 650.242188 668.96875 648.414062 C 669.578125 646.585938 671.40625 644.757812 675.667969 642.320312 C 679.933594 639.882812 682.371094 637.445312 683.589844 635.007812 C 684.808594 632.570312 689.074219 628.304688 697.601562 621.601562 C 705.523438 614.898438 709.179688 611.242188 709.179688 610.023438 C 709.179688 608.804688 710.398438 608.195312 712.226562 607.585938 C 714.054688 606.976562 715.878906 605.148438 718.316406 601.492188 C 720.144531 597.835938 722.582031 596.007812 725.019531 594.785156 C 727.457031 593.566406 729.894531 591.128906 732.332031 588.082031 C 734.765625 584.425781 737.203125 582.597656 740.25 580.769531 C 743.296875 578.941406 744.515625 577.722656 745.125 575.894531 C 745.734375 574.066406 746.34375 568.582031 746.34375 558.222656 C 746.34375 547.863281 746.953125 542.378906 747.5625 542.378906 C 748.171875 542.378906 748.78125 541.160156 748.78125 539.332031 C 748.78125 537.503906 748.171875 536.285156 747.5625 534.453125 C 746.34375 533.234375 746.34375 530.796875 746.953125 527.75 C 747.5625 524.703125 747.5625 522.875 746.953125 522.875 C 746.34375 522.265625 746.34375 519.828125 746.34375 514.34375 C 746.34375 509.46875 746.34375 505.8125 745.734375 504.59375 C 745.125 503.375 745.125 502.15625 746.34375 500.328125 C 746.953125 498.5 747.5625 496.0625 747.5625 491.796875 C 747.5625 487.53125 746.953125 483.265625 746.34375 479.609375 C 745.125 475.953125 745.125 468.636719 745.734375 457.667969 C 746.34375 446.699219 746.34375 440.605469 745.125 439.386719 C 744.515625 438.167969 744.515625 435.730469 745.125 431.464844 C 745.734375 427.808594 745.734375 425.371094 745.125 424.761719 C 744.515625 424.152344 743.90625 421.714844 743.90625 417.449219 C 744.515625 413.183594 743.90625 408.914062 743.296875 405.257812 C 742.6875 401.601562 742.6875 396.117188 743.90625 390.632812 C 745.125 385.148438 745.125 380.882812 743.90625 379.054688 C 743.296875 376.617188 742.6875 374.789062 742.6875 372.351562 C 742.6875 369.914062 743.296875 368.695312 743.90625 368.085938 C 744.515625 367.476562 744.515625 366.257812 743.90625 363.820312 C 743.296875 361.382812 743.296875 355.289062 743.90625 345.535156 C 744.515625 335.785156 744.515625 328.472656 743.90625 322.988281 C 743.296875 318.113281 742.6875 315.066406 742.078125 314.457031 C 741.46875 313.847656 741.46875 312.019531 742.6875 308.363281 C 743.296875 304.707031 743.90625 302.269531 743.296875 299.832031 C 742.6875 297.394531 742.6875 291.910156 742.6875 282.765625 C 743.296875 273.625 742.6875 268.140625 742.078125 266.921875 C 741.46875 265.703125 741.46875 263.265625 742.078125 259 C 742.6875 254.734375 742.6875 249.859375 741.46875 244.375 C 740.25 238.890625 740.25 235.84375 740.859375 234.625 C 741.46875 233.40625 742.078125 229.75 742.078125 222.433594 C 742.078125 215.121094 741.46875 210.246094 740.859375 208.417969 C 740.25 206.589844 740.25 196.839844 740.25 180.386719 C 740.25 163.929688 740.25 153.570312 739.03125 149.914062 C 738.421875 145.648438 737.8125 142.601562 738.421875 140.164062 C 739.03125 137.726562 739.03125 134.679688 738.421875 130.414062 C 737.8125 126.757812 737.8125 123.710938 739.03125 121.882812 C 740.25 120.054688 739.640625 116.398438 738.421875 110.914062 C 737.203125 105.429688 736.59375 100.550781 737.203125 96.285156 C 737.8125 92.019531 737.8125 87.753906 737.203125 83.488281 C 736.59375 79.222656 736.59375 73.128906 737.203125 64.597656 C 737.8125 56.675781 737.8125 51.191406 737.203125 49.972656 C 736.59375 48.753906 736.59375 46.316406 737.203125 43.878906 C 737.8125 41.4375 737.8125 36.5625 736.59375 29.859375 C 735.375 22.546875 734.15625 18.28125 732.941406 16.453125 C 731.113281 14.625 730.503906 12.1875 729.894531 9.140625 C 729.285156 6.09375 728.066406 3.65625 725.628906 2.4375 C 723.191406 1.21875 721.363281 0 718.925781 0 C 716.488281 0 714.050781 0 711.007812 0.609375 C 707.960938 1.21875 704.304688 1.21875 699.429688 0.609375 C 694.554688 0 691.511719 0 689.683594 0.609375 C 687.855469 1.21875 685.417969 1.21875 681.761719 0.609375 C 678.105469 0 675.058594 0 673.230469 0.609375 C 670.796875 1.21875 667.75 1.21875 664.09375 0.609375 C 659.828125 0 657.390625 0 655.5625 0.609375 C 653.734375 1.21875 651.90625 1.21875 650.691406 0.609375 C 649.472656 0 647.644531 0 646.425781 0.609375 C 645.207031 1.21875 643.378906 1.21875 641.550781 0.609375 C 639.113281 0 637.285156 0 635.457031 1.21875 C 633.628906 2.4375 631.800781 2.4375 629.367188 1.828125 C 626.929688 1.21875 618.398438 1.21875 604.386719 1.828125 C 590.371094 2.4375 582.453125 2.4375 581.234375 1.21875 C 579.40625 0.609375 578.1875 0 576.359375 0.609375 C 574.53125 1.21875 569.046875 1.828125 558.691406 1.828125 C 548.335938 1.828125 542.242188 1.21875 540.414062 0.609375 C 538.585938 0 536.757812 0 535.539062 0.609375 C 534.320312 1.21875 530.054688 1.21875 523.355469 1.21875 C 516.652344 1.21875 512.996094 1.21875 511.777344 1.828125 C 510.558594 2.4375 508.730469 2.4375 505.6875 1.828125 C 502.640625 1.21875 499.59375 1.21875 495.9375 1.828125 C 492.28125 2.4375 489.234375 2.4375 486.191406 1.21875 C 482.535156 0.609375 480.097656 0.609375 477.660156 1.21875 C 475.222656 2.4375 472.785156 2.4375 470.347656 1.828125 C 467.910156 1.21875 464.867188 0.609375 461.820312 0.609375 C 458.773438 0.609375 456.335938 1.21875 455.117188 1.828125 C 454.507812 2.4375 452.070312 2.4375 449.023438 1.828125 C 445.371094 1.21875 442.933594 1.21875 441.714844 2.4375 C 439.886719 3.65625 436.839844 3.65625 431.964844 3.046875 C 427.089844 2.4375 424.65625 2.4375 424.046875 1.828125 C 424.046875 1.21875 421.609375 1.21875 417.953125 2.4375 C 414.296875 3.65625 411.859375 3.65625 411.25 3.046875 C 410.640625 2.4375 408.203125 2.4375 404.546875 3.046875 C 400.894531 3.65625 398.457031 3.65625 396.628906 2.4375 C 394.800781 1.21875 386.878906 0.609375 372.867188 0.609375 C 358.855469 0.609375 351.542969 1.21875 350.324219 1.828125 C 349.714844 2.4375 347.886719 2.4375 344.839844 1.828125 C 341.796875 1.21875 338.75 1.21875 335.09375 1.828125 C 331.4375 2.4375 326.5625 3.046875 321.082031 3.046875 C 314.988281 3.046875 311.941406 2.4375 310.722656 1.828125 C 309.503906 1.21875 304.628906 0.609375 295.492188 0.609375 C 286.960938 0.609375 281.476562 1.21875 280.261719 1.828125 C 278.433594 2.4375 277.824219 2.4375 276.605469 1.828125 C 275.386719 1.21875 273.558594 0.609375 269.902344 0.609375 C 266.246094 0.609375 263.808594 1.21875 261.980469 1.828125 C 260.15625 2.4375 258.328125 2.4375 255.890625 1.21875 C 247.359375 1.828125 244.3125 1.828125 241.269531 1.828125 Z M 467.304688 29.859375 C 469.128906 29.859375 470.957031 29.859375 473.394531 29.859375 C 477.660156 29.859375 480.097656 30.46875 480.707031 31.078125 C 481.316406 31.6875 483.753906 32.296875 487.410156 32.296875 C 491.0625 32.296875 494.109375 31.6875 495.9375 31.078125 C 498.375 30.46875 500.203125 30.46875 502.640625 31.6875 C 504.46875 32.910156 508.125 33.519531 512.386719 32.910156 C 516.652344 32.296875 519.089844 32.296875 519.089844 31.6875 C 519.699219 31.078125 522.136719 30.46875 527.621094 30.46875 C 533.101562 30.46875 536.148438 31.078125 536.148438 31.6875 C 536.757812 32.296875 537.976562 32.296875 541.023438 32.296875 C 544.070312 32.296875 546.507812 32.296875 548.335938 32.910156 C 550.160156 33.519531 552.597656 33.519531 555.035156 32.296875 C 558.082031 31.078125 561.128906 31.6875 564.785156 32.910156 C 566.613281 33.519531 568.441406 34.128906 570.265625 34.738281 C 570.265625 34.128906 570.875 33.519531 570.875 32.910156 C 570.875 31.6875 577.578125 31.6875 590.375 32.296875 C 603.167969 32.910156 609.871094 32.296875 609.871094 31.6875 C 610.480469 31.078125 611.695312 30.46875 614.132812 30.46875 C 616.570312 30.46875 620.226562 31.078125 625.710938 31.6875 C 631.191406 32.296875 637.285156 32.296875 644.597656 31.078125 C 651.300781 30.46875 655.5625 29.859375 656.171875 30.46875 C 656.78125 31.078125 661.046875 31.6875 667.140625 31.6875 C 673.230469 31.6875 676.886719 32.296875 676.886719 32.910156 C 676.886719 33.519531 677.496094 33.519531 677.496094 34.128906 C 676.277344 34.738281 675.667969 34.738281 674.449219 35.347656 C 672.625 35.957031 671.40625 37.175781 670.1875 39.003906 C 668.96875 40.832031 668.359375 42.050781 666.53125 42.660156 C 664.703125 43.269531 663.484375 45.097656 661.65625 48.753906 C 659.828125 51.800781 658 54.238281 655.5625 55.457031 C 653.125 56.675781 650.691406 58.503906 647.644531 61.550781 C 644.597656 65.207031 642.160156 67.644531 639.722656 69.472656 C 636.675781 71.300781 635.457031 72.519531 635.457031 73.738281 C 635.457031 74.957031 634.847656 75.566406 633.019531 77.394531 C 631.195312 79.222656 629.976562 79.832031 628.148438 79.832031 C 626.320312 79.832031 625.101562 81.660156 623.273438 84.707031 C 621.445312 87.753906 617.179688 92.628906 609.871094 98.726562 C 603.167969 104.820312 598.902344 108.476562 598.902344 109.695312 C 598.902344 110.914062 598.292969 111.523438 597.074219 111.523438 C 595.855469 111.523438 594.027344 113.351562 591.589844 117.007812 C 589.15625 120.664062 586.71875 123.101562 584.28125 123.710938 C 581.84375 124.929688 580.015625 126.757812 577.578125 129.804688 C 575.140625 133.460938 567.222656 135.289062 553.816406 135.289062 C 539.804688 135.289062 533.101562 135.289062 532.492188 134.070312 C 531.882812 133.460938 530.054688 132.851562 527.621094 132.242188 C 525.183594 132.242188 520.917969 132.242188 516.652344 133.460938 C 512.386719 134.679688 503.859375 135.289062 490.453125 134.679688 C 477.660156 134.070312 470.347656 134.070312 469.128906 134.679688 C 467.910156 135.289062 465.476562 135.289062 463.039062 134.070312 C 460.601562 133.460938 458.773438 133.460938 457.554688 134.070312 C 456.335938 135.289062 455.117188 135.289062 454.507812 134.679688 C 453.898438 134.679688 453.898438 134.070312 453.898438 133.460938 C 453.289062 134.070312 452.679688 134.679688 452.070312 135.289062 C 451.460938 136.507812 445.980469 137.117188 436.839844 137.117188 C 427.089844 137.117188 422.21875 136.507812 421.609375 135.898438 C 421 135.289062 421 135.289062 420.390625 135.289062 C 420.390625 135.898438 420.390625 135.898438 420.390625 135.898438 C 420.390625 136.507812 418.5625 137.117188 415.515625 137.726562 C 412.46875 137.726562 409.421875 137.726562 406.375 137.117188 C 403.332031 136.507812 399.675781 136.507812 396.019531 137.117188 C 391.753906 137.726562 389.316406 137.726562 387.488281 137.726562 C 385.660156 137.117188 385.054688 136.507812 385.054688 135.898438 C 385.054688 135.289062 385.054688 135.289062 385.054688 135.289062 C 383.835938 135.898438 383.226562 135.898438 382.617188 135.898438 C 380.789062 136.507812 378.960938 136.507812 377.742188 135.289062 C 377.132812 134.679688 376.523438 134.070312 375.914062 133.460938 C 375.914062 134.070312 375.914062 134.070312 375.304688 134.679688 C 374.695312 135.289062 374.085938 135.289062 373.476562 135.289062 C 372.867188 135.289062 372.867188 135.289062 372.257812 134.679688 C 372.257812 135.289062 372.257812 135.289062 372.257812 135.898438 C 372.257812 136.507812 369.820312 137.117188 364.339844 137.726562 C 358.855469 138.335938 355.199219 138.335938 353.980469 137.726562 C 353.371094 137.117188 352.152344 137.117188 351.542969 136.507812 C 351.542969 136.507812 351.542969 137.117188 351.542969 137.726562 C 351.542969 137.726562 351.542969 138.335938 351.542969 138.945312 C 350.933594 138.945312 349.714844 138.945312 349.105469 138.945312 C 347.277344 138.945312 346.667969 138.335938 346.058594 137.726562 C 346.058594 136.507812 344.84375 136.507812 343.625 136.507812 C 342.40625 136.507812 341.1875 136.507812 338.75 137.117188 C 337.53125 137.117188 336.921875 137.117188 336.3125 137.726562 C 336.3125 137.726562 336.3125 138.335938 336.921875 138.945312 C 336.921875 138.945312 337.53125 139.554688 337.53125 140.164062 C 336.921875 140.164062 336.921875 140.164062 336.3125 139.554688 C 335.703125 139.554688 335.703125 138.945312 335.09375 138.945312 C 335.09375 138.945312 335.09375 139.554688 334.484375 140.164062 C 334.484375 140.773438 333.875 140.773438 333.875 141.382812 C 332.65625 140.773438 331.4375 140.164062 330.21875 139.554688 C 327.78125 138.335938 325.34375 137.726562 323.519531 138.335938 C 321.691406 138.945312 319.863281 139.554688 319.253906 140.164062 C 318.644531 140.773438 317.425781 141.382812 316.207031 140.773438 C 315.597656 140.773438 314.378906 140.773438 313.769531 140.164062 C 313.769531 140.773438 313.769531 140.773438 313.769531 141.382812 C 313.769531 141.992188 313.769531 141.992188 313.769531 142.601562 C 309.503906 141.992188 305.238281 141.382812 300.976562 140.773438 C 292.445312 140.164062 287.570312 139.554688 286.960938 140.164062 C 286.351562 140.773438 286.351562 140.773438 285.742188 141.382812 C 285.742188 141.382812 285.742188 140.773438 285.742188 140.164062 C 285.742188 139.554688 285.742188 139.554688 285.742188 138.945312 C 285.132812 138.945312 284.523438 138.945312 283.914062 138.945312 C 282.699219 138.945312 280.261719 139.554688 275.996094 140.164062 C 271.730469 141.382812 269.902344 141.382812 269.292969 140.773438 C 268.683594 140.164062 265.636719 139.554688 260.15625 139.554688 C 257.71875 139.554688 254.671875 138.945312 251.625 138.945312 C 251.625 138.945312 251.625 139.554688 251.625 140.164062 C 251.625 140.773438 251.625 140.773438 251.625 141.382812 C 249.1875 141.382812 246.75 141.382812 244.3125 141.382812 C 241.878906 141.382812 239.441406 141.382812 237.003906 141.382812 C 237.003906 141.992188 237.003906 141.992188 237.003906 142.601562 C 237.003906 143.210938 237.003906 143.210938 237.003906 143.210938 C 236.394531 143.210938 235.785156 143.210938 235.175781 142.601562 C 233.957031 141.992188 233.347656 141.992188 233.347656 141.382812 C 233.347656 141.382812 233.347656 140.773438 233.347656 140.164062 C 228.472656 140.773438 224.207031 140.773438 219.335938 141.382812 C 210.195312 141.992188 205.320312 141.382812 204.101562 140.164062 C 202.882812 138.945312 201.664062 138.335938 199.230469 138.335938 C 197.402344 138.335938 195.574219 138.945312 194.355469 140.164062 C 192.527344 140.773438 190.699219 141.382812 187.042969 141.382812 C 183.386719 141.382812 181.558594 140.773438 180.34375 140.164062 C 179.734375 139.554688 178.515625 139.554688 177.90625 140.773438 C 176.6875 141.992188 168.765625 141.992188 152.925781 141.992188 C 137.695312 141.382812 129.164062 141.992188 126.726562 142.601562 C 124.898438 143.210938 123.070312 143.210938 121.242188 142.601562 C 119.414062 141.992188 116.980469 141.992188 113.324219 143.210938 C 109.667969 144.429688 106.011719 144.429688 101.136719 143.210938 C 96.265625 141.992188 93.828125 141.992188 93.21875 142.601562 C 92.609375 143.210938 92 143.210938 90.78125 143.210938 C 90.171875 143.210938 90.171875 143.210938 89.5625 142.601562 C 89.5625 143.210938 89.5625 143.210938 89.5625 143.210938 C 89.5625 143.210938 89.5625 143.820312 89.5625 144.429688 C 89.5625 143.820312 88.953125 143.820312 88.34375 143.210938 C 87.734375 142.601562 84.078125 142.601562 77.378906 143.210938 C 70.675781 143.820312 67.019531 143.820312 66.410156 143.210938 C 65.800781 142.601562 63.363281 142.601562 59.707031 142.601562 C 56.054688 142.601562 53.007812 142.601562 51.789062 143.210938 C 51.789062 143.210938 52.398438 143.210938 52.398438 142.601562 C 54.226562 141.382812 57.273438 139.554688 59.707031 135.289062 C 62.753906 131.023438 64.582031 129.195312 66.410156 128.585938 C 68.238281 127.976562 70.066406 126.148438 71.285156 123.101562 C 73.113281 120.054688 76.769531 115.789062 83.46875 110.914062 C 89.5625 106.039062 93.21875 102.382812 94.4375 101.164062 C 95.65625 99.945312 95.65625 98.726562 95.65625 98.117188 C 95.046875 97.507812 97.484375 95.679688 101.136719 93.238281 C 105.402344 90.800781 107.839844 88.363281 109.058594 85.925781 C 110.277344 83.488281 112.105469 81.050781 113.933594 79.222656 C 115.761719 77.394531 118.199219 75.566406 120.632812 74.347656 C 122.460938 73.738281 124.898438 71.300781 126.726562 68.863281 C 128.554688 66.425781 130.382812 63.988281 132.210938 63.378906 C 134.039062 62.160156 134.648438 61.550781 134.648438 60.332031 C 134.648438 59.113281 135.257812 58.503906 137.085938 57.894531 C 138.914062 57.285156 140.738281 55.457031 143.785156 50.582031 C 146.832031 45.707031 149.269531 43.878906 151.097656 43.269531 C 152.925781 42.660156 154.753906 41.441406 157.191406 38.394531 C 159.019531 35.347656 163.28125 34.128906 169.984375 34.738281 C 176.6875 35.347656 179.734375 35.347656 180.949219 34.738281 C 182.167969 34.128906 183.386719 34.128906 185.824219 35.347656 C 188.261719 36.566406 190.089844 36.566406 192.527344 35.347656 C 194.964844 34.128906 196.792969 34.128906 198.011719 34.738281 C 199.230469 35.347656 201.058594 35.347656 202.882812 34.738281 C 204.710938 34.128906 205.929688 34.128906 206.539062 34.738281 C 207.148438 35.347656 211.414062 35.957031 218.726562 35.957031 C 226.035156 35.957031 230.300781 35.347656 231.519531 34.738281 C 232.738281 34.128906 233.957031 34.128906 234.566406 34.738281 C 235.175781 35.347656 237.613281 35.347656 241.878906 35.347656 C 245.53125 34.738281 247.96875 35.347656 248.578125 35.957031 C 249.1875 36.566406 250.40625 36.566406 252.234375 35.347656 C 254.0625 34.128906 255.890625 34.128906 258.328125 34.128906 C 260.15625 34.128906 262.59375 34.738281 266.246094 35.347656 C 268.074219 35.957031 269.292969 36.566406 271.121094 37.175781 C 271.121094 36.566406 271.121094 36.566406 271.121094 35.957031 C 271.121094 35.957031 271.121094 35.347656 271.121094 34.738281 C 272.339844 34.738281 274.167969 34.738281 275.386719 35.347656 C 277.824219 35.957031 280.871094 35.347656 284.523438 34.738281 C 288.179688 34.128906 290.617188 33.519531 292.445312 34.128906 C 294.882812 34.738281 296.710938 34.738281 299.148438 33.519531 C 300.976562 32.910156 304.023438 32.910156 307.066406 33.519531 C 310.113281 34.738281 318.644531 34.738281 332.046875 34.128906 C 346.058594 33.519531 353.371094 33.519531 355.199219 34.738281 C 357.027344 35.957031 359.464844 35.957031 362.511719 34.738281 C 365.558594 33.519531 369.820312 33.519531 375.914062 34.738281 C 382.007812 35.957031 385.664062 35.957031 387.488281 35.347656 C 389.925781 34.738281 392.972656 34.738281 397.238281 34.738281 C 401.503906 35.347656 405.160156 34.738281 408.203125 33.519531 C 411.25 32.910156 413.6875 32.910156 416.125 33.519531 C 418.5625 34.738281 425.875 34.738281 438.667969 34.128906 C 451.460938 33.519531 458.164062 33.519531 458.164062 34.128906 C 458.773438 34.738281 459.382812 35.347656 461.820312 35.347656 C 463.039062 35.347656 464.257812 35.347656 464.867188 35.347656 C 464.867188 34.738281 464.867188 34.738281 464.867188 34.128906 C 467.304688 30.46875 467.304688 29.859375 467.304688 29.859375 Z M 703.695312 42.050781 C 703.695312 46.925781 703.695312 51.191406 703.695312 56.066406 C 703.695312 65.207031 704.304688 71.300781 704.914062 74.347656 C 705.523438 76.785156 705.523438 79.832031 704.914062 83.488281 C 704.304688 86.535156 704.304688 92.019531 705.523438 99.335938 C 706.742188 106.648438 706.742188 113.960938 706.132812 120.664062 C 705.523438 127.367188 705.523438 131.632812 706.742188 132.851562 C 707.351562 133.460938 707.351562 134.679688 707.960938 135.289062 C 707.351562 135.289062 707.351562 135.898438 707.351562 135.898438 C 706.742188 136.507812 706.132812 138.945312 705.523438 143.820312 C 705.523438 148.695312 706.132812 158.449219 707.351562 172.464844 C 708.570312 186.480469 708.570312 197.449219 707.960938 205.371094 C 707.351562 213.292969 707.351562 218.78125 707.960938 220.609375 C 708.570312 223.046875 708.570312 224.875 707.960938 226.703125 C 707.351562 228.53125 707.351562 229.75 707.960938 230.359375 C 708.570312 230.96875 709.179688 232.796875 709.179688 236.453125 C 709.179688 240.109375 708.570312 243.15625 707.960938 244.984375 C 707.351562 247.421875 707.351562 248.03125 707.960938 248.640625 C 708.570312 249.25 709.179688 251.078125 709.179688 255.953125 C 709.179688 260.828125 708.570312 263.875 707.960938 265.09375 C 707.351562 266.921875 707.351562 268.140625 708.570312 268.75 C 709.179688 269.359375 709.789062 271.1875 710.398438 273.015625 C 711.007812 274.84375 710.398438 280.332031 709.789062 290.082031 C 708.570312 299.832031 708.570312 307.753906 709.789062 314.457031 C 710.398438 320.550781 710.398438 324.816406 709.789062 326.035156 C 708.570312 327.863281 708.570312 329.691406 708.570312 332.738281 C 708.570312 335.175781 709.179688 337.003906 709.789062 337.613281 C 710.398438 337.613281 710.398438 341.882812 710.398438 349.195312 C 710.398438 356.507812 710.398438 360.773438 711.007812 362.601562 C 711.617188 364.429688 711.617188 365.648438 711.007812 367.476562 C 710.398438 369.304688 710.398438 372.351562 711.007812 377.226562 C 711.617188 382.101562 711.617188 386.367188 711.007812 389.414062 C 710.398438 393.070312 710.398438 395.507812 711.007812 397.945312 C 711.617188 400.382812 711.617188 407.089844 711.617188 418.667969 C 711.617188 429.636719 711.617188 436.339844 712.226562 438.167969 C 712.835938 439.996094 712.835938 441.824219 712.226562 444.871094 C 711.617188 447.917969 711.617188 450.355469 712.835938 452.792969 C 713.445312 455.230469 714.054688 459.496094 714.054688 464.984375 C 714.054688 470.46875 713.445312 474.125 712.835938 475.34375 C 712.226562 476.5625 712.226562 478.390625 712.835938 481.4375 C 713.445312 483.875 713.445312 486.3125 712.835938 488.75 C 712.226562 491.1875 712.226562 492.40625 713.445312 493.625 C 714.054688 494.84375 714.054688 497.28125 713.445312 502.15625 C 712.226562 507.03125 712.226562 510.6875 713.445312 512.515625 C 714.054688 514.34375 714.664062 519.828125 714.664062 528.972656 C 714.054688 538.113281 714.664062 543.597656 715.269531 544.816406 C 716.488281 546.035156 716.488281 547.863281 715.269531 550.300781 C 714.664062 552.738281 714.054688 555.785156 714.664062 558.832031 C 715.269531 562.488281 714.664062 564.316406 713.445312 564.316406 C 712.226562 564.925781 711.617188 565.535156 711.007812 567.363281 C 710.398438 569.191406 708.570312 571.019531 706.132812 572.847656 C 703.695312 574.675781 700.648438 577.113281 698.210938 580.769531 C 695.773438 584.425781 693.339844 586.253906 691.511719 586.863281 C 689.683594 587.472656 688.464844 588.695312 687.855469 589.914062 C 687.246094 591.132812 686.027344 592.351562 684.199219 593.570312 C 682.371094 594.789062 680.542969 596.617188 679.324219 599.054688 C 678.105469 602.101562 675.667969 603.929688 672.625 605.757812 C 668.96875 607.585938 665.921875 610.023438 662.265625 614.289062 C 658.609375 618.554688 656.171875 620.992188 654.953125 620.992188 C 653.734375 621.601562 652.519531 622.820312 650.691406 625.867188 C 648.863281 628.914062 647.644531 630.132812 645.816406 630.742188 C 643.988281 631.351562 641.550781 633.789062 638.503906 638.054688 C 635.457031 642.320312 631.804688 645.976562 628.148438 647.804688 C 624.492188 649.636719 622.054688 652.074219 620.226562 655.730469 C 618.398438 659.386719 615.960938 661.214844 613.523438 663.042969 C 611.089844 664.871094 609.871094 666.089844 608.652344 667.917969 C 608.042969 669.746094 606.824219 670.964844 603.777344 672.183594 C 601.339844 673.402344 597.683594 676.449219 593.417969 681.324219 C 590.984375 683.761719 589.15625 686.199219 587.328125 688.636719 C 587.328125 687.417969 586.71875 686.199219 586.71875 684.371094 C 586.71875 681.324219 586.71875 678.886719 587.328125 677.058594 C 587.9375 675.230469 587.9375 674.011719 587.328125 673.402344 C 586.71875 673.402344 586.71875 673.402344 586.109375 672.792969 C 586.71875 672.792969 586.71875 672.183594 587.328125 672.183594 C 587.328125 672.183594 587.9375 672.183594 588.546875 671.574219 C 587.9375 671.574219 587.9375 671.574219 587.328125 670.964844 C 586.71875 670.964844 586.71875 670.355469 586.109375 670.355469 C 586.71875 669.746094 586.71875 669.136719 587.328125 668.527344 C 587.9375 667.308594 587.9375 664.261719 587.328125 659.996094 C 586.71875 655.121094 586.71875 653.292969 587.328125 652.683594 C 587.9375 652.074219 587.9375 651.464844 587.9375 650.246094 C 587.9375 649.023438 587.9375 648.414062 589.15625 647.804688 C 589.765625 647.804688 589.765625 647.195312 590.375 647.195312 C 590.375 647.195312 589.765625 647.195312 589.15625 647.195312 C 588.546875 647.195312 588.546875 647.195312 588.546875 647.195312 C 588.546875 645.367188 588.546875 644.148438 588.546875 642.320312 C 588.546875 638.664062 587.9375 636.835938 587.328125 635.617188 C 586.71875 635.007812 586.71875 628.914062 586.71875 617.945312 C 587.328125 606.976562 586.71875 600.882812 586.109375 600.273438 C 585.5 599.664062 585.5 598.445312 585.5 596.617188 C 585.5 594.789062 585.5 594.179688 584.890625 593.570312 C 584.890625 593.570312 584.28125 593.570312 583.671875 592.960938 C 584.28125 592.351562 584.890625 591.132812 585.5 590.523438 C 586.71875 588.691406 587.328125 587.472656 586.71875 585.644531 C 586.71875 583.816406 586.71875 581.378906 587.9375 577.722656 C 588.546875 574.066406 588.546875 571.019531 587.328125 567.972656 C 586.109375 564.925781 585.5 562.488281 586.109375 560.660156 C 586.71875 558.832031 586.71875 555.175781 586.109375 549.691406 C 585.5 544.207031 585.5 540.550781 586.109375 537.503906 C 586.71875 535.066406 586.71875 532.628906 586.109375 530.800781 C 585.5 528.972656 585.5 528.359375 586.109375 527.75 C 586.71875 527.140625 587.328125 525.921875 587.328125 524.09375 C 587.328125 522.265625 586.71875 520.4375 586.109375 519.828125 C 585.5 519.21875 584.890625 516.78125 584.890625 513.125 C 584.890625 508.859375 585.5 506.421875 586.109375 505.203125 C 586.71875 503.984375 586.71875 503.375 586.109375 502.765625 C 585.5 502.15625 584.890625 498.5 584.890625 492.40625 C 584.890625 489.359375 584.28125 486.3125 584.28125 483.265625 C 584.890625 483.265625 584.890625 483.265625 585.5 483.265625 C 586.109375 483.265625 586.109375 483.265625 586.71875 483.265625 C 586.71875 481.4375 586.71875 479.609375 586.71875 478.390625 C 586.71875 476.5625 586.71875 475.34375 586.71875 473.515625 C 586.71875 473.515625 587.328125 473.515625 587.9375 473.515625 C 588.546875 473.515625 589.15625 471.6875 589.15625 468.640625 C 589.15625 465.589844 589.15625 463.152344 587.9375 461.933594 C 586.71875 460.714844 586.71875 458.886719 586.71875 455.839844 C 587.328125 452.792969 586.71875 450.964844 586.109375 449.746094 C 585.5 448.527344 585.5 446.699219 586.109375 443.652344 C 586.109375 441.824219 586.71875 440.605469 587.328125 438.777344 C 586.71875 438.777344 586.71875 438.777344 586.109375 438.777344 C 585.5 438.777344 585.5 438.777344 584.890625 438.777344 C 584.890625 434.511719 584.890625 430.246094 585.5 425.980469 C 586.109375 417.449219 585.5 412.574219 584.890625 410.746094 C 584.28125 408.917969 584.28125 407.695312 585.5 405.867188 C 586.109375 405.257812 586.71875 404.039062 587.328125 403.429688 C 586.71875 403.429688 586.71875 403.429688 586.109375 403.429688 C 585.5 403.429688 584.890625 402.820312 584.890625 401.601562 C 584.28125 400.382812 584.890625 399.773438 585.5 399.164062 C 586.71875 398.554688 587.328125 397.335938 587.328125 394.898438 C 587.328125 393.070312 586.71875 391.242188 586.109375 390.632812 C 585.5 390.023438 585.5 388.195312 586.109375 385.757812 C 586.71875 383.320312 586.71875 382.101562 586.109375 381.492188 C 585.5 381.492188 585.5 379.054688 586.109375 375.398438 C 586.71875 371.742188 586.71875 368.695312 586.109375 366.867188 C 585.5 365.039062 585.5 363.210938 586.71875 361.992188 C 587.9375 361.382812 587.9375 358.945312 586.71875 354.679688 C 586.109375 351.023438 586.109375 346.757812 586.71875 343.097656 C 587.9375 338.832031 587.9375 334.566406 587.328125 329.082031 C 586.71875 323.597656 586.71875 321.160156 587.328125 320.550781 C 587.9375 319.941406 587.9375 318.722656 586.71875 317.503906 C 586.109375 315.675781 585.5 314.457031 586.109375 312.628906 C 586.71875 310.800781 586.71875 306.535156 586.71875 300.441406 C 586.71875 293.738281 586.71875 290.691406 587.328125 290.082031 C 587.9375 289.472656 587.9375 284.597656 587.328125 274.84375 C 586.71875 265.09375 586.71875 260.21875 587.9375 259 C 588.546875 257.78125 589.765625 256.5625 589.765625 254.125 C 589.765625 251.6875 589.15625 249.859375 587.9375 247.421875 C 586.71875 244.984375 586.71875 241.9375 587.328125 238.28125 C 587.9375 234.625 587.9375 232.1875 587.328125 230.359375 C 586.71875 228.53125 586.71875 227.3125 587.328125 226.09375 C 587.9375 225.484375 587.9375 225.484375 587.9375 224.875 C 587.328125 224.875 587.328125 224.875 587.328125 224.875 C 586.71875 224.875 586.109375 224.265625 585.5 223.046875 C 585.5 221.824219 585.5 221.214844 586.71875 220.605469 C 587.9375 219.996094 587.9375 218.777344 587.328125 217.558594 C 586.71875 215.730469 586.71875 212.683594 587.9375 208.417969 C 589.15625 204.152344 588.546875 201.105469 587.328125 199.886719 C 586.71875 199.277344 586.109375 198.667969 585.5 198.058594 C 586.109375 197.449219 586.71875 196.839844 587.328125 196.230469 C 588.546875 195.011719 589.15625 193.183594 589.15625 191.355469 C 589.15625 190.136719 589.15625 188.917969 589.15625 188.308594 C 589.15625 188.308594 588.546875 188.308594 587.9375 188.308594 C 587.328125 188.308594 587.328125 188.308594 587.328125 188.308594 C 587.328125 187.089844 587.328125 185.871094 587.9375 184.652344 C 588.546875 182.214844 587.9375 180.386719 587.328125 179.777344 C 586.71875 178.558594 586.71875 175.511719 587.328125 169.417969 C 587.9375 166.371094 587.9375 163.324219 587.9375 160.886719 C 587.328125 160.886719 587.328125 160.886719 587.328125 160.886719 C 586.71875 160.886719 586.109375 160.273438 585.5 159.054688 C 585.5 158.445312 585.5 157.835938 584.890625 157.226562 C 585.5 157.226562 585.5 157.226562 586.109375 157.226562 C 587.328125 157.226562 587.9375 156.617188 587.9375 154.789062 C 587.9375 152.960938 589.765625 150.523438 592.808594 148.085938 C 595.246094 145.039062 598.292969 143.210938 601.949219 141.382812 C 604.996094 139.554688 608.652344 136.507812 612.304688 132.242188 C 615.351562 127.976562 617.789062 125.539062 619.617188 124.929688 C 621.445312 124.320312 622.054688 123.101562 622.054688 121.882812 C 622.664062 120.054688 623.882812 118.226562 626.929688 115.179688 C 629.976562 112.132812 632.410156 110.304688 634.847656 109.085938 C 636.675781 107.867188 638.503906 106.648438 639.722656 104.820312 C 640.332031 102.992188 643.378906 99.945312 647.644531 95.675781 C 651.910156 91.410156 655.5625 88.363281 658.609375 86.535156 C 661.65625 84.707031 663.484375 82.878906 663.484375 81.050781 C 664.09375 79.222656 664.703125 78.003906 665.921875 78.003906 C 667.140625 77.394531 668.359375 76.785156 668.96875 75.566406 C 670.1875 73.738281 670.796875 73.128906 672.625 72.519531 C 674.449219 71.910156 676.886719 70.082031 680.542969 66.425781 C 684.199219 62.769531 686.636719 60.332031 687.246094 58.503906 C 688.464844 56.675781 690.292969 54.847656 693.339844 52.410156 C 696.382812 50.582031 697.601562 48.753906 697.601562 48.144531 C 697.601562 47.535156 697.601562 47.535156 696.992188 46.925781 C 697.601562 46.925781 697.601562 47.535156 697.601562 47.535156 C 698.210938 48.144531 699.429688 46.316406 700.648438 43.878906 C 702.476562 44.488281 703.085938 43.269531 703.695312 42.050781 Z M 478.878906 168.808594 C 481.316406 169.417969 483.753906 169.417969 486.191406 170.027344 C 491.0625 170.636719 495.328125 170.636719 499.59375 169.417969 C 503.859375 168.808594 506.90625 168.199219 509.949219 168.808594 C 512.996094 169.417969 515.433594 169.417969 517.261719 168.808594 C 519.089844 168.199219 520.917969 168.199219 522.746094 169.417969 C 524.574219 170.636719 528.226562 170.636719 533.710938 170.027344 C 539.195312 169.417969 542.851562 169.417969 544.070312 170.636719 C 545.289062 171.855469 547.726562 171.855469 550.160156 171.855469 C 551.378906 171.855469 552.597656 171.855469 553.816406 171.246094 C 553.816406 172.464844 553.816406 173.074219 553.816406 174.292969 C 553.816406 175.511719 553.816406 176.730469 553.816406 177.339844 C 553.816406 177.339844 553.207031 177.339844 552.597656 177.339844 C 551.988281 177.339844 551.378906 177.949219 551.378906 179.777344 C 551.378906 181.605469 551.378906 183.433594 552.597656 185.871094 C 553.207031 188.308594 553.816406 191.355469 553.816406 194.402344 C 553.816406 197.449219 553.207031 199.277344 552.597656 199.886719 C 551.988281 200.496094 551.988281 201.714844 552.597656 202.933594 C 553.207031 204.761719 553.207031 211.464844 552.597656 223.046875 C 551.988281 235.234375 551.988281 241.328125 552.597656 242.546875 C 553.207031 243.15625 553.816406 247.421875 553.816406 254.125 C 553.816406 257.78125 553.816406 260.828125 553.816406 264.484375 C 553.816406 264.484375 553.207031 264.484375 552.597656 264.484375 C 551.988281 264.484375 551.988281 264.484375 551.988281 264.484375 C 551.988281 268.140625 551.988281 271.796875 551.988281 275.453125 C 551.988281 282.769531 551.988281 286.425781 552.597656 287.035156 C 553.207031 287.035156 553.816406 289.472656 553.816406 292.519531 C 553.816406 295.566406 553.207031 300.441406 552.597656 306.535156 C 551.988281 312.019531 551.378906 315.675781 551.988281 316.285156 C 552.597656 317.503906 552.597656 319.332031 552.597656 322.988281 C 551.988281 326.644531 552.597656 329.082031 553.207031 329.691406 C 553.816406 330.300781 553.816406 334.566406 553.207031 341.882812 C 552.597656 349.804688 552.597656 353.460938 553.207031 353.460938 C 553.816406 354.070312 554.425781 356.507812 554.425781 361.382812 C 554.425781 363.820312 554.425781 366.257812 554.425781 368.695312 C 554.425781 368.695312 553.816406 368.695312 553.207031 368.695312 C 552.597656 368.695312 551.988281 369.914062 551.988281 371.742188 C 551.988281 374.179688 551.988281 379.054688 553.207031 387.585938 C 553.816406 395.507812 553.816406 404.042969 552.597656 412.574219 C 551.378906 421.105469 551.378906 426.589844 552.597656 429.027344 C 553.816406 431.464844 553.816406 437.558594 552.597656 447.308594 C 551.378906 457.058594 551.378906 462.546875 551.988281 463.765625 C 553.207031 464.984375 553.207031 467.421875 553.207031 471.6875 C 552.597656 475.953125 553.207031 478.390625 553.816406 479 C 554.425781 479.609375 555.035156 481.4375 555.035156 483.875 C 555.035156 486.3125 554.425781 488.140625 553.816406 489.359375 C 553.207031 490.578125 551.988281 493.015625 551.988281 496.0625 C 551.988281 499.71875 551.988281 501.546875 552.597656 501.546875 C 553.207031 501.546875 553.816406 502.765625 553.816406 505.203125 C 553.816406 507.640625 553.816406 510.6875 553.207031 514.953125 C 552.597656 519.21875 552.597656 522.875 553.816406 525.925781 C 554.425781 528.363281 554.425781 531.410156 553.816406 533.847656 C 553.207031 536.285156 552.597656 541.769531 553.207031 549.082031 C 553.816406 557.003906 553.816406 561.878906 552.597656 564.925781 C 551.988281 567.363281 551.988281 569.800781 553.207031 571.628906 C 554.425781 573.457031 554.425781 577.113281 553.816406 583.207031 C 553.207031 589.914062 553.207031 594.179688 553.816406 597.226562 C 554.425781 599.664062 554.425781 602.101562 553.207031 603.929688 C 551.988281 605.757812 551.988281 608.195312 551.988281 611.851562 C 551.988281 614.898438 552.597656 618.554688 553.207031 621.601562 C 553.816406 623.429688 553.816406 624.648438 554.425781 626.476562 C 554.425781 626.476562 553.816406 626.476562 553.207031 626.476562 C 552.597656 626.476562 551.988281 627.085938 551.988281 628.304688 C 551.988281 629.523438 551.988281 631.960938 552.597656 635.007812 C 553.207031 638.054688 553.207031 640.492188 552.597656 641.101562 C 551.988281 641.710938 551.988281 644.152344 551.988281 647.808594 C 552.597656 651.464844 551.988281 654.511719 551.378906 655.730469 C 550.769531 656.949219 550.769531 658.167969 551.378906 659.386719 C 551.988281 660.605469 551.988281 664.261719 551.988281 669.746094 C 551.988281 672.183594 551.988281 675.230469 551.378906 677.667969 C 551.378906 677.667969 551.988281 677.667969 552.597656 677.058594 C 553.207031 677.058594 553.207031 676.449219 553.207031 676.449219 C 553.207031 678.886719 553.207031 681.324219 553.207031 683.761719 C 553.207031 688.636719 553.207031 691.683594 552.597656 692.292969 C 551.988281 693.511719 551.988281 694.730469 553.207031 696.558594 C 553.816406 697.167969 554.425781 698.386719 555.035156 698.996094 C 551.378906 698.996094 548.335938 698.386719 544.679688 697.777344 C 537.976562 697.167969 533.710938 697.167969 531.882812 697.167969 C 530.054688 697.167969 528.835938 698.386719 528.226562 698.996094 C 527.621094 699.605469 527.621094 699.605469 527.011719 700.214844 C 526.402344 699.605469 525.792969 699.605469 525.183594 698.996094 C 523.964844 697.777344 522.746094 697.167969 520.308594 697.167969 C 518.480469 697.167969 515.433594 697.777344 511.167969 698.996094 C 506.90625 699.605469 503.25 699.605469 499.59375 698.996094 C 496.546875 697.777344 484.363281 697.167969 463.648438 697.167969 C 442.933594 696.558594 431.964844 697.167969 431.355469 697.777344 C 430.746094 698.386719 425.265625 698.386719 415.515625 698.386719 C 405.765625 697.777344 400.285156 698.386719 398.457031 699.605469 C 397.238281 700.214844 396.019531 700.824219 395.410156 700.214844 C 394.800781 699.605469 392.363281 699.605469 388.097656 700.214844 C 383.835938 700.824219 381.398438 700.824219 381.398438 700.214844 C 381.398438 699.605469 377.132812 698.996094 369.820312 698.996094 C 362.511719 698.996094 358.246094 699.605469 357.636719 700.214844 C 357.027344 700.824219 354.589844 700.214844 351.542969 698.996094 C 349.714844 698.386719 347.886719 697.777344 346.667969 697.167969 C 346.667969 697.777344 347.277344 697.777344 347.277344 698.386719 C 347.277344 698.996094 347.277344 698.996094 347.886719 699.605469 C 347.277344 698.996094 346.667969 698.996094 346.058594 698.386719 C 344.839844 697.777344 343.625 697.777344 341.796875 698.996094 C 339.96875 699.605469 333.875 699.605469 323.515625 698.996094 C 312.550781 697.777344 305.847656 698.386719 303.410156 699.605469 C 300.976562 700.824219 299.148438 700.824219 297.929688 700.214844 C 296.710938 699.605469 294.273438 699.605469 289.398438 700.214844 C 284.523438 701.433594 280.871094 701.433594 279.042969 700.214844 C 276.605469 699.605469 268.074219 698.996094 252.84375 699.605469 C 237.613281 700.214844 227.253906 700.214844 222.378906 698.996094 C 217.507812 697.777344 213.242188 698.386719 208.367188 699.605469 C 203.492188 700.824219 201.054688 701.433594 200.445312 700.824219 C 199.839844 700.214844 194.964844 699.605469 185.824219 699.605469 C 176.6875 699.605469 170.59375 700.214844 167.546875 700.824219 C 164.5 701.433594 162.671875 701.433594 161.453125 700.214844 C 160.84375 699.605469 158.410156 698.996094 153.535156 698.996094 C 149.269531 698.996094 146.222656 699.605469 145.003906 700.214844 C 143.785156 700.824219 140.128906 700.824219 135.257812 700.824219 C 130.382812 700.824219 127.335938 700.824219 126.726562 701.433594 C 126.117188 702.042969 124.289062 702.652344 121.242188 702.652344 C 118.195312 702.652344 115.761719 702.042969 114.542969 700.824219 C 112.714844 700.214844 109.667969 699.605469 104.792969 699.605469 C 99.917969 699.605469 96.875 700.214844 95.046875 700.824219 C 93.21875 701.433594 86.515625 702.042969 74.332031 702.042969 C 62.144531 702.652344 55.445312 702.652344 54.835938 703.261719 C 53.617188 703.871094 53.007812 703.871094 51.789062 702.652344 C 50.570312 702.042969 48.742188 701.433594 45.695312 701.433594 C 42.648438 701.433594 40.210938 696.558594 39.601562 687.417969 C 38.992188 678.277344 38.992188 672.183594 39.601562 669.746094 C 40.210938 667.308594 40.210938 665.480469 38.992188 664.871094 C 37.773438 664.261719 37.773438 663.042969 38.992188 661.824219 C 40.210938 660.605469 40.210938 657.558594 39.601562 652.074219 C 38.992188 647.199219 38.992188 644.148438 39.601562 643.542969 C 40.210938 642.929688 40.210938 642.929688 40.820312 642.320312 C 40.210938 641.710938 40.210938 641.710938 39.601562 641.101562 C 38.382812 640.492188 38.382812 639.273438 38.992188 637.445312 C 39.601562 635.617188 39.601562 630.132812 39.601562 620.382812 C 39.601562 610.632812 39.601562 604.539062 40.210938 600.882812 C 40.820312 597.226562 40.820312 594.789062 39.601562 593.570312 C 38.382812 592.351562 38.382812 590.523438 39.601562 588.695312 C 40.820312 586.867188 40.820312 581.378906 40.210938 574.066406 C 39.601562 566.753906 39.601562 561.269531 40.210938 558.222656 C 40.820312 556.394531 40.820312 555.175781 41.429688 553.347656 C 40.820312 553.347656 40.820312 553.347656 40.210938 553.347656 C 39.601562 553.347656 39.601562 553.347656 39.601562 553.347656 C 39.601562 551.519531 39.601562 549.691406 40.210938 547.253906 C 40.820312 543.597656 40.210938 541.160156 39.601562 540.550781 C 38.992188 539.941406 38.992188 528.363281 39.601562 505.8125 C 40.210938 483.265625 40.210938 471.078125 39.601562 469.859375 C 38.992188 468.640625 38.992188 466.203125 39.601562 463.765625 C 40.210938 461.328125 40.210938 458.28125 39.601562 455.230469 C 38.992188 452.183594 38.992188 449.746094 40.210938 449.136719 C 41.429688 448.527344 41.429688 446.699219 41.429688 444.261719 C 41.429688 441.824219 40.820312 440.605469 40.210938 439.386719 C 39.601562 438.167969 39.601562 436.339844 39.601562 431.464844 C 39.601562 426.589844 39.601562 424.152344 38.992188 423.542969 C 38.382812 422.933594 38.382812 421.714844 38.992188 420.496094 C 39.601562 419.277344 39.601562 411.964844 38.992188 399.167969 C 38.382812 386.976562 38.382812 376.617188 38.992188 369.304688 C 39.601562 365.648438 39.601562 361.992188 39.601562 358.335938 C 38.992188 358.335938 38.992188 358.335938 38.992188 358.335938 C 38.992188 358.335938 38.382812 358.335938 37.773438 358.335938 C 37.773438 357.117188 37.773438 355.898438 37.773438 354.679688 C 37.773438 352.242188 38.382812 345.539062 38.992188 333.957031 C 39.601562 322.378906 40.210938 315.675781 38.992188 313.238281 C 37.773438 310.800781 37.773438 307.753906 37.773438 302.878906 C 37.773438 298.003906 37.773438 295.566406 37.164062 294.957031 C 36.554688 294.347656 36.554688 292.519531 37.773438 289.472656 C 38.382812 286.425781 38.992188 283.988281 38.382812 282.769531 C 37.773438 281.550781 37.164062 279.113281 37.164062 277.285156 C 37.164062 274.847656 37.773438 274.238281 38.382812 273.625 C 38.992188 273.625 38.992188 273.015625 38.992188 273.015625 C 38.382812 273.015625 38.382812 273.015625 38.382812 273.015625 C 38.382812 273.015625 37.773438 273.015625 37.164062 273.015625 C 37.164062 271.1875 37.164062 269.359375 37.164062 267.53125 C 37.164062 263.875 37.773438 262.046875 38.382812 261.4375 C 38.992188 260.828125 38.992188 259.609375 38.992188 256.5625 C 38.992188 253.515625 38.382812 251.6875 37.773438 250.46875 C 36.554688 249.25 36.554688 246.8125 36.554688 241.9375 C 36.554688 237.0625 37.164062 235.234375 37.773438 234.625 C 38.382812 234.015625 38.382812 233.40625 38.382812 231.578125 C 37.773438 229.75 38.382812 228.53125 38.992188 227.921875 C 39.601562 227.3125 40.210938 224.875 40.210938 220.609375 C 40.820312 216.34375 40.210938 213.90625 38.992188 212.6875 C 37.773438 212.074219 37.773438 210.855469 38.382812 209.636719 C 38.992188 209.027344 38.992188 204.761719 38.992188 198.058594 C 38.992188 191.355469 38.992188 187.699219 38.382812 187.699219 C 37.773438 187.089844 37.164062 185.261719 37.164062 181.605469 C 37.164062 177.339844 40.820312 175.511719 47.523438 174.902344 C 54.835938 174.292969 59.707031 174.292969 63.363281 175.511719 C 65.191406 176.121094 66.410156 176.730469 68.238281 177.339844 C 68.238281 176.730469 68.238281 176.730469 68.238281 176.121094 C 68.238281 175.511719 68.238281 175.511719 68.238281 174.902344 C 69.457031 174.902344 70.675781 175.511719 71.285156 175.511719 C 73.722656 176.121094 74.332031 175.511719 74.941406 174.902344 C 75.550781 174.292969 77.378906 174.292969 81.640625 174.902344 C 85.90625 175.511719 88.953125 175.511719 90.171875 174.292969 C 91.390625 173.074219 92.609375 173.074219 93.21875 173.683594 C 93.828125 174.292969 94.4375 174.292969 95.65625 173.683594 C 96.875 173.074219 98.089844 173.074219 99.308594 173.683594 C 101.136719 174.292969 102.355469 174.292969 104.183594 173.074219 C 105.402344 171.855469 109.058594 171.855469 113.933594 171.855469 C 119.414062 171.855469 123.070312 172.464844 124.898438 173.074219 C 126.726562 173.683594 129.773438 173.683594 134.648438 173.683594 C 137.085938 173.683594 139.519531 173.683594 141.957031 173.074219 C 141.957031 173.683594 141.957031 173.683594 141.957031 174.292969 C 141.957031 174.902344 142.566406 175.511719 143.785156 175.511719 C 145.003906 176.121094 146.222656 176.121094 148.660156 175.511719 C 150.488281 175.511719 151.707031 174.292969 152.925781 173.683594 C 154.144531 173.074219 162.0625 172.464844 176.6875 172.464844 C 191.917969 172.464844 199.839844 173.074219 201.054688 173.683594 C 202.882812 174.902344 204.710938 174.902344 207.148438 174.902344 C 209.585938 174.902344 212.023438 174.292969 214.460938 173.683594 C 216.898438 173.074219 219.945312 172.464844 223.597656 172.464844 C 227.253906 173.074219 230.910156 172.464844 233.957031 171.855469 C 237.003906 171.246094 240.660156 171.246094 244.3125 172.464844 C 247.96875 173.683594 250.40625 173.683594 251.015625 172.464844 C 251.625 171.855469 257.71875 171.246094 268.683594 171.855469 C 279.652344 171.855469 285.132812 171.855469 285.742188 171.246094 C 286.351562 170.636719 286.960938 170.636719 288.789062 171.246094 C 290.617188 171.855469 297.929688 171.855469 311.332031 171.855469 C 324.734375 171.246094 332.046875 171.855469 334.484375 172.464844 C 336.921875 173.683594 338.75 173.683594 340.578125 172.464844 C 342.40625 171.855469 346.058594 171.246094 351.542969 171.246094 C 357.027344 171.246094 361.292969 170.636719 364.945312 170.027344 C 367.992188 168.808594 370.429688 168.808594 371.648438 170.027344 C 372.867188 171.246094 378.960938 171.246094 389.925781 170.027344 C 400.894531 168.808594 406.984375 168.808594 407.59375 170.027344 C 408.8125 171.246094 411.859375 171.246094 416.734375 171.246094 C 422.21875 171.246094 426.480469 170.636719 430.136719 170.027344 C 433.792969 169.417969 438.667969 169.417969 444.152344 169.417969 C 450.242188 170.027344 453.289062 169.417969 453.289062 168.808594 C 453.289062 168.808594 453.898438 168.199219 453.898438 167.589844 C 454.507812 168.199219 455.117188 168.199219 455.726562 168.808594 C 456.945312 169.417969 460.601562 169.417969 466.085938 169.417969 C 471.566406 169.417969 475.222656 169.417969 476.441406 168.808594 C 477.660156 168.199219 478.269531 168.199219 478.269531 167.589844 C 478.878906 169.417969 478.878906 169.417969 478.878906 168.808594 Z M 478.878906 168.808594 " fill-opacity="1" fill-rule="evenodd"/><path fill="#000000" d="M 509.339844 188.308594 C 507.515625 190.136719 506.296875 191.964844 506.296875 193.792969 C 505.6875 195.621094 504.46875 198.058594 502.03125 201.105469 C 499.59375 204.152344 497.765625 206.589844 497.15625 209.027344 C 496.546875 211.464844 495.328125 213.292969 494.109375 213.902344 C 492.890625 214.511719 492.28125 215.121094 492.890625 216.339844 C 493.5 217.558594 492.890625 218.171875 491.671875 219.390625 C 490.453125 220.609375 490.453125 222.4375 491.0625 224.875 C 492.28125 227.3125 493.5 228.53125 494.71875 229.140625 C 495.9375 229.75 497.15625 229.140625 498.375 228.53125 C 499.59375 227.921875 502.640625 223.65625 507.515625 216.339844 C 512.996094 208.417969 516.042969 202.324219 517.871094 197.449219 C 519.699219 192.574219 519.699219 189.527344 518.480469 187.699219 C 517.871094 185.871094 516.652344 185.261719 514.824219 185.261719 C 512.996094 185.261719 511.167969 186.480469 509.339844 188.308594 Z M 509.339844 188.308594 " fill-opacity="1" fill-rule="evenodd"/><path fill="#000000" d="M 69.457031 197.449219 C 68.238281 199.886719 68.238281 202.324219 68.847656 204.152344 C 69.457031 205.980469 70.675781 209.636719 71.285156 215.730469 C 71.894531 221.828125 73.113281 225.484375 74.332031 227.3125 C 75.550781 229.140625 76.769531 229.75 79.203125 229.75 C 81.03125 229.75 82.25 229.140625 83.46875 227.921875 C 84.6875 226.703125 84.6875 223.046875 83.46875 216.339844 C 82.859375 209.636719 81.640625 204.761719 80.421875 201.105469 C 79.203125 197.449219 77.378906 195.621094 74.941406 195.011719 C 72.503906 194.402344 70.675781 195.011719 69.457031 197.449219 Z M 69.457031 197.449219 " fill-opacity="1" fill-rule="evenodd"/><path fill="#000000" d="M 522.746094 199.277344 C 521.527344 200.496094 520.917969 201.714844 520.308594 204.152344 C 520.308594 206.589844 518.480469 209.636719 514.824219 213.292969 C 511.167969 217.5625 509.949219 220.609375 509.949219 222.4375 C 509.949219 224.875 510.558594 226.09375 511.777344 227.3125 C 512.996094 228.53125 514.824219 228.53125 516.652344 227.921875 C 518.480469 227.3125 520.308594 226.09375 522.136719 224.875 C 523.964844 223.65625 525.792969 220 528.839844 215.121094 C 531.273438 209.636719 532.492188 205.980469 532.492188 204.152344 C 531.882812 201.714844 530.664062 200.496094 528.230469 199.886719 C 525.792969 198.667969 523.964844 198.667969 522.746094 199.277344 Z M 522.746094 199.277344 " fill-opacity="1" fill-rule="evenodd"/><path fill="#000000" d="M 54.835938 201.714844 C 53.007812 203.542969 53.007812 206.589844 53.617188 210.246094 C 54.226562 213.902344 56.054688 218.78125 57.878906 224.875 C 59.707031 230.96875 60.925781 234.015625 62.144531 235.234375 C 63.363281 236.453125 63.972656 237.0625 65.800781 237.671875 C 67.628906 238.28125 68.847656 237.0625 70.675781 235.84375 C 72.503906 234.625 72.503906 230.359375 71.285156 223.65625 C 70.066406 216.949219 68.847656 213.292969 68.238281 212.074219 C 67.019531 210.855469 66.410156 209.027344 65.800781 205.980469 C 65.191406 202.933594 63.972656 201.105469 60.925781 199.886719 C 57.878906 199.277344 56.054688 199.886719 54.835938 201.714844 Z M 54.835938 201.714844 " fill-opacity="1" fill-rule="evenodd"/><path fill="#000000" d="M 333.265625 237.671875 C 330.828125 238.890625 329 240.109375 327.171875 241.9375 C 325.34375 243.765625 324.125 245.59375 324.125 247.421875 C 323.519531 249.25 322.910156 250.46875 322.300781 251.6875 C 321.691406 252.90625 321.082031 255.953125 320.472656 261.4375 C 319.863281 266.921875 321.082031 272.40625 322.910156 278.503906 C 325.34375 283.988281 326.5625 287.035156 327.78125 287.035156 C 329 287.035156 329.609375 288.253906 331.4375 290.082031 C 333.265625 291.910156 335.09375 293.128906 338.140625 293.128906 C 341.1875 293.738281 343.625 293.128906 346.058594 292.519531 C 348.496094 291.300781 350.324219 289.472656 351.542969 287.035156 C 352.761719 283.988281 353.980469 282.160156 355.808594 280.941406 C 357.636719 279.722656 358.246094 275.453125 358.855469 268.75 C 359.464844 262.046875 358.855469 256.5625 357.027344 252.296875 C 355.199219 248.03125 353.980469 244.984375 352.152344 243.15625 C 350.324219 241.328125 347.277344 240.109375 342.40625 238.28125 C 338.75 237.0625 335.703125 237.0625 333.265625 237.671875 Z M 339.96875 249.859375 C 341.796875 250.46875 343.015625 251.078125 344.230469 252.296875 C 345.449219 254.125 346.058594 257.171875 346.667969 262.65625 C 347.277344 268.140625 347.277344 271.1875 346.667969 272.40625 C 346.058594 273.015625 344.230469 274.234375 340.578125 274.84375 C 337.53125 276.0625 335.09375 275.453125 334.484375 273.015625 C 333.265625 270.578125 332.65625 267.53125 332.65625 263.875 C 332.65625 259.609375 333.265625 255.953125 335.09375 252.90625 C 336.921875 250.46875 338.140625 249.25 339.96875 249.859375 Z M 339.96875 249.859375 " fill-opacity="1" fill-rule="evenodd"/><path fill="#000000" d="M 291.226562 237.671875 C 288.789062 238.28125 286.351562 239.5 283.304688 241.328125 C 280.261719 243.15625 278.433594 246.8125 277.824219 252.296875 C 277.214844 257.78125 277.214844 261.4375 277.824219 263.265625 C 278.433594 265.703125 280.261719 266.921875 282.089844 268.140625 C 283.304688 268.75 283.914062 268.75 284.523438 269.359375 C 283.914062 270.578125 282.695312 272.40625 282.089844 273.625 C 280.261719 276.0625 280.261719 279.722656 280.871094 283.378906 C 281.480469 287.644531 283.304688 290.691406 286.351562 293.738281 C 289.398438 296.785156 292.445312 298.003906 296.101562 298.613281 C 299.757812 299.222656 302.804688 298.003906 305.847656 296.175781 C 308.894531 294.347656 310.722656 293.128906 310.722656 291.300781 C 310.722656 290.082031 311.332031 288.863281 312.550781 288.253906 C 313.160156 287.644531 313.769531 285.207031 313.769531 282.160156 C 313.769531 278.503906 313.160156 276.066406 312.550781 273.625 C 311.941406 271.1875 310.722656 269.359375 309.503906 268.140625 C 307.675781 266.921875 307.675781 265.09375 308.894531 262.046875 C 310.113281 259 310.722656 255.953125 310.113281 253.515625 C 309.503906 251.078125 308.285156 248.03125 305.238281 244.984375 C 302.195312 241.9375 300.367188 240.109375 297.929688 239.5 C 295.492188 237.671875 293.664062 237.671875 291.226562 237.671875 Z M 290.617188 251.6875 C 291.835938 251.078125 293.054688 251.078125 294.882812 251.6875 C 296.710938 252.90625 297.320312 254.125 297.320312 256.5625 C 297.320312 257.78125 296.710938 259 296.710938 260.21875 C 295.492188 259.609375 294.273438 259.609375 293.054688 259 C 290.617188 258.390625 289.398438 257.171875 289.398438 255.34375 C 289.398438 253.515625 289.398438 252.296875 290.617188 251.6875 Z M 297.320312 274.84375 C 297.929688 275.453125 298.539062 276.671875 299.148438 277.28125 C 300.367188 279.113281 300.976562 280.332031 300.976562 282.160156 C 300.976562 283.988281 300.367188 284.597656 298.539062 285.207031 C 297.320312 285.816406 295.492188 285.816406 294.273438 284.597656 C 293.054688 283.988281 292.445312 282.769531 291.835938 281.550781 C 291.226562 280.332031 292.445312 279.113281 294.273438 277.28125 C 295.492188 276.671875 296.101562 275.453125 297.320312 274.84375 Z M 297.320312 274.84375 " fill-opacity="1" fill-rule="evenodd"/><path fill="#000000" d="M 168.765625 340.054688 C 165.109375 342.492188 162.671875 344.929688 161.453125 347.976562 C 160.234375 351.023438 159.628906 354.679688 160.234375 358.945312 C 160.84375 363.210938 160.84375 368.695312 160.234375 375.398438 C 159.628906 382.101562 159.628906 388.804688 160.84375 394.898438 C 161.453125 400.996094 162.0625 406.480469 161.453125 410.746094 C 160.84375 415.011719 160.84375 418.058594 161.453125 418.667969 C 162.0625 419.277344 162.0625 420.496094 162.0625 422.324219 C 162.0625 424.152344 162.0625 425.980469 163.28125 427.808594 C 164.5 429.636719 164.5 432.074219 164.5 434.511719 C 164.5 436.949219 164.5 439.386719 165.109375 441.214844 C 165.71875 443.042969 165.71875 445.480469 164.5 448.527344 C 163.28125 451.574219 163.28125 454.011719 163.890625 455.839844 C 164.5 457.667969 164.5 463.15625 164.5 471.6875 C 164.5 475.953125 164.5 480.21875 164.5 485.09375 C 164.5 485.09375 163.890625 484.484375 163.890625 484.484375 C 163.28125 484.484375 163.28125 483.875 162.671875 483.875 C 162.671875 489.359375 162.671875 495.453125 163.28125 500.9375 C 163.890625 512.515625 164.5 520.4375 165.71875 524.097656 C 166.9375 528.363281 167.546875 533.238281 166.9375 539.941406 C 166.328125 546.644531 166.9375 552.738281 169.375 559.441406 C 171.203125 566.144531 174.859375 570.410156 179.734375 572.847656 C 184.605469 574.675781 188.261719 575.285156 191.308594 574.066406 C 194.964844 572.847656 197.402344 571.019531 199.230469 568.582031 C 201.054688 566.144531 201.664062 559.441406 201.664062 548.472656 C 201.664062 537.503906 201.054688 530.191406 200.449219 526.535156 C 200.449219 522.875 199.839844 521.046875 199.230469 521.046875 C 198.621094 521.046875 198.621094 521.046875 198.011719 521.046875 C 198.621094 519.21875 199.230469 517.390625 199.230469 516.171875 C 200.449219 512.515625 200.449219 509.46875 200.449219 507.03125 C 200.449219 504.59375 199.839844 502.765625 199.230469 502.15625 C 198.621094 501.546875 198.621094 499.71875 199.230469 494.84375 C 199.839844 489.96875 199.839844 486.921875 198.621094 485.703125 C 197.402344 483.875 197.402344 482.046875 197.402344 479 C 197.402344 475.953125 198.011719 474.734375 198.621094 474.125 C 199.230469 473.515625 201.664062 472.90625 205.320312 472.90625 C 208.976562 472.90625 211.414062 472.90625 212.023438 473.515625 C 213.242188 474.125 213.851562 474.125 215.070312 474.125 C 215.679688 474.125 216.289062 474.125 216.898438 473.515625 C 216.898438 474.125 216.898438 474.125 216.898438 474.734375 C 216.898438 474.734375 216.898438 475.34375 216.898438 475.34375 C 218.117188 474.734375 218.726562 474.734375 219.945312 474.734375 C 221.769531 474.125 226.644531 474.125 233.347656 474.734375 C 240.050781 475.34375 245.53125 475.34375 250.40625 474.125 C 255.28125 473.515625 258.328125 472.90625 260.15625 473.515625 C 261.984375 474.125 266.246094 474.734375 272.339844 474.734375 C 278.433594 474.734375 281.480469 476.5625 282.089844 480.21875 C 282.699219 483.875 282.699219 489.359375 282.089844 496.0625 C 281.480469 502.765625 281.480469 507.640625 282.699219 508.859375 C 283.914062 510.6875 283.914062 511.296875 283.308594 511.90625 C 282.699219 512.515625 282.699219 513.734375 283.308594 514.34375 C 283.917969 515.5625 283.917969 517.390625 283.308594 520.4375 C 282.699219 522.875 282.699219 524.703125 283.308594 525.316406 C 283.917969 525.925781 284.523438 528.363281 284.523438 533.238281 C 284.523438 538.113281 285.132812 541.160156 285.132812 541.769531 C 285.742188 542.378906 285.742188 544.816406 285.132812 548.472656 C 284.523438 552.128906 284.523438 556.394531 285.742188 560.050781 C 286.960938 563.707031 288.179688 566.753906 290.617188 569.191406 C 293.054688 571.628906 296.101562 572.847656 300.976562 572.847656 C 305.847656 572.847656 308.285156 572.847656 309.503906 572.238281 C 310.722656 571.628906 311.941406 570.410156 312.550781 568.582031 C 313.160156 566.753906 314.378906 566.144531 314.988281 566.144531 C 315.597656 566.144531 316.816406 564.316406 317.425781 560.050781 C 318.035156 555.785156 319.253906 549.082031 318.644531 539.941406 C 318.035156 530.800781 318.035156 525.316406 317.425781 524.09375 C 316.816406 523.484375 316.816406 519.21875 317.425781 513.125 C 318.035156 506.421875 318.035156 503.375 317.425781 502.765625 C 316.816406 502.15625 316.207031 499.71875 316.207031 496.0625 C 315.597656 492.40625 316.207031 488.75 316.816406 486.3125 C 317.425781 483.265625 317.425781 481.4375 316.207031 480.21875 C 314.988281 479 314.378906 476.5625 314.378906 472.90625 C 313.769531 469.25 314.378906 464.371094 314.988281 458.886719 C 316.207031 453.402344 316.207031 447.917969 316.207031 443.042969 C 316.207031 437.558594 315.597656 434.511719 314.988281 433.902344 C 314.378906 432.683594 314.378906 428.417969 314.988281 419.886719 C 315.597656 411.355469 315.597656 406.480469 314.378906 405.261719 C 313.769531 404.042969 313.160156 400.382812 313.769531 393.679688 C 314.378906 386.976562 314.378906 383.320312 313.769531 382.101562 C 313.160156 380.882812 312.550781 376.617188 312.550781 369.304688 C 312.550781 361.992188 310.722656 356.507812 307.675781 353.460938 C 304.628906 350.414062 300.976562 348.585938 297.320312 348.585938 C 293.054688 348.585938 290.007812 349.804688 287.570312 351.632812 C 285.132812 354.070312 283.308594 357.117188 282.089844 361.382812 C 280.871094 365.648438 280.261719 369.914062 280.871094 373.570312 C 281.480469 377.226562 280.871094 380.273438 280.261719 382.101562 C 279.652344 383.929688 279.652344 386.976562 279.652344 391.242188 C 279.652344 395.507812 280.261719 399.164062 280.871094 402.820312 C 282.089844 406.480469 282.089844 409.527344 281.480469 410.746094 C 280.871094 412.574219 280.871094 416.839844 281.480469 422.933594 C 282.089844 429.027344 282.089844 433.292969 281.480469 435.730469 C 280.871094 438.167969 279.652344 439.386719 278.433594 439.996094 C 277.214844 440.605469 275.386719 439.996094 273.558594 438.777344 C 271.730469 437.558594 265.636719 437.558594 256.5 438.777344 C 247.359375 439.996094 240.660156 439.996094 236.394531 439.386719 C 232.128906 438.167969 229.082031 438.167969 228.472656 438.777344 C 227.253906 439.386719 224.816406 439.996094 221.769531 439.996094 C 218.117188 439.996094 216.898438 439.386719 216.289062 438.777344 C 215.679688 438.167969 213.242188 438.167969 208.367188 438.777344 C 203.492188 439.386719 200.449219 438.777344 199.839844 436.339844 C 198.621094 434.511719 198.621094 431.464844 199.839844 427.808594 C 200.449219 424.152344 200.449219 421.105469 198.621094 418.058594 C 196.792969 415.621094 196.792969 411.964844 197.402344 408.308594 C 198.011719 404.652344 198.011719 400.992188 196.792969 397.945312 C 195.574219 394.898438 195.574219 391.242188 196.183594 386.367188 C 196.792969 381.492188 196.792969 378.445312 195.574219 377.835938 C 194.964844 377.226562 194.355469 373.570312 194.964844 368.085938 C 195.574219 362.601562 194.964844 357.117188 192.527344 351.023438 C 190.089844 344.929688 187.652344 341.269531 185.214844 339.441406 C 182.167969 337.613281 180.34375 337.003906 178.515625 337.003906 C 174.859375 337.003906 172.421875 338.222656 168.765625 340.054688 Z M 168.765625 340.054688 " fill-opacity="1" fill-rule="evenodd"/><path fill="#000000" d="M 595.855469 374.179688 C 594.027344 376.007812 594.027344 385.148438 595.246094 403.433594 C 596.464844 421.105469 597.074219 432.683594 596.464844 436.949219 C 595.855469 441.824219 596.464844 444.261719 597.074219 445.480469 C 597.683594 446.089844 597.683594 449.136719 597.683594 452.792969 C 597.074219 457.058594 597.683594 460.105469 598.292969 462.546875 C 598.902344 464.984375 598.902344 468.03125 598.292969 471.078125 C 597.683594 474.734375 597.683594 477.78125 598.292969 481.4375 C 598.902344 484.484375 598.902344 493.625 598.902344 507.640625 C 598.902344 521.65625 598.902344 529.582031 600.121094 531.410156 C 600.730469 533.238281 602.558594 534.457031 604.996094 534.457031 C 606.824219 535.066406 608.652344 534.457031 609.871094 533.238281 C 610.480469 532.019531 611.085938 529.582031 610.480469 526.535156 C 609.871094 523.484375 610.480469 521.65625 611.089844 520.4375 C 611.695312 519.21875 611.695312 499.71875 610.480469 461.324219 C 609.871094 422.933594 608.652344 399.773438 608.042969 390.632812 C 607.433594 381.492188 606.214844 376.007812 605.605469 374.789062 C 604.386719 373.570312 603.167969 372.960938 601.949219 372.351562 C 600.730469 371.742188 597.074219 372.351562 595.855469 374.179688 Z M 595.855469 374.179688 " fill-opacity="1" fill-rule="evenodd"/><path fill="#000000" d="M 416.734375 389.414062 C 413.6875 388.804688 410.640625 388.804688 407.59375 390.632812 C 404.550781 392.460938 402.113281 394.289062 400.894531 396.117188 C 399.066406 397.945312 398.457031 400.382812 397.847656 403.433594 C 397.238281 406.480469 393.582031 407.089844 387.488281 407.089844 C 380.789062 406.480469 376.523438 407.089844 374.085938 407.699219 C 371.648438 408.308594 369.820312 408.917969 369.210938 410.136719 C 368.601562 410.746094 366.773438 411.355469 364.339844 411.964844 C 361.902344 412.574219 359.464844 413.792969 357.027344 415.621094 C 354.589844 417.449219 352.761719 418.667969 350.933594 419.277344 C 349.105469 419.277344 347.886719 420.496094 346.058594 422.933594 C 344.230469 425.371094 343.625 425.980469 342.40625 425.980469 C 341.1875 425.980469 340.578125 426.589844 340.578125 428.417969 C 339.96875 430.246094 339.359375 431.464844 338.75 431.464844 C 338.140625 432.074219 336.921875 432.683594 336.3125 433.902344 C 335.703125 435.730469 335.703125 441.214844 336.921875 451.574219 C 337.53125 461.933594 338.75 468.640625 339.359375 471.6875 C 340.578125 474.734375 341.796875 478.390625 344.230469 482.046875 C 346.667969 485.703125 349.105469 488.75 351.542969 491.1875 C 353.980469 493.015625 355.808594 494.234375 357.027344 494.234375 C 358.246094 494.234375 358.855469 494.84375 359.464844 495.453125 C 359.464844 496.0625 359.464844 496.0625 360.074219 496.671875 C 360.683594 496.671875 360.683594 496.671875 361.292969 496.0625 C 361.902344 495.453125 363.121094 496.0625 364.335938 497.28125 C 366.164062 498.5 368.601562 499.71875 372.257812 500.328125 C 375.914062 500.9375 380.789062 500.9375 387.488281 500.328125 C 391.144531 499.71875 394.191406 499.109375 397.847656 498.5 C 398.457031 502.15625 398.457031 505.8125 399.066406 509.46875 C 399.675781 516.78125 399.675781 521.046875 398.457031 522.875 C 397.847656 524.703125 397.238281 526.535156 397.847656 528.972656 C 397.847656 532.019531 397.847656 533.847656 397.238281 534.457031 C 396.628906 535.066406 396.019531 535.675781 395.410156 535.675781 C 394.800781 535.675781 394.800781 535.675781 394.191406 535.675781 C 394.191406 535.675781 394.191406 535.066406 394.800781 534.457031 C 394.800781 533.847656 395.410156 533.847656 395.410156 533.847656 C 394.191406 534.457031 392.972656 535.066406 392.363281 535.675781 C 389.925781 536.894531 387.488281 537.503906 384.441406 536.894531 C 381.398438 536.285156 379.570312 534.457031 378.351562 530.800781 C 377.132812 527.140625 376.523438 525.3125 375.304688 524.703125 C 374.085938 524.09375 372.257812 521.65625 370.429688 518 C 367.992188 514.34375 366.164062 511.90625 363.726562 511.296875 C 361.292969 510.6875 358.246094 510.6875 353.980469 511.296875 C 349.714844 511.90625 346.667969 513.734375 344.839844 516.171875 C 343.011719 518.609375 341.796875 521.046875 341.796875 523.484375 C 341.1875 525.921875 341.796875 528.359375 343.011719 531.410156 C 343.621094 534.457031 344.839844 536.894531 346.058594 538.113281 C 347.277344 539.332031 348.496094 542.378906 350.933594 546.644531 C 353.371094 550.910156 354.589844 554.566406 356.417969 555.785156 C 358.246094 557.613281 358.855469 558.222656 358.855469 558.832031 C 358.855469 559.441406 358.855469 559.441406 358.246094 560.050781 C 358.246094 560.050781 358.855469 559.441406 359.464844 559.441406 C 360.074219 558.832031 363.726562 561.269531 370.429688 565.535156 C 377.132812 569.800781 385.050781 571.628906 394.191406 570.410156 C 403.332031 569.191406 409.421875 567.972656 413.078125 566.753906 C 416.734375 565.535156 419.171875 563.707031 421.609375 561.269531 C 423.4375 558.832031 425.261719 556.394531 425.871094 554.566406 C 426.480469 552.128906 427.699219 550.910156 428.917969 549.691406 C 430.746094 548.472656 431.355469 546.644531 431.964844 544.207031 C 432.574219 541.769531 432.574219 539.941406 431.964844 539.332031 C 431.355469 538.722656 431.964844 536.894531 433.183594 534.457031 C 434.402344 532.019531 435.011719 528.972656 435.621094 524.09375 C 436.230469 519.21875 435.621094 516.171875 434.402344 513.734375 C 433.183594 511.90625 433.183594 507.640625 433.183594 502.15625 C 433.183594 496.671875 433.792969 491.1875 434.402344 486.921875 C 435.011719 482.65625 435.011719 479 434.402344 476.5625 C 433.183594 473.515625 433.183594 469.859375 433.183594 464.371094 C 433.792969 458.886719 433.183594 455.230469 431.964844 452.792969 C 431.355469 450.355469 430.746094 443.652344 431.355469 432.074219 C 431.964844 420.496094 431.964844 414.402344 430.746094 413.183594 C 430.136719 412.574219 429.527344 410.136719 430.136719 406.480469 C 430.746094 402.820312 430.136719 400.382812 428.917969 398.554688 C 427.699219 396.726562 427.089844 396.117188 427.699219 395.507812 C 428.308594 394.898438 427.089844 393.679688 424.652344 391.242188 C 422.828125 391.851562 419.78125 390.632812 416.734375 389.414062 Z M 380.179688 441.214844 C 383.835938 440.605469 387.488281 441.214844 391.144531 442.433594 C 394.800781 443.652344 396.628906 446.699219 396.019531 451.574219 C 395.410156 456.449219 394.800781 460.105469 394.191406 462.546875 C 393.582031 464.984375 391.753906 466.8125 389.316406 468.03125 C 387.488281 469.25 384.445312 469.25 380.179688 468.640625 C 376.523438 468.03125 373.476562 464.375 372.257812 458.886719 C 370.429688 453.402344 370.429688 449.746094 371.039062 447.308594 C 371.648438 444.871094 372.257812 443.652344 373.476562 443.042969 C 374.695312 442.433594 376.523438 441.824219 380.179688 441.214844 Z M 380.179688 441.214844 " fill-opacity="1" fill-rule="evenodd"/><path fill="#000000" d="M 683.589844 527.753906 C 682.371094 528.363281 682.371094 530.191406 682.371094 533.238281 C 682.980469 536.285156 683.589844 537.503906 684.808594 538.113281 C 686.027344 538.722656 687.855469 540.550781 689.683594 543.597656 C 692.121094 546.644531 694.554688 548.472656 696.992188 548.472656 C 699.429688 548.472656 701.257812 547.863281 701.867188 546.644531 C 702.476562 545.425781 702.476562 544.207031 702.476562 541.769531 C 702.476562 539.332031 700.039062 536.894531 696.382812 533.238281 C 692.726562 529.582031 689.683594 527.144531 687.855469 527.144531 C 686.027344 526.535156 684.199219 526.535156 683.589844 527.753906 Z M 683.589844 527.753906 " fill-opacity="1" fill-rule="evenodd"/><path fill="#000000" d="M 670.796875 536.894531 C 670.1875 537.503906 669.578125 539.941406 670.1875 543.597656 C 670.796875 547.253906 671.40625 548.472656 672.011719 548.472656 C 672.621094 548.472656 674.449219 550.910156 678.105469 556.394531 C 681.761719 561.878906 684.199219 564.316406 685.417969 564.316406 C 686.636719 564.316406 687.855469 563.707031 689.683594 561.878906 C 691.511719 560.050781 691.511719 558.222656 690.902344 555.785156 C 690.292969 553.347656 689.074219 551.519531 687.246094 549.691406 C 685.417969 547.863281 683.589844 545.425781 681.152344 541.769531 C 678.714844 538.113281 676.886719 536.285156 674.449219 535.675781 C 673.230469 535.675781 671.40625 535.675781 670.796875 536.894531 Z M 670.796875 536.894531 " fill-opacity="1" fill-rule="evenodd"/><path fill="#000000" d="M 599.511719 548.472656 C 598.292969 550.300781 598.292969 558.222656 598.292969 573.457031 C 598.902344 588.085938 598.292969 600.273438 597.683594 610.023438 C 597.074219 619.773438 597.074219 624.648438 597.074219 625.867188 C 597.683594 626.476562 598.902344 627.695312 600.730469 627.695312 C 602.558594 627.695312 604.996094 627.085938 606.824219 625.257812 C 608.652344 623.429688 609.871094 611.242188 609.871094 589.304688 C 609.871094 567.363281 609.871094 554.566406 608.652344 551.519531 C 607.433594 548.472656 605.605469 546.644531 603.777344 546.644531 C 601.949219 546.644531 600.121094 547.253906 599.511719 548.472656 Z M 599.511719 548.472656 " fill-opacity="1" fill-rule="evenodd"/><path fill="#000000" d="M 599.511719 635.617188 C 598.292969 637.445312 597.683594 638.664062 597.683594 640.492188 C 597.683594 642.320312 598.902344 644.148438 600.730469 645.367188 C 602.558594 646.589844 604.996094 645.980469 606.824219 644.148438 C 609.261719 641.710938 609.261719 639.882812 608.042969 637.445312 C 606.214844 635.007812 604.996094 633.789062 603.167969 633.789062 C 601.339844 633.789062 600.730469 633.789062 599.511719 635.617188 Z M 599.511719 635.617188 " fill-opacity="1" fill-rule="evenodd"/><path fill="#000000" d="M 77.984375 644.148438 C 76.769531 646.585938 76.160156 650.246094 76.769531 654.511719 C 77.378906 658.777344 77.984375 662.433594 78.59375 663.652344 C 79.203125 665.480469 81.03125 666.089844 83.46875 667.308594 C 85.296875 668.527344 87.125 667.917969 88.953125 666.699219 C 90.78125 665.480469 90.78125 661.214844 90.171875 655.121094 C 89.5625 648.417969 88.953125 644.757812 88.34375 643.539062 C 87.734375 642.320312 86.515625 641.710938 83.46875 641.101562 C 81.03125 640.492188 79.203125 641.710938 77.984375 644.148438 Z M 77.984375 644.148438 " fill-opacity="1" fill-rule="evenodd"/><path fill="#000000" d="M 62.753906 642.320312 C 60.925781 642.929688 60.316406 644.148438 59.097656 645.367188 C 57.878906 646.585938 57.878906 651.464844 57.878906 659.386719 C 57.878906 667.308594 59.097656 671.574219 60.316406 673.402344 C 61.535156 675.230469 63.972656 675.230469 65.800781 674.011719 C 67.628906 672.792969 69.457031 670.964844 70.066406 667.917969 C 70.675781 664.871094 70.675781 660.605469 70.066406 653.902344 C 69.457031 647.195312 68.238281 644.148438 67.019531 642.929688 C 65.800781 641.710938 64.582031 641.710938 62.753906 642.320312 Z M 62.753906 642.320312 " fill-opacity="1" fill-rule="evenodd"/></svg>