<svg xmlns="http://www.w3.org/2000/svg" xmlns:xlink="http://www.w3.org/1999/xlink" width="1000" zoomAndPan="magnify" viewBox="0 0 750 749.999995" height="1000" preserveAspectRatio="xMidYMid meet" version="1.0"><defs><clipPath id="ed2fd359a9"><path d="M 3 252 L 745 252 L 745 455 L 3 455 Z M 3 252 " clip-rule="nonzero"/></clipPath><clipPath id="316fb23d6d"><path d="M 0 252.644531 L 749.996094 250.363281 L 750.644531 462.609375 L 0.644531 464.894531 Z M 0 252.644531 " clip-rule="nonzero"/></clipPath><clipPath id="917467a2ca"><path d="M 0 252.644531 L 749.996094 250.363281 L 750.644531 462.609375 L 0.644531 464.894531 Z M 0 252.644531 " clip-rule="nonzero"/></clipPath><clipPath id="dd521ff9aa"><path d="M 114 348 L 117 348 L 117 351 L 114 351 Z M 114 348 " clip-rule="nonzero"/></clipPath><clipPath id="95e3721fa8"><path d="M 0 252.644531 L 749.996094 250.363281 L 750.644531 462.609375 L 0.644531 464.894531 Z M 0 252.644531 " clip-rule="nonzero"/></clipPath><clipPath id="321ba98086"><path d="M 0 252.644531 L 749.996094 250.363281 L 750.644531 462.609375 L 0.644531 464.894531 Z M 0 252.644531 " clip-rule="nonzero"/></clipPath></defs><g clip-path="url(#ed2fd359a9)"><g clip-path="url(#316fb23d6d)"><g clip-path="url(#917467a2ca)"><path fill="#000000" d="M 11.914062 258.773438 C 11.527344 259.304688 11.472656 259.886719 11.726562 260.496094 C 10.230469 262.222656 6.785156 260.902344 6.210938 264.066406 C 1.171875 269.109375 3.105469 274.242188 6.117188 279.3125 C 14.605469 293.503906 25.222656 306.023438 36.617188 317.902344 C 77.453125 360.402344 125.285156 392.414062 179.285156 416.269531 C 273.550781 457.941406 370.730469 463.449219 470.273438 442.652344 C 516.421875 433.015625 560.019531 415.5 602.808594 395.957031 C 627.960938 384.46875 652.328125 371.507812 677.035156 359.132812 C 677.726562 358.296875 678.390625 357.460938 679.082031 356.628906 C 680.304688 356.566406 681.664062 356.148438 682.664062 356.589844 C 682.664062 356.589844 682.664062 356.589844 682.691406 356.617188 C 683.46875 356.976562 682.945312 358.085938 682.058594 358.535156 C 677.285156 368.269531 670.617188 376.675781 663.503906 384.722656 C 658.632812 390.234375 654.320312 395.941406 651.785156 402.890625 C 641.214844 414.667969 640.890625 427.25 650.367188 438.160156 C 679.792969 426.714844 697.691406 403.304688 713.941406 378.015625 C 719.992188 368.609375 726.660156 359.648438 733.183594 350.574219 C 748.835938 328.867188 745.34375 331.128906 736.589844 311.1875 C 734.632812 306.722656 731.679688 302.789062 728.335938 299.191406 C 727.109375 297.859375 725.855469 296.753906 723.941406 296.761719 C 721.425781 291.796875 716.761719 291.753906 712.207031 291.9375 C 698.683594 292.476562 685.191406 293.183594 671.671875 293.835938 C 668.832031 292.289062 665.890625 292.769531 662.949219 293.390625 C 660.167969 291.734375 657.199219 292.269531 654.253906 292.667969 C 652.472656 291.171875 650.253906 291.734375 648.226562 291.464844 C 620.75 287.6875 594.101562 280.882812 568.683594 269.546875 C 566.765625 268.691406 564.792969 268.003906 562.847656 267.230469 C 560.539062 266.296875 557.925781 265.21875 556.097656 267.390625 C 554.714844 269.035156 555.113281 272.003906 556.339844 273.363281 C 561.746094 279.398438 562.574219 287.753906 567.289062 294.042969 C 569.378906 296.84375 572.4375 298.554688 575.582031 300.238281 C 599.753906 313.355469 625.574219 321.828125 652.335938 327.691406 C 654.726562 328.210938 657.253906 328.371094 659.449219 329.363281 C 662.007812 330.519531 661.292969 332.6875 660.019531 334.609375 C 657.242188 334.285156 655.273438 335.402344 654.003906 337.820312 C 651.421875 338.023438 648.925781 338.417969 647.628906 341.117188 C 646.988281 340.8125 646.570312 341.007812 646.378906 341.675781 C 643.910156 341.792969 641.632812 342.300781 640.308594 344.722656 C 638.644531 345.171875 636.894531 345.398438 635.339844 346.125 C 618.289062 354.007812 601.375 362.167969 584.234375 369.855469 C 568.679688 376.847656 552.925781 383.335938 537.257812 390.019531 C 532.902344 391.285156 528.515625 392.378906 524.246094 393.808594 C 482.578125 407.460938 439.894531 415.890625 396.054688 417.914062 C 380.394531 418.628906 364.734375 418.871094 349.074219 419.308594 C 346.097656 417.648438 343.042969 418.324219 339.964844 418.945312 C 337.15625 417.289062 334.242188 417.878906 331.296875 418.445312 C 328.738281 416.675781 325.964844 417.433594 323.214844 417.71875 C 321.628906 416.390625 319.878906 416.480469 318.078125 417.125 C 317.464844 416.683594 316.851562 416.65625 316.214844 417.074219 C 314.433594 415.636719 312.242188 416.140625 310.242188 415.816406 C 300.351562 414.152344 290.214844 414.265625 280.515625 411.378906 C 279.65625 412.1875 276.796875 412.613281 280.300781 414.074219 C 282.636719 415.066406 282.777344 415.761719 282.140625 416.34375 C 281.585938 416.847656 280.449219 417.265625 279.617188 417.6875 C 248.554688 411.449219 218.617188 401.542969 189.3125 389.664062 C 186.699219 388.3125 184.054688 386.957031 181.441406 385.605469 C 165.8125 377.515625 150.152344 369.429688 134.523438 361.367188 C 134.214844 360.703125 133.769531 360.257812 133.210938 360.011719 C 132.824219 359.847656 132.40625 359.765625 131.933594 359.765625 C 131.429688 358.683594 130.570312 358.1875 129.402344 358.21875 C 128.925781 357.109375 128.066406 356.613281 126.871094 356.671875 C 126.421875 355.535156 125.5625 355.035156 124.339844 355.09375 C 123.890625 353.957031 123.058594 353.40625 121.835938 353.492188 C 121.414062 352.328125 120.582031 351.800781 119.359375 351.890625 L 119.332031 351.863281 C 118.9375 350.722656 118.105469 350.171875 116.910156 350.257812 L 116.855469 350.230469 C 116.101562 349.648438 115.296875 349.097656 114.460938 348.601562 L 114.378906 348.542969 C 113.984375 347.40625 113.207031 346.855469 111.984375 346.914062 L 111.902344 346.859375 C 111.507812 345.722656 110.730469 345.167969 109.507812 345.226562 L 109.425781 345.171875 C 109.425781 345.171875 109.398438 345.144531 109.398438 345.144531 C 109.398438 345.144531 109.425781 345.171875 109.425781 345.171875 C 109.058594 344.007812 108.253906 343.453125 107.03125 343.511719 L 106.976562 343.484375 C 106.613281 342.320312 105.804688 341.765625 104.582031 341.828125 L 104.554688 341.800781 C 104.164062 340.632812 103.355469 340.054688 102.132812 340.085938 C 95.007812 334.359375 87.910156 328.632812 80.78125 322.90625 C 76.140625 321.085938 72.933594 317.347656 69.34375 314.164062 C 69.480469 313.609375 69.730469 313.164062 70.035156 312.773438 C 70.503906 312.164062 71.113281 311.742188 71.945312 311.492188 C 69.492188 308.804688 67.234375 305.925781 63.703125 304.519531 C 62.59375 304.1875 61.5625 303.71875 60.757812 302.835938 C 61.730469 303.386719 62.703125 303.964844 63.703125 304.519531 C 63.089844 303.492188 62.394531 302.605469 61.089844 302.804688 C 60.75 301 59.609375 299.921875 57.941406 299.261719 C 57.742188 298.09375 57.128906 297.375 55.878906 297.324219 C 55.375 296.214844 54.707031 295.355469 53.402344 295.21875 C 53.234375 294.636719 52.925781 294.195312 52.316406 293.945312 C 50.390625 290.898438 47.9375 288.40625 44.878906 286.5 C 43.398438 284.421875 41.976562 282.285156 39.558594 281.15625 C 39.109375 279.492188 37.746094 278.605469 36.492188 277.636719 C 30.691406 269.4375 23.421875 262.351562 18.976562 252.617188 C 16.570312 255.511719 12.515625 255.023438 11.914062 258.773438 Z M 646.746094 343.730469 C 646.71875 343.730469 646.71875 343.730469 646.691406 343.730469 C 646.691406 343.757812 646.71875 343.757812 646.71875 343.757812 C 646.691406 343.757812 646.664062 343.730469 646.664062 343.730469 C 646.664062 343.730469 646.691406 343.730469 646.691406 343.730469 C 646.691406 343.703125 646.691406 343.675781 646.664062 343.648438 C 646.71875 343.675781 646.71875 343.703125 646.746094 343.730469 Z M 104.160156 348.574219 C 104.328125 348.742188 104.492188 348.90625 104.660156 349.074219 C 104.605469 349.046875 104.550781 349.019531 104.492188 348.992188 C 104.328125 348.878906 104.160156 348.769531 103.992188 348.632812 C 104.019531 348.632812 104.074219 348.605469 104.160156 348.574219 Z M 134.355469 361.367188 C 134.355469 361.394531 134.328125 361.394531 134.328125 361.425781 C 134.273438 361.480469 134.246094 361.5625 134.1875 361.617188 L 133.996094 361.8125 L 134.328125 361.394531 C 134.328125 361.367188 134.300781 361.367188 134.300781 361.339844 C 134.300781 361.367188 134.328125 361.367188 134.355469 361.367188 Z M 103.132812 348.96875 C 103.410156 348.855469 103.6875 348.742188 103.9375 348.660156 C 104.105469 348.769531 104.269531 348.882812 104.4375 348.992188 C 104.050781 348.796875 103.605469 348.773438 103.132812 348.96875 Z M 105.523438 349.792969 C 105.71875 349.933594 105.914062 350.070312 106.082031 350.207031 C 106.082031 350.234375 106.109375 350.234375 106.109375 350.265625 C 105.914062 350.097656 105.71875 349.933594 105.523438 349.792969 Z M 17.273438 277.003906 C 17.246094 277.003906 17.21875 276.976562 17.191406 276.976562 C 17.191406 276.976562 17.164062 276.949219 17.164062 276.949219 C 17.164062 276.917969 17.136719 276.890625 17.136719 276.863281 C 17.191406 276.890625 17.21875 276.945312 17.273438 277.003906 Z M 19.867188 280.632812 C 19.867188 280.6875 19.867188 280.742188 19.925781 280.769531 C 19.925781 280.714844 19.867188 280.660156 19.867188 280.632812 Z M 58.949219 302.644531 C 58.757812 302.730469 58.5625 302.839844 58.367188 303.007812 C 58.339844 302.867188 58.3125 302.730469 58.285156 302.589844 C 58.507812 302.617188 58.726562 302.617188 58.949219 302.644531 Z M 53.960938 296.523438 C 53.65625 296.300781 53.433594 295.96875 53.292969 295.554688 C 53.292969 295.554688 53.292969 295.554688 53.320312 295.554688 C 53.488281 295.941406 53.683594 296.273438 53.960938 296.523438 Z M 53.960938 296.523438 " fill-opacity="1" fill-rule="nonzero"/></g></g></g><g clip-path="url(#dd521ff9aa)"><g clip-path="url(#95e3721fa8)"><g clip-path="url(#321ba98086)"><path fill="#000000" d="M 114.292969 348.546875 C 115.101562 349.097656 115.910156 349.621094 116.6875 350.175781 C 116.296875 349.011719 115.488281 348.484375 114.292969 348.546875 Z M 114.292969 348.546875 " fill-opacity="1" fill-rule="nonzero"/></g></g></g></svg>