<svg xmlns="http://www.w3.org/2000/svg" xmlns:xlink="http://www.w3.org/1999/xlink" width="1000" zoomAndPan="magnify" viewBox="0 0 750 749.999995" height="1000" preserveAspectRatio="xMidYMid meet" version="1.0"><path fill="#000000" d="M 205.027344 464.675781 C 211.058594 457.855469 215.8125 451.824219 221.234375 446.460938 C 239.328125 428.671875 256.8125 410.152344 276.183594 393.824219 C 297.082031 376.21875 327.117188 380.96875 346.367188 401.378906 C 351.179688 406.4375 359.648438 408.019531 367.261719 411.554688 C 370.550781 419.714844 362.753906 423.3125 357.941406 427.878906 C 314.261719 469.367188 280.328125 518.347656 250.902344 570.316406 C 239.632812 590.175781 232.078125 612.230469 223.546875 633.554688 C 216.847656 650.308594 215.992188 652.683594 197.71875 651.21875 C 165.125 648.601562 136.734375 637.511719 116.203125 609.488281 C 80.441406 560.8125 41.878906 514.144531 15.074219 459.5 C 10.746094 450.605469 7.519531 441.160156 1.546875 426.539062 C 28.292969 431.351562 50.285156 431.171875 64.417969 452.433594 C 73.070312 465.46875 81.902344 478.324219 93.84375 496.113281 C 96.890625 477.410156 98.78125 464.496094 101.09375 451.699219 C 118.578125 355.261719 157.386719 268.265625 230.1875 201.980469 C 296.410156 141.609375 374.207031 99.875 467.480469 98.71875 C 545.824219 97.804688 613.082031 128.507812 671.875 177.855469 C 695.390625 197.65625 715.3125 221.84375 736.207031 244.625 C 741.628906 250.535156 744.613281 258.578125 748.695312 265.707031 C 747.113281 267.230469 745.527344 268.75 743.945312 270.273438 C 734.316406 264.304688 724.328125 258.820312 715.25 252.121094 C 709.582031 247.917969 705.199219 241.945312 700.445312 236.585938 C 639.523438 167.683594 562.578125 149.285156 475.398438 168.046875 C 408.8125 182.363281 353.800781 218.246094 307.558594 267.410156 C 258.699219 319.257812 225.558594 380.300781 205.699219 448.65625 C 204.785156 451.699219 204.050781 454.808594 203.566406 457.914062 C 203.445312 459.316406 204.175781 460.839844 205.027344 464.675781 Z M 205.027344 464.675781 " fill-opacity="1" fill-rule="nonzero"/></svg>