<svg xmlns="http://www.w3.org/2000/svg" xmlns:xlink="http://www.w3.org/1999/xlink" width="1000" zoomAndPan="magnify" viewBox="0 0 750 749.999995" height="1000" preserveAspectRatio="xMidYMid meet" version="1.0"><path fill="#000000" d="M 175.902344 310.589844 C 121.960938 383.867188 72.578125 459.6875 44.539062 548.890625 C 32.0625 549.21875 19.457031 547.949219 8.046875 539.285156 C 2.546875 535.097656 0.125 530.625 1.765625 524.300781 C 4.84375 512.4375 6.9375 499.957031 12.027344 488.957031 C 26.027344 458.90625 40.066406 428.734375 56.484375 400 C 75.863281 366.09375 97.085938 333.25 118.761719 300.78125 C 127.585938 287.5625 139.410156 276.273438 150.410156 264.574219 C 161.042969 253.242188 173.890625 250.371094 188.382812 257.0625 C 192.28125 258.867188 196.183594 260.550781 200.125 262.234375 C 219.664062 270.648438 230.335938 285.179688 231.648438 306.648438 C 233.167969 331.238281 234.976562 355.789062 237.070312 380.335938 C 239.082031 403.859375 243.515625 426.804688 256.730469 449.628906 C 263.671875 444.335938 270.691406 440.394531 275.820312 434.6875 C 288.710938 420.402344 301.4375 405.871094 312.890625 390.433594 C 330.417969 366.789062 346.59375 342.117188 363.835938 318.269531 C 371.347656 307.882812 379.558594 297.867188 388.503906 288.710938 C 405.828125 270.9375 417.242188 269.621094 440.640625 278.777344 C 464.941406 288.339844 484.195312 303.488281 498.070312 325.65625 C 501.4375 331.035156 505.335938 336.125 510.179688 343.019531 C 550.902344 315.886719 581.730469 278.078125 625.042969 250.492188 C 608.824219 248.03125 596.101562 246.757812 583.703125 244.046875 C 564.902344 239.941406 556.074219 220.320312 564.328125 201.027344 C 607.800781 202.914062 651.601562 204.84375 695.402344 206.773438 C 706.074219 207.226562 716.789062 208.414062 727.464844 208.085938 C 735.097656 207.839844 740.351562 210.386719 742.28125 217.363281 C 745.402344 228.613281 748.851562 240.066406 749.671875 251.601562 C 750.125 257.71875 746.511719 265.023438 742.734375 270.402344 C 730.953125 286.988281 718.390625 302.996094 705.789062 319.007812 C 690.105469 338.957031 677.257812 360.386719 668.71875 384.359375 C 666.707031 390.023438 663.09375 395.15625 659.113281 402.628906 C 655.664062 397.167969 652.011719 394.089844 652.214844 391.257812 C 653.160156 377.09375 637.191406 367.527344 642.855469 351.929688 C 648.523438 336.371094 652.464844 320.238281 657.144531 304.351562 C 657.839844 301.929688 658.621094 299.546875 658.25 296.140625 C 640.640625 306.363281 624.875 318.597656 609.566406 331.527344 C 594.046875 344.664062 578.695312 358.046875 562.808594 370.730469 C 553.734375 377.996094 542.773438 381.8125 531.15625 378.570312 C 520.402344 375.535156 509.8125 371.59375 499.710938 366.832031 C 482.882812 358.867188 469.992188 346.019531 459.277344 330.953125 C 455.296875 325.328125 451.191406 319.746094 445.894531 312.316406 C 440.925781 317.242188 436 321.101562 432.347656 325.902344 C 418.183594 344.703125 404.472656 363.875 390.476562 382.800781 C 374.546875 404.308594 358.785156 425.945312 342.242188 446.960938 C 335.34375 455.707031 326.765625 463.257812 318.515625 470.855469 C 302.175781 485.917969 283.660156 487.070312 263.175781 480.007812 C 210.917969 461.945312 187.847656 423.03125 183.703125 370.402344 C 182.429688 354.390625 182.265625 338.300781 181.445312 322.25 C 181.28125 318.679688 180.542969 315.105469 180.050781 311.535156 C 178.652344 311.246094 177.300781 310.917969 175.902344 310.589844 Z M 175.902344 310.589844 " fill-opacity="1" fill-rule="nonzero"/></svg>