<svg xmlns="http://www.w3.org/2000/svg" xmlns:xlink="http://www.w3.org/1999/xlink" width="1000" zoomAndPan="magnify" viewBox="0 0 750 749.999995" height="1000" preserveAspectRatio="xMidYMid meet" version="1.0"><defs><clipPath id="5091f80c73"><path d="M 0 253 L 745 253 L 745 544.609375 L 0 544.609375 Z M 0 253 " clip-rule="nonzero"/></clipPath><clipPath id="9f08edf7e2"><path d="M 610 205.609375 L 750 205.609375 L 750 332 L 610 332 Z M 610 205.609375 " clip-rule="nonzero"/></clipPath></defs><g clip-path="url(#5091f80c73)"><path fill="#000000" d="M 13.367188 544.621094 L 15.675781 539.945312 C 40.449219 481.164062 67.527344 437.328125 96.902344 408.441406 C 134.617188 371.109375 177.808594 344.410156 226.484375 328.34375 C 308.679688 300.761719 374.832031 311.761719 424.941406 361.34375 C 449.164062 389.851562 459.242188 422.292969 455.171875 458.671875 C 447.746094 492.75 429.765625 511.15625 401.226562 513.890625 C 385.8125 514.953125 373.203125 507.289062 363.394531 490.890625 C 351.957031 468.785156 347.4375 447.476562 349.832031 426.957031 C 357.835938 390.449219 386.421875 356.023438 435.597656 323.671875 C 472 299.621094 510.414062 285.15625 550.832031 280.28125 C 571.929688 277.765625 595.492188 277.929688 621.527344 280.773438 L 656.183594 286.03125 L 717.234375 298.867188 L 730.398438 300.910156 C 735.128906 301.265625 739.421875 298.046875 743.285156 291.253906 C 744.941406 283.976562 744.226562 279.65625 741.140625 278.292969 C 729.035156 272.960938 713.242188 268.015625 693.757812 263.460938 C 655.542969 255.273438 614.175781 252.289062 569.648438 254.503906 C 518.011719 255.402344 465.003906 274.578125 410.621094 312.035156 C 357.105469 351.507812 328.722656 392.28125 325.464844 434.367188 C 326.988281 465.042969 334.566406 489.980469 348.195312 509.179688 C 361.910156 527.96875 380.070312 537.085938 402.671875 536.53125 C 441.15625 531.675781 465.769531 509.441406 476.515625 469.832031 C 483.964844 426.320312 473.875 386.476562 446.242188 350.300781 C 418.425781 320.355469 385.617188 301.6875 347.820312 294.304688 C 303.1875 286.917969 257.804688 291.535156 211.679688 308.160156 C 144.445312 334.484375 92.132812 371.335938 54.738281 418.710938 C 29.585938 450.488281 12.515625 477.210938 3.53125 498.875 C 1.183594 503.328125 0.0351562 510.097656 0.078125 519.191406 C 0.660156 522.179688 1.71875 524.550781 3.257812 526.300781 L 13.929688 537.289062 C 14.578125 539.09375 14.390625 541.539062 13.367188 544.621094 " fill-opacity="1" fill-rule="nonzero"/></g><g clip-path="url(#9f08edf7e2)"><path fill="#000000" d="M 738.554688 273.105469 C 738.9375 273.21875 739.289062 273.347656 739.609375 273.496094 C 739.265625 273.34375 738.910156 273.214844 738.550781 273.105469 Z M 730.28125 283.210938 C 729.949219 284.238281 729.792969 285.3125 729.820312 286.394531 L 729.816406 286.394531 C 729.769531 285.171875 729.921875 284.113281 730.277344 283.210938 Z M 623.914062 205.628906 C 620.867188 205.613281 617.863281 207.050781 615.996094 209.746094 C 612.980469 214.09375 614.058594 220.058594 618.398438 223.078125 C 622.421875 225.871094 626.761719 228.601562 631.417969 231.269531 C 631.535156 231.335938 631.652344 231.402344 631.773438 231.464844 C 661.410156 246.816406 677.617188 255.476562 680.398438 257.441406 L 680.394531 257.441406 C 680.550781 257.558594 680.710938 257.671875 680.875 257.78125 C 699.058594 269.878906 712.320312 278.640625 720.664062 284.070312 L 720.65625 284.070312 C 705.667969 287.691406 671.210938 297.089844 617.285156 312.265625 C 612.195312 313.699219 609.230469 318.988281 610.660156 324.078125 C 611.84375 328.289062 615.664062 331.046875 619.824219 331.066406 C 620.699219 331.070312 621.585938 330.957031 622.46875 330.707031 C 688.167969 312.21875 724.320312 302.449219 730.9375 301.402344 C 731.304688 301.34375 731.671875 301.265625 732.03125 301.164062 C 736.761719 299.832031 740.355469 298.359375 742.8125 296.742188 C 746.550781 294.28125 748.589844 291.226562 748.925781 287.578125 L 748.921875 287.578125 C 749.621094 284.003906 748.335938 280.636719 745.070312 277.472656 C 744.09375 276.527344 742.820312 275.507812 741.25 274.414062 C 740.816406 274.109375 740.355469 273.84375 739.878906 273.617188 L 739.871094 273.617188 C 736.933594 271.929688 720.890625 261.394531 691.75 242.011719 L 691.742188 242.011719 C 691.648438 241.9375 691.546875 241.867188 691.445312 241.792969 C 687.957031 239.328125 671.074219 230.253906 640.796875 214.566406 L 640.792969 214.566406 C 636.671875 212.199219 632.847656 209.792969 629.316406 207.339844 C 627.667969 206.195312 625.78125 205.640625 623.914062 205.628906 Z M 623.914062 205.628906 " fill-opacity="1" fill-rule="nonzero"/></g></svg>