<svg xmlns="http://www.w3.org/2000/svg" xmlns:xlink="http://www.w3.org/1999/xlink" width="1000" zoomAndPan="magnify" viewBox="0 0 750 749.999995" height="1000" preserveAspectRatio="xMidYMid meet" version="1.0"><path fill="#000000" d="M 744.839844 340.386719 C 742.800781 330.929688 736.300781 321.273438 737.152344 313.65625 C 740.371094 286.070312 723.691406 277.730469 702.804688 270.832031 C 614.792969 241.605469 525.207031 219.144531 432.996094 207.976562 C 400.023438 203.972656 391.878906 212.839844 399.167969 245.21875 C 400.089844 249.226562 401.601562 253.101562 402.714844 257.105469 C 406.328125 270.570312 416.378906 276.746094 428.792969 274.445312 C 440.941406 272.148438 451.84375 275.035156 462.945312 277.269531 C 491.382812 282.917969 519.558594 289.484375 547.867188 295.726562 C 548.722656 297.234375 548.851562 298.8125 548.261719 300.453125 C 517.71875 303.082031 487.246094 306.695312 456.703125 308.074219 C 378.347656 311.554688 301.375 330.339844 222.097656 326.660156 C 184.398438 324.953125 146.109375 331.191406 108.476562 336.578125 C 78.851562 340.847656 48.839844 338.613281 19.546875 344.851562 C 4.636719 348.007812 1.878906 351.816406 10.679688 363.964844 C 28.148438 388.265625 46.40625 412.4375 82.597656 404.621094 C 88.96875 403.242188 95.796875 403.964844 102.433594 403.242188 C 164.234375 397.003906 226.238281 393.519531 288.171875 389.582031 C 355.097656 385.3125 422.027344 380.78125 488.953125 376.183594 C 511.285156 374.671875 533.550781 372.570312 558.046875 370.597656 C 551.214844 381.566406 542.351562 384.785156 535.058594 389.777344 C 510.363281 406.65625 488.425781 426.753906 465.769531 446.128906 C 431.15625 475.6875 446 515.09375 462.878906 539.261719 C 466.03125 543.796875 470.101562 546.355469 474.503906 540.183594 C 487.835938 521.53125 507.671875 510.496094 525.863281 497.753906 C 578.011719 461.105469 632.660156 428.332031 687.304688 395.558594 C 701.488281 387.019531 715.742188 378.613281 729.996094 370.335938 C 741.621094 363.636719 748.320312 356.347656 744.839844 340.386719 Z M 557.980469 296.90625 C 558.375 296.710938 558.769531 296.644531 559.164062 296.316406 C 558.902344 296.644531 558.574219 296.84375 558.246094 297.039062 C 558.179688 297.039062 558.113281 296.972656 557.980469 296.90625 Z M 557.980469 296.90625 " fill-opacity="1" fill-rule="nonzero"/></svg>