<svg xmlns="http://www.w3.org/2000/svg" xmlns:xlink="http://www.w3.org/1999/xlink" width="1000" zoomAndPan="magnify" viewBox="0 0 750 749.999995" height="1000" preserveAspectRatio="xMidYMid meet" version="1.0"><path fill="#000000" d="M 701.183594 420.863281 C 678.742188 402.429688 652.433594 388.007812 627.460938 373.4375 C 614.53125 366.007812 601.449219 358.574219 588.222656 351.585938 C 603.828125 333.300781 618.246094 314.273438 631.625 294.054688 C 661.351562 248.859375 695.535156 185.234375 656 135.136719 C 637.71875 111.796875 609.03125 106.59375 581.683594 115.511719 C 552.253906 125.175781 524.457031 142.566406 497.703125 157.730469 C 484.328125 165.3125 471.097656 173.339844 457.871094 181.515625 C 457.871094 181.515625 457.871094 181.515625 457.722656 181.367188 C 448.507812 156.097656 437.65625 131.269531 424.875 107.039062 C 400.199219 60.953125 362.742188 5.355469 302.546875 13.679688 C 264.199219 19.03125 250.820312 48.464844 246.066406 81.617188 C 241.457031 81.023438 236.703125 81.171875 232.242188 82.359375 C 217.378906 86.226562 210.542969 100.347656 208.90625 114.769531 C 207.421875 128.742188 217.675781 140.039062 229.121094 146.433594 C 233.582031 148.960938 238.484375 151.042969 243.539062 152.527344 C 243.539062 176.460938 244.132812 200.546875 245.472656 224.628906 C 227.636719 220.765625 209.949219 217.492188 192.109375 214.371094 C 161.789062 209.167969 128.941406 201.882812 97.875 204.113281 C 71.417969 206.046875 43.476562 217.34375 30.097656 241.875 C 15.683594 268.484375 25.195312 298.363281 41.839844 321.40625 C 73.351562 364.816406 122.996094 396.628906 168.328125 423.984375 C 160.601562 432.605469 153.019531 441.378906 145.738281 450.148438 C 142.167969 454.3125 138.601562 458.621094 135.035156 462.933594 C 133.996094 462.339844 133.101562 461.890625 132.0625 461.445312 C 120.46875 456.539062 106.347656 455.351562 94.753906 460.703125 C 81.378906 466.648438 73.796875 483.597656 79.148438 497.421875 C 82.121094 505.003906 87.621094 511.695312 93.566406 517.640625 C 92.078125 520.019531 90.59375 522.398438 89.257812 524.777344 C 75.285156 549.75 69.191406 581.863281 84.5 607.878906 C 98.324219 631.070312 124.929688 639.394531 150.640625 638.503906 C 176.800781 637.609375 202.515625 629.582031 226.742188 620.066406 C 254.09375 609.363281 280.847656 596.726562 306.707031 582.902344 C 309.085938 581.566406 311.464844 580.375 313.84375 579.039062 C 319.9375 596.726562 326.476562 614.269531 333.3125 631.515625 C 344.90625 660.800781 355.609375 693.359375 376.863281 717.144531 C 394.550781 736.917969 423.089844 749.699219 449.546875 741.523438 C 472.882812 734.390625 487.894531 713.875 497.109375 692.316406 C 515.6875 649.355469 519.40625 598.660156 520.445312 551.386719 C 539.46875 554.359375 558.644531 556.589844 577.96875 557.480469 C 582.128906 570.863281 592.679688 582.308594 605.910156 587.214844 C 624.785156 594.203125 648.121094 584.6875 655.703125 565.660156 C 655.851562 565.660156 655.851562 565.660156 655.851562 565.507812 C 659.121094 561.050781 660.90625 556.144531 661.203125 551.089844 C 694.347656 542.320312 723.035156 523.4375 729.871094 485.828125 C 734.183594 459.515625 720.953125 436.917969 701.183594 420.863281 Z M 327.964844 542.617188 C 322.613281 526.113281 317.558594 509.464844 312.800781 492.8125 C 334.355469 500.84375 356.054688 508.421875 377.757812 515.410156 C 361.109375 524.332031 344.460938 533.546875 327.964844 542.617188 Z M 268.507812 255.402344 C 289.019531 260.160156 309.53125 265.511719 329.746094 271.160156 C 311.316406 285.730469 293.183594 300.890625 275.496094 316.5 C 272.523438 296.136719 270.292969 275.769531 268.507812 255.402344 Z M 472.882812 280.824219 C 474.515625 286.621094 476.003906 292.417969 477.339844 298.363281 C 444.9375 284.539062 412.089844 272.199219 378.796875 261.050781 C 401.984375 243.359375 425.765625 226.5625 450.289062 210.804688 C 459.058594 233.847656 466.492188 257.335938 472.882812 280.824219 Z M 483.730469 324.828125 C 489.082031 348.316406 493.839844 371.804688 498.445312 395.441406 C 498.597656 404.957031 498.445312 414.46875 498.148438 424.132812 C 498.148438 424.132812 498.148438 424.132812 498.148438 424.28125 C 473.179688 448.214844 447.019531 470.8125 420.5625 493.261719 C 411.941406 498.015625 403.171875 502.476562 394.402344 506.9375 C 365.566406 498.613281 337.03125 488.949219 308.789062 478.988281 C 296.75 434.835938 287.089844 390.238281 279.65625 345.195312 C 304.332031 322.152344 329.746094 300.148438 356.054688 279.1875 C 399.457031 291.972656 442.113281 307.136719 483.730469 324.828125 Z M 280.101562 464.417969 C 255.578125 449.554688 231.648438 433.199219 206.976562 418.632812 C 206.824219 418.484375 206.675781 418.484375 206.527344 418.335938 C 223.917969 399.601562 241.753906 381.316406 260.039062 363.628906 C 265.386719 397.671875 272.078125 431.269531 280.101562 464.417969 Z M 497.703125 442.863281 C 496.960938 461.890625 496.21875 480.773438 496.21875 499.652344 C 496.21875 509.613281 496.21875 519.574219 495.921875 529.535156 C 468.421875 525.222656 441.222656 519.277344 414.617188 512.289062 C 443.007812 489.988281 470.800781 467.09375 497.703125 442.863281 Z M 498.296875 331.070312 C 518.808594 339.992188 538.875 349.503906 558.792969 359.761719 C 544.078125 377.304688 528.621094 394.101562 512.417969 410.308594 C 508.257812 383.695312 503.648438 357.234375 498.296875 331.070312 Z M 533.972656 161.003906 C 557.304688 148.21875 588.667969 126.214844 616.613281 132.160156 C 640.988281 137.511719 653.472656 164.867188 653.621094 187.761719 C 653.769531 216.898438 638.757812 243.804688 624.339844 268.039062 C 608.882812 294.054688 591.34375 319.175781 572.320312 343.113281 C 546.160156 329.433594 519.554688 316.652344 492.652344 304.90625 C 491.164062 298.214844 489.527344 291.378906 487.894531 284.6875 C 481.207031 256.589844 473.625 228.792969 464.558594 201.734375 C 487.300781 187.316406 510.339844 173.933594 533.972656 161.003906 Z M 265.089844 205.898438 C 264.347656 188.503906 264.050781 171.257812 263.902344 154.015625 C 267.46875 152.972656 270.886719 151.339844 274.007812 148.8125 C 285.898438 143.609375 296.601562 132.308594 292.886719 118.335938 C 291.25 112.242188 287.683594 106.742188 283.519531 102.132812 C 281.441406 99.902344 279.210938 97.820312 276.832031 96.035156 C 276.089844 95.441406 275.199219 94.847656 274.304688 94.105469 L 273.710938 93.507812 C 273.414062 93.210938 272.96875 92.914062 272.671875 92.765625 C 271.332031 91.726562 269.996094 90.832031 268.507812 89.941406 C 267.46875 89.199219 266.429688 88.605469 265.238281 88.007812 C 266.429688 71.507812 270.144531 55.007812 282.035156 44.152344 C 300.167969 27.652344 329.300781 31.667969 348.625 43.558594 C 362.148438 51.734375 373 63.332031 382.066406 76.117188 C 382.214844 76.265625 382.214844 76.414062 382.363281 76.414062 C 372.554688 70.914062 362.296875 65.859375 351.894531 61.546875 C 349.367188 60.507812 347.582031 64.816406 350.109375 65.859375 C 362.445312 71.359375 374.484375 77.898438 385.78125 85.332031 C 387.714844 86.523438 389.496094 88.007812 391.429688 89.347656 C 394.402344 93.957031 397.226562 98.714844 399.902344 103.46875 C 409.859375 120.417969 419.078125 137.8125 427.398438 155.800781 C 427.398438 155.800781 427.398438 155.949219 427.546875 155.949219 C 425.320312 154.3125 423.238281 152.675781 421.007812 151.042969 C 403.46875 138.703125 384.890625 128.59375 364.824219 121.160156 C 363.785156 120.714844 363.042969 122.5 364.082031 123.09375 C 382.214844 132.609375 400.050781 143.3125 416.699219 155.5 C 422.644531 159.8125 428.292969 164.421875 433.792969 169.179688 C 437.0625 176.3125 440.035156 183.597656 443.007812 190.882812 C 412.535156 210.207031 382.660156 231.019531 353.824219 252.875 C 330.789062 245.738281 307.453125 239.347656 284.117188 233.546875 C 278.46875 232.0625 272.671875 230.722656 267.023438 229.386719 C 265.984375 221.507812 265.535156 213.628906 265.089844 205.898438 Z M 161.789062 390.980469 C 161.640625 390.980469 161.640625 390.832031 161.492188 390.832031 C 160.601562 389.792969 159.558594 388.898438 158.667969 387.859375 C 155.398438 384.292969 152.128906 380.722656 149.15625 377.007812 C 142.765625 369.128906 136.820312 360.953125 131.320312 352.328125 C 120.914062 335.828125 112.292969 318.136719 103.671875 300.742188 C 103.375 300.148438 102.632812 300.59375 102.78125 301.191406 C 106.347656 321.257812 114.375 339.691406 125.078125 357.085938 C 128.644531 362.882812 132.507812 368.382812 136.375 373.886719 C 122.253906 364.074219 108.578125 353.519531 95.648438 342.367188 C 92.378906 339.542969 89.257812 336.71875 85.984375 333.746094 C 83.3125 326.757812 80.933594 319.773438 78.703125 312.636719 C 74.09375 297.769531 70.972656 282.160156 68.148438 266.847656 C 67.851562 265.214844 65.324219 265.660156 65.324219 267.292969 C 64.582031 283.5 66.8125 299.109375 70.675781 314.867188 C 71.121094 316.652344 71.71875 318.285156 72.164062 319.921875 C 64.285156 311.148438 57.449219 301.785156 52.542969 291.230469 C 40.949219 265.660156 52.839844 242.023438 78.851562 232.953125 C 106.050781 223.589844 138.453125 231.320312 166.101562 235.480469 C 193.300781 239.644531 220.351562 244.699219 247.105469 250.644531 C 249.1875 278.59375 252.011719 306.691406 255.875 334.488281 C 239.378906 349.503906 223.472656 364.964844 208.015625 380.871094 C 200.136719 388.898438 192.410156 397.078125 184.976562 405.402344 C 177.097656 400.644531 169.371094 395.886719 161.789062 390.980469 Z M 194.191406 604.757812 C 174.722656 610.851562 152.722656 616.203125 132.359375 612.1875 C 104.714844 606.6875 95.203125 580.226562 102.632812 554.953125 C 105.011719 547.222656 108.28125 539.792969 112.441406 532.65625 C 117.644531 535.183594 123.292969 536.816406 129.386719 536.519531 C 151.980469 535.480469 158.964844 510.355469 154.953125 491.476562 C 154.953125 491.179688 154.953125 490.882812 154.804688 490.734375 C 154.210938 487.3125 153.316406 484.042969 151.980469 480.921875 C 164.316406 465.757812 176.800781 451.1875 189.734375 436.621094 C 199.394531 442.269531 209.054688 447.472656 219.015625 452.378906 C 219.015625 453.566406 219.609375 454.757812 220.945312 455.351562 C 241.902344 464.570312 263.160156 473.339844 284.5625 481.8125 C 289.316406 500.691406 294.667969 519.574219 300.316406 538.15625 C 301.953125 543.804688 303.734375 549.304688 305.667969 554.804688 C 269.996094 574.429688 232.984375 592.863281 194.191406 604.757812 Z M 412.089844 713.425781 C 386.226562 699.75 375.378906 668.976562 364.824219 643.558594 C 354.273438 617.988281 344.609375 592.121094 335.691406 566.105469 C 344.460938 561.050781 353.082031 555.699219 361.703125 550.046875 C 362.742188 550.644531 364.082031 550.792969 365.121094 549.898438 C 377.160156 540.980469 389.347656 531.910156 401.238281 522.84375 C 401.835938 522.992188 402.28125 523.140625 402.875 523.4375 C 433.492188 532.65625 464.410156 540.832031 495.625 546.925781 C 495.472656 553.023438 495.324219 559.117188 494.878906 565.210938 C 494.878906 565.210938 494.878906 565.359375 494.878906 565.359375 C 491.609375 573.089844 487.746094 580.820312 483.285156 587.957031 C 480.910156 591.824219 478.234375 595.390625 475.410156 598.957031 C 475.410156 598.808594 475.261719 598.660156 475.113281 598.660156 C 474.664062 598.660156 474.664062 599.253906 474.964844 599.402344 C 467.234375 609.066406 458.464844 617.839844 450.4375 627.203125 C 449.992188 627.648438 450.4375 628.691406 451.179688 628.394531 C 467.679688 621.703125 480.164062 607.582031 490.125 593.308594 C 491.3125 591.523438 492.351562 589.742188 493.394531 587.957031 C 493.394531 587.957031 493.394531 588.105469 493.394531 588.105469 C 493.542969 588.253906 493.394531 588.253906 493.394531 588.253906 C 492.203125 603.121094 490.273438 617.988281 487.597656 632.703125 C 484.03125 640.285156 479.71875 647.71875 474.8125 654.410156 C 464.558594 668.53125 451.03125 680.128906 437.804688 691.425781 C 437.210938 691.871094 437.804688 692.914062 438.546875 692.613281 C 456.085938 686.964844 470.058594 674.777344 481.503906 660.503906 C 471.542969 694.695312 451.03125 734.089844 412.089844 713.425781 Z M 690.039062 514.816406 C 680.226562 523.734375 668.335938 529.234375 655.554688 532.65625 C 653.917969 530.128906 651.691406 527.75 649.3125 525.667969 C 638.3125 516.300781 623.152344 510.800781 608.585938 511.84375 C 601.601562 512.4375 594.613281 514.074219 588.667969 517.9375 C 581.535156 522.695312 577.371094 529.535156 576.035156 537.710938 C 557.457031 536.964844 538.875 535.480469 520.445312 533.25 L 520.445312 532.65625 C 520.59375 512.882812 520.296875 493.261719 519.105469 473.488281 C 520.148438 472.746094 520.890625 471.851562 520.742188 470.367188 C 518.957031 455.945312 517.027344 441.378906 514.945312 426.957031 C 535.011719 408.375 554.183594 389.347656 572.46875 369.277344 C 573.65625 370.316406 574.992188 371.359375 576.183594 372.398438 C 583.019531 378.789062 589.410156 385.777344 595.503906 392.914062 C 607.695312 406.886719 618.097656 422.792969 627.3125 439 C 628.207031 440.484375 630.730469 439.445312 630.136719 437.808594 C 627.015625 428.742188 623.449219 419.820312 618.542969 411.496094 C 613.640625 403.023438 607.992188 394.996094 602.046875 387.414062 C 599.667969 384.292969 596.992188 381.316406 594.316406 378.34375 C 594.316406 378.34375 594.464844 378.34375 594.464844 378.34375 C 608.289062 385.777344 621.664062 393.65625 635.042969 401.683594 C 641.285156 408.375 647.230469 415.511719 653.027344 422.792969 C 665.066406 438.105469 675.769531 454.757812 685.28125 471.703125 C 686.023438 472.894531 688.105469 472.148438 687.511719 470.8125 C 680.226562 452.230469 670.863281 435.28125 659.121094 419.226562 C 657.636719 417.144531 656 415.363281 654.511719 413.28125 C 654.511719 413.28125 654.664062 413.429688 654.664062 413.429688 C 671.457031 423.242188 688.996094 434.09375 700.738281 448.957031 C 717.683594 470.515625 708.914062 497.570312 690.039062 514.816406 Z M 690.039062 514.816406 " fill-opacity="1" fill-rule="nonzero"/><path fill="#000000" d="M 395.59375 430.226562 C 399.605469 431.121094 403.765625 431.417969 407.78125 430.824219 C 412.535156 430.078125 417.589844 426.363281 420.5625 422.792969 C 427.101562 415.363281 429.925781 406.441406 430.222656 396.628906 C 430.820312 377.898438 421.601562 358.722656 406.589844 347.570312 C 390.6875 335.828125 366.90625 335.828125 351.148438 347.871094 C 336.136719 359.464844 329.449219 379.535156 333.761719 397.820312 C 339.707031 423.6875 370.621094 443.160156 395.59375 430.226562 Z M 357.839844 363.179688 C 360.367188 360.652344 361.851562 359.761719 365.566406 357.679688 C 366.609375 357.085938 367.203125 356.9375 369.285156 356.34375 C 370.175781 356.046875 371.066406 355.898438 372.109375 355.601562 C 372.554688 355.449219 372.851562 355.449219 373.296875 355.300781 C 373.59375 355.300781 373.742188 355.152344 373.890625 355.152344 C 373.890625 355.152344 374.039062 355.152344 374.039062 355.152344 C 378.054688 354.707031 382.214844 354.855469 385.632812 355.601562 C 387.269531 355.898438 388.902344 356.492188 390.539062 356.9375 C 391.726562 357.382812 390.390625 356.789062 391.875 357.53125 C 392.769531 357.976562 393.660156 358.425781 394.550781 359.019531 C 397.820312 360.953125 398.714844 361.695312 401.6875 364.667969 C 402.28125 365.261719 402.875 366.007812 403.46875 366.75 C 404.511719 367.9375 403.617188 366.898438 404.363281 367.789062 C 405.402344 369.277344 406.441406 370.761719 407.183594 372.398438 C 407.632812 373.140625 408.078125 374.035156 408.375 374.925781 C 409.117188 376.5625 408.523438 374.925781 408.96875 376.113281 C 409.5625 377.75 410.15625 379.535156 410.753906 381.316406 C 411.199219 383.101562 411.644531 384.886719 411.941406 386.667969 C 411.941406 386.96875 411.941406 386.96875 412.089844 387.117188 C 412.089844 387.265625 412.089844 387.265625 412.089844 387.414062 C 412.238281 388.453125 412.238281 389.496094 412.386719 390.535156 C 412.535156 392.617188 412.386719 394.550781 412.238281 396.628906 C 412.238281 397.078125 412.089844 397.375 412.089844 397.820312 C 412.089844 397.820312 412.089844 397.96875 412.089844 397.96875 C 411.941406 398.859375 411.792969 399.601562 411.496094 400.496094 C 411.199219 401.386719 411.050781 402.429688 410.753906 403.320312 C 410.605469 403.617188 410.308594 404.65625 410.007812 405.253906 C 409.710938 405.847656 409.117188 407.183594 409.265625 407.183594 C 409.265625 407.332031 409.117188 407.78125 408.96875 408.078125 C 408.820312 408.523438 408.226562 409.710938 408.078125 410.007812 C 407.183594 411.644531 406.144531 413.132812 405.105469 414.617188 C 404.957031 414.914062 404.0625 416.105469 404.0625 416.253906 C 403.46875 416.996094 402.875 417.589844 402.28125 418.1875 C 399.605469 421.308594 397.820312 424.578125 394.847656 427.402344 C 383.550781 427.253906 372.109375 421.457031 363.339844 414.765625 C 360.515625 412.6875 356.648438 408.96875 355.164062 406.886719 C 354.121094 405.402344 353.082031 403.914062 352.191406 402.429688 C 351.746094 401.535156 351.296875 400.792969 350.851562 399.902344 C 350.851562 399.902344 350.703125 399.601562 350.554688 399.304688 C 350.40625 399.007812 350.109375 397.96875 350.109375 397.96875 C 345.949219 385.628906 348.773438 372.101562 357.839844 363.179688 Z M 357.839844 363.179688 " fill-opacity="1" fill-rule="nonzero"/><path fill="#000000" d="M 674.429688 260.308594 C 671.160156 265.808594 667.445312 271.160156 663.433594 276.066406 C 659.714844 280.675781 655.257812 284.835938 651.839844 289.742188 C 649.015625 293.90625 654.511719 299.109375 658.675781 296.582031 C 669.078125 290.039062 677.253906 277.105469 683.199219 266.550781 C 689.738281 255.105469 694.644531 242.46875 697.765625 229.683594 C 704.007812 203.964844 702.96875 176.761719 694.347656 151.636719 C 692.710938 147.175781 685.726562 148.960938 687.066406 153.570312 C 694.496094 177.355469 694.941406 202.925781 688.402344 227.007812 C 685.132812 238.75 680.523438 249.902344 674.429688 260.308594 Z M 674.429688 260.308594 " fill-opacity="1" fill-rule="nonzero"/><path fill="#000000" d="M 643.8125 307.433594 C 643.070312 307.730469 642.324219 307.878906 641.582031 308.175781 C 640.097656 308.769531 639.351562 309.8125 638.460938 311.148438 C 637.421875 312.636719 636.378906 314.125 635.488281 315.609375 C 633.554688 318.730469 631.476562 321.703125 629.246094 324.53125 C 626.867188 327.503906 624.191406 330.03125 621.8125 332.855469 C 619.289062 335.679688 616.613281 338.503906 613.789062 341.03125 C 612.449219 342.21875 614.234375 344.152344 615.71875 343.558594 C 619.289062 341.921875 622.707031 339.992188 625.976562 337.910156 C 629.394531 335.828125 632.367188 332.855469 635.191406 330.03125 C 638.164062 327.058594 640.839844 323.933594 643.21875 320.664062 C 644.40625 319.175781 645.296875 317.542969 646.191406 315.90625 C 646.933594 314.71875 647.527344 313.527344 647.378906 312.042969 C 647.378906 311 646.933594 310.109375 646.785156 309.070312 C 646.339844 307.878906 645 307.136719 643.8125 307.433594 Z M 643.8125 307.433594 " fill-opacity="1" fill-rule="nonzero"/><path fill="#000000" d="M 394.402344 37.316406 C 398.417969 40.140625 402.132812 43.261719 405.699219 46.53125 C 412.683594 52.925781 419.375 59.914062 425.023438 67.644531 C 436.316406 83.101562 442.859375 100.941406 451.03125 118.039062 C 451.328125 118.632812 452.222656 118.335938 452.222656 117.742188 C 453.261719 97.820312 443.75 78.496094 432.601562 62.441406 C 426.953125 54.113281 420.414062 46.234375 412.832031 39.546875 C 409.265625 36.273438 405.550781 33.300781 401.6875 30.476562 C 397.96875 27.652344 392.917969 23.191406 388.160156 22.449219 C 384.890625 22.003906 380.578125 25.421875 383.253906 28.84375 C 386.078125 32.558594 390.6875 34.640625 394.402344 37.316406 Z M 394.402344 37.316406 " fill-opacity="1" fill-rule="nonzero"/><path fill="#000000" d="M 346.394531 5.949219 C 348.773438 6.246094 351 6.839844 353.230469 7.582031 C 355.609375 8.476562 357.988281 8.921875 360.367188 9.8125 C 361.40625 10.257812 361.554688 10.257812 362.890625 11.003906 C 363.933594 11.597656 365.121094 12.191406 366.164062 12.785156 C 366.609375 13.082031 367.203125 13.234375 367.648438 13.53125 C 367.945312 13.679688 368.09375 13.828125 367.796875 13.53125 C 368.539062 13.828125 369.285156 14.273438 370.027344 14.570312 C 371.511719 15.015625 372.851562 14.570312 374.1875 14.125 C 375.082031 13.828125 375.527344 13.082031 375.675781 12.191406 C 375.824219 10.855469 375.824219 9.367188 375.082031 8.179688 C 374.1875 6.839844 372.40625 5.355469 371.066406 4.609375 C 368.539062 3.273438 365.714844 2.230469 362.890625 1.636719 C 360.367188 1.042969 357.394531 0.300781 354.71875 0.597656 C 351.894531 0.894531 349.21875 1.488281 346.542969 2.378906 C 344.757812 2.828125 344.3125 5.652344 346.394531 5.949219 Z M 346.394531 5.949219 " fill-opacity="1" fill-rule="nonzero"/><path fill="#000000" d="M 233.28125 629.136719 C 223.621094 630.921875 215.148438 635.527344 205.933594 638.652344 C 196.273438 641.921875 186.464844 644.152344 176.355469 645.785156 C 166.25 647.421875 156.140625 648.460938 145.886719 649.503906 C 136.074219 650.394531 126.265625 650.988281 116.902344 654.113281 C 116.308594 654.261719 116.308594 655.152344 116.902344 655.300781 C 126.710938 657.976562 136.820312 657.976562 146.925781 657.679688 C 157.628906 657.382812 168.328125 656.640625 178.882812 655.003906 C 189.289062 653.515625 199.542969 651.136719 209.5 647.867188 C 219.3125 644.597656 228.824219 641.179688 235.511719 632.851562 C 237 631.21875 235.660156 628.691406 233.28125 629.136719 Z M 233.28125 629.136719 " fill-opacity="1" fill-rule="nonzero"/><path fill="#000000" d="M 272.96875 614.121094 C 269.847656 616.351562 266.578125 618.433594 263.160156 620.066406 C 262.414062 620.515625 261.523438 620.8125 260.78125 621.257812 C 260.335938 621.40625 259.886719 621.703125 259.441406 621.851562 C 259.441406 621.851562 259.292969 621.851562 259.292969 621.851562 C 259.144531 621.851562 258.550781 622.148438 258.699219 622.148438 C 257.660156 622.59375 256.46875 622.894531 255.429688 623.488281 C 254.539062 623.933594 253.792969 624.527344 253.050781 624.972656 C 251.566406 625.867188 249.1875 628.097656 249.484375 630.175781 C 249.78125 632.40625 253.347656 633.148438 255.28125 633 C 256.320312 632.851562 257.214844 632.703125 258.253906 632.554688 C 259.589844 632.257812 260.78125 631.8125 261.96875 631.21875 C 263.753906 630.324219 265.386719 629.433594 267.023438 628.542969 C 270.886719 626.3125 274.601562 623.636719 278.171875 620.664062 C 279.65625 619.324219 279.65625 616.796875 278.46875 615.3125 C 277.128906 613.824219 274.601562 612.933594 272.96875 614.121094 Z M 272.96875 614.121094 " fill-opacity="1" fill-rule="nonzero"/><path fill="#000000" d="M 535.011719 608.769531 C 536.796875 628.542969 534.714844 648.609375 529.214844 667.640625 C 526.539062 677.304688 522.824219 686.667969 518.214844 695.589844 C 514.5 702.871094 506.621094 711.199219 506.621094 719.523438 C 506.621094 720.710938 507.8125 721.605469 508.851562 721.15625 C 517.472656 718.480469 522.378906 706.441406 526.09375 699.007812 C 530.699219 689.640625 534.566406 679.832031 537.242188 669.722656 C 542.742188 649.503906 543.484375 628.542969 540.363281 607.878906 C 539.769531 605.054688 534.714844 605.796875 535.011719 608.769531 Z M 535.011719 608.769531 " fill-opacity="1" fill-rule="nonzero"/><path fill="#000000" d="M 496.21875 728.738281 C 495.324219 728.738281 494.285156 728.738281 493.394531 728.738281 C 492.351562 728.738281 491.460938 729.035156 490.421875 729.335938 C 489.230469 729.632812 488.042969 729.929688 487.003906 730.523438 C 486.109375 730.96875 485.21875 731.414062 484.328125 731.863281 C 482.542969 732.753906 480.910156 733.644531 479.125 734.539062 C 478.679688 734.6875 478.234375 734.984375 477.9375 735.132812 C 477.191406 735.578125 476.597656 736.171875 476.003906 736.914062 C 475.410156 737.660156 474.964844 738.402344 474.367188 738.996094 C 473.328125 740.335938 474.664062 742.269531 476.300781 742.269531 C 477.191406 742.269531 478.234375 742.269531 479.125 742.269531 C 480.460938 742.269531 481.503906 741.671875 482.839844 741.078125 C 484.625 740.1875 486.40625 739.292969 488.339844 738.402344 C 489.230469 737.957031 490.125 737.660156 491.015625 737.066406 C 491.90625 736.617188 492.652344 735.875 493.394531 735.28125 C 494.433594 734.539062 495.324219 733.792969 496.070312 732.902344 C 496.664062 732.160156 497.109375 731.414062 497.703125 730.820312 C 498.148438 730.078125 497.257812 728.738281 496.21875 728.738281 Z M 496.21875 728.738281 " fill-opacity="1" fill-rule="nonzero"/><path fill="#000000" d="M 621.367188 162.339844 C 622.410156 166.054688 624.042969 169.625 625.082031 173.339844 C 627.015625 180.625 628.207031 188.207031 628.058594 195.9375 C 628.058594 198.019531 629.246094 199.800781 630.878906 200.84375 C 632.8125 202.03125 634.746094 201.882812 636.675781 200.84375 C 638.460938 199.953125 639.5 197.871094 639.5 195.9375 C 639.5 187.167969 638.164062 178.394531 635.042969 170.21875 C 633.40625 166.054688 631.773438 161.746094 628.949219 158.324219 C 627.757812 156.691406 626.421875 155.203125 624.933594 153.71875 C 623.449219 152.230469 622.109375 151.339844 620.03125 150.746094 C 619.289062 150.445312 618.542969 151.191406 618.542969 151.785156 C 618.542969 153.867188 618.839844 155.351562 619.585938 157.285156 C 620.328125 158.921875 620.921875 160.703125 621.367188 162.339844 Z M 621.367188 162.339844 " fill-opacity="1" fill-rule="nonzero"/><path fill="#000000" d="M 393.214844 376.859375 C 393.363281 378.195312 393.660156 379.238281 393.957031 380.425781 C 394.105469 380.871094 394.253906 381.464844 394.253906 381.914062 C 394.253906 382.210938 394.402344 382.359375 394.402344 382.65625 C 394.402344 382.804688 394.402344 382.804688 394.402344 382.804688 C 394.550781 384.886719 394.699219 386.96875 394.699219 389.046875 C 394.699219 389.644531 394.699219 390.089844 394.550781 390.535156 C 394.550781 390.832031 394.550781 390.980469 394.550781 391.277344 C 394.402344 392.320312 394.105469 393.359375 393.808594 394.398438 C 393.214844 396.777344 394.699219 399.753906 397.078125 400.347656 C 399.457031 400.941406 402.429688 399.601562 403.023438 397.078125 C 403.023438 396.925781 403.023438 396.777344 403.171875 396.628906 C 403.171875 396.628906 403.171875 396.480469 403.171875 396.480469 C 404.363281 391.425781 404.511719 386.222656 402.875 381.316406 C 401.984375 378.789062 401.089844 375.964844 399.160156 374.183594 C 397.523438 372.546875 395.59375 371.210938 393.660156 369.871094 C 392.472656 369.128906 391.429688 370.613281 391.875 371.65625 C 392.769531 373.289062 393.066406 375.074219 393.214844 376.859375 Z M 401.390625 391.574219 C 401.238281 391.574219 401.238281 391.425781 401.089844 391.425781 C 401.6875 391.574219 401.6875 391.722656 401.390625 391.574219 Z M 400.050781 390.832031 C 399.902344 390.832031 399.753906 390.832031 399.605469 390.832031 C 399.160156 390.683594 399.160156 390.535156 400.050781 390.832031 Z M 400.050781 390.832031 " fill-opacity="1" fill-rule="nonzero"/></svg>