<svg xmlns="http://www.w3.org/2000/svg" xmlns:xlink="http://www.w3.org/1999/xlink" width="1000" zoomAndPan="magnify" viewBox="0 0 750 749.999995" height="1000" preserveAspectRatio="xMidYMid meet" version="1.0"><path fill="#2b2a30" d="M 298.871094 231.609375 C 281.332031 210.351562 248.25 227.226562 233.835938 243.632812 C 215.964844 263.960938 206.664062 293.390625 209.789062 320.292969 C 212.976562 347.863281 232.574219 369.054688 260.9375 371.046875 C 290.632812 373.171875 318.203125 354.242188 328.632812 327.070312 C 331.488281 319.5625 321.324219 315.578125 316.277344 319.894531 C 302.191406 331.984375 287.578125 347.597656 267.980469 348.992188 C 247.1875 350.519531 232.707031 337.035156 230.246094 316.839844 C 228.054688 299.300781 233.238281 280.171875 242.539062 265.355469 C 249.113281 254.859375 272.960938 230.8125 285.585938 245.09375 C 293.554688 254.261719 306.511719 240.84375 298.871094 231.609375 Z M 298.871094 231.609375 " fill-opacity="1" fill-rule="nonzero"/><path fill="#2b2a30" d="M 336.667969 185.640625 C 337 214.003906 339.726562 242.371094 342.847656 270.605469 C 344.242188 283.292969 345.769531 295.980469 347.628906 308.601562 C 349.625 322.355469 350.753906 337.167969 358.125 349.257812 C 361.183594 354.242188 370.085938 353.910156 371.347656 347.53125 C 373.804688 334.976562 371.015625 322.554688 368.886719 310.0625 C 366.5625 296.046875 364.238281 282.03125 362.113281 268.015625 C 357.925781 239.980469 354.871094 211.8125 351.019531 183.714844 C 349.890625 175.542969 336.601562 177.667969 336.667969 185.640625 Z M 336.667969 185.640625 " fill-opacity="1" fill-rule="nonzero"/><path fill="#2b2a30" d="M 408.28125 162.390625 C 408.148438 162.058594 407.949219 161.726562 407.816406 161.394531 C 407.484375 163.917969 407.152344 166.441406 406.820312 168.964844 C 407.152344 168.632812 407.484375 168.300781 407.816406 167.96875 C 405.625 168.566406 403.433594 169.097656 401.238281 169.695312 C 401.636719 169.761719 402.039062 169.828125 402.503906 169.894531 C 400.773438 168.167969 399.046875 166.441406 397.320312 164.714844 C 399.3125 170.292969 397.453125 177.734375 397.519531 183.582031 C 397.585938 190.621094 397.984375 197.664062 398.382812 204.640625 C 399.246094 218.65625 400.441406 232.671875 402.171875 246.625 C 403.765625 259.246094 405.625 271.867188 407.882812 284.355469 C 410.273438 297.640625 412.667969 312.988281 420.902344 324.082031 C 424.160156 328.464844 433.191406 329.261719 434.324219 322.355469 C 436.515625 308.46875 432.660156 294.320312 430.003906 280.703125 C 427.015625 265.355469 424.292969 249.945312 422.097656 234.464844 C 419.90625 219.121094 418.3125 203.710938 416.984375 188.230469 C 416.1875 178.597656 418.179688 161.59375 408.214844 156.277344 C 405.160156 154.617188 401.769531 155.148438 399.246094 157.40625 C 396.921875 159.464844 396.390625 161.460938 396.257812 164.449219 C 396.191406 166.441406 397.453125 168.964844 399.3125 169.828125 C 399.644531 169.960938 399.976562 170.160156 400.308594 170.292969 C 405.691406 172.753906 410.804688 167.835938 408.28125 162.390625 Z M 408.28125 162.390625 " fill-opacity="1" fill-rule="nonzero"/><path fill="#2b2a30" d="M 360.917969 275.519531 C 368.488281 270.9375 376.0625 266.417969 383.703125 261.835938 C 390.410156 257.785156 397.585938 254.726562 400.175781 246.824219 C 401.503906 242.902344 398.050781 239.714844 394.464844 239.382812 C 386.625 238.652344 380.449219 244.628906 374.335938 248.882812 C 367.492188 253.730469 360.585938 258.515625 353.742188 263.363281 C 346.5 268.480469 353.011719 280.238281 360.917969 275.519531 Z M 360.917969 275.519531 " fill-opacity="1" fill-rule="nonzero"/><path fill="#2b2a30" d="M 468.335938 241.507812 C 464.945312 257.320312 462.488281 273.128906 461.890625 289.339844 C 461.691406 295.117188 467.539062 298.769531 472.71875 297.574219 C 494.90625 292.394531 514.503906 281.101562 510.054688 255.589844 C 508.722656 248.019531 496.898438 250.011719 496.898438 257.386719 C 496.898438 271.867188 496.433594 285.949219 498.09375 300.367188 C 499.359375 311.195312 499.425781 324.679688 508.324219 332.050781 C 510.453125 333.847656 514.570312 334.179688 515.964844 331.054688 C 520.417969 321.15625 516.5625 310.863281 514.835938 300.5 C 512.445312 286.347656 510.320312 271.734375 510.320312 257.386719 C 505.933594 257.984375 501.550781 258.582031 497.164062 259.179688 C 499.625 273.394531 477.96875 278.578125 468.203125 281.101562 C 471.789062 283.824219 475.441406 286.613281 479.03125 289.339844 C 479.164062 273.925781 479.695312 258.582031 481.421875 243.300781 C 482.21875 235.863281 469.929688 234.265625 468.335938 241.507812 Z M 468.335938 241.507812 " fill-opacity="1" fill-rule="nonzero"/><path fill="#2b2a30" d="M 177.105469 494.078125 C 192.117188 487.964844 206.796875 480.789062 220.21875 471.625 C 229.914062 465.046875 248.316406 454.949219 247.652344 441.730469 C 247.453125 438.273438 244.996094 435.882812 241.609375 435.683594 C 229.714844 434.820312 219.753906 449.433594 211.050781 456.277344 C 198.695312 465.976562 185.671875 474.347656 171.789062 481.519531 C 165.011719 485.042969 169.796875 497.066406 177.105469 494.078125 Z M 177.105469 494.078125 " fill-opacity="1" fill-rule="nonzero"/><path fill="#2b2a30" d="M 200.355469 435.617188 C 206.398438 461.527344 209.789062 491.882812 225.332031 514.136719 C 228.652344 518.855469 236.425781 517.394531 236.558594 511.082031 C 236.890625 483.847656 222.609375 457.007812 212.976562 432.097656 C 209.921875 424.457031 198.429688 427.246094 200.355469 435.617188 Z M 200.355469 435.617188 " fill-opacity="1" fill-rule="nonzero"/><path fill="#2b2a30" d="M 306.710938 493.414062 C 308.238281 478.265625 312.421875 463.453125 321.589844 451.097656 C 323.980469 447.90625 333.082031 435.550781 337.800781 436.480469 C 340.789062 437.011719 342.050781 449.566406 342.582031 452.558594 C 348.5625 485.574219 347.230469 519.984375 339.460938 552.535156 C 337.601562 560.308594 335.339844 568.015625 332.75 575.585938 C 331.355469 579.640625 328.035156 595.183594 323.847656 596.910156 C 315.078125 600.566406 319.730469 581.367188 321.457031 578.175781 C 324.976562 571.601562 330.890625 566.816406 337 562.765625 C 349.359375 554.726562 363.242188 549.878906 377.789062 547.554688 C 393.46875 545.027344 409.144531 548.085938 424.757812 546.355469 C 432.992188 545.425781 435.984375 535.792969 428.941406 530.878906 C 399.378906 510.21875 350.753906 526.097656 324.710938 545.492188 C 310.960938 555.722656 299.203125 569.144531 298.074219 586.945312 C 297.144531 601.628906 305.113281 619.097656 321.257812 620.957031 C 340.324219 623.21875 347.695312 602.160156 353.011719 587.941406 C 360.453125 567.8125 365.234375 546.890625 367.558594 525.566406 C 369.886719 504.773438 369.550781 483.847656 366.828125 463.121094 C 364.902344 448.304688 364.039062 424.058594 348.628906 416.285156 C 330.890625 407.320312 312.6875 425.585938 303.453125 438.871094 C 291.894531 455.546875 286.980469 475.609375 290.765625 495.539062 C 292.625 505.171875 305.847656 501.847656 306.710938 493.414062 Z M 306.710938 493.414062 " fill-opacity="1" fill-rule="nonzero"/><path fill="#2b2a30" d="M 422.496094 420.007812 C 409.144531 453.421875 429.605469 503.574219 463.683594 517.195312 C 481.289062 524.234375 499.824219 517.859375 511.582031 503.574219 C 523.9375 488.628906 526.128906 468.167969 525.796875 449.433594 C 525.132812 413.960938 507.726562 371.84375 466.476562 370.714844 C 448.605469 370.183594 433.125 380.746094 424.957031 396.355469 C 415.058594 415.289062 417.25 434.953125 422.164062 454.882812 C 423.695312 461.128906 432.792969 459.53125 433.058594 453.421875 C 434.058594 431.898438 434.789062 388.519531 466.476562 390.445312 C 494.773438 392.105469 504.539062 423.992188 505.136719 447.507812 C 505.667969 467.96875 497.429688 514.003906 466.609375 496.402344 C 443.953125 483.449219 427.148438 448.4375 433.855469 423.195312 C 435.851562 415.621094 425.289062 413.097656 422.496094 420.007812 Z M 422.496094 420.007812 " fill-opacity="1" fill-rule="nonzero"/><path fill="#2b2a30" d="M 564.195312 454.019531 C 566.121094 449.632812 569.507812 441.796875 574.558594 440.335938 C 578.078125 439.339844 576.550781 438.9375 578.144531 442.195312 C 579.207031 444.253906 578.675781 447.972656 578.675781 450.234375 C 578.941406 463.785156 577.015625 477.203125 573.09375 490.15625 C 571.964844 493.945312 565.722656 504.375 566.320312 507.5625 C 564.59375 510.285156 565.523438 509.886719 569.109375 506.367188 C 571.367188 504.507812 573.761719 502.84375 576.285156 501.449219 C 578.675781 500.054688 581.132812 498.792969 583.589844 497.597656 C 595.285156 492.082031 608.570312 488.761719 621.324219 487.035156 C 628.367188 486.105469 626.4375 474.878906 619.664062 474.878906 C 605.445312 474.878906 592.890625 477.136719 579.804688 482.917969 C 569.507812 487.5 554.894531 494.210938 551.171875 506.035156 C 548.449219 514.738281 552.769531 525.234375 561.800781 527.890625 C 574.027344 531.476562 581.398438 519.917969 585.453125 510.351562 C 590.898438 497.265625 594.351562 483.582031 595.949219 469.496094 C 597.277344 457.671875 599.003906 442.128906 593.289062 431.035156 C 580.535156 406.386719 556.6875 433.226562 551.769531 448.769531 C 549.578125 456.011719 561.003906 461.128906 564.195312 454.019531 Z M 564.195312 454.019531 " fill-opacity="1" fill-rule="nonzero"/><path fill="#2b2a30" d="M 197.164062 150.964844 C 131.730469 173.152344 84.300781 226.496094 52.480469 286.148438 C 18.535156 349.789062 0 421.136719 18.003906 492.480469 C 53.476562 633.050781 208.589844 689.847656 340.390625 683.46875 C 419.175781 679.617188 498.496094 657.363281 568.046875 620.292969 C 634.410156 584.953125 692.007812 531.410156 721.832031 461.394531 C 750 395.359375 748.539062 322.488281 715.125 258.714844 C 683.96875 199.191406 629.894531 151.960938 569.441406 123.726562 C 433.523438 60.152344 256.222656 82.671875 163.550781 208.492188 C 153.1875 222.507812 144.417969 237.457031 136.914062 253.199219 C 132.261719 263.03125 146.480469 271.667969 151.660156 261.835938 C 181.753906 205.039062 232.242188 159.53125 290.832031 133.625 C 358.125 103.863281 435.652344 101.9375 506 121.46875 C 629.164062 155.679688 747.078125 269.742188 718.445312 407.386719 C 688.285156 552.535156 537.554688 631.585938 403.433594 656.964844 C 278.078125 680.679688 113.730469 653.777344 50.421875 528.554688 C 21.65625 471.625 22.785156 405.988281 42.980469 346.46875 C 64.105469 284.089844 100.773438 222.242188 155.847656 184.246094 C 169.597656 174.746094 184.34375 167.105469 200.023438 161.328125 C 206.398438 158.933594 203.742188 148.703125 197.164062 150.964844 Z M 197.164062 150.964844 " fill-opacity="1" fill-rule="nonzero"/></svg>