<svg xmlns="http://www.w3.org/2000/svg" xmlns:xlink="http://www.w3.org/1999/xlink" width="1000" zoomAndPan="magnify" viewBox="0 0 750 749.999995" height="1000" preserveAspectRatio="xMidYMid meet" version="1.0"><path fill="#000000" d="M 577.578125 37.175781 C 576.96875 38.394531 576.359375 39.613281 576.359375 42.050781 C 576.359375 44.488281 576.96875 45.707031 577.578125 46.925781 C 578.796875 48.144531 580.015625 48.144531 581.234375 48.144531 C 582.453125 48.144531 584.28125 47.535156 585.5 46.316406 C 586.71875 45.097656 587.328125 43.269531 586.71875 41.441406 C 586.109375 39.613281 584.890625 37.785156 582.453125 37.175781 C 580.015625 36.566406 578.1875 36.566406 577.578125 37.175781 Z M 577.578125 37.175781 " fill-opacity="1" fill-rule="evenodd"/><path fill="#000000" d="M 611.085938 39.003906 C 609.261719 40.832031 609.261719 43.269531 610.476562 45.707031 C 611.695312 48.144531 617.179688 49.363281 626.929688 48.753906 C 636.675781 48.144531 642.160156 47.535156 642.769531 46.316406 C 643.378906 45.097656 643.988281 43.878906 643.988281 42.660156 C 643.988281 41.441406 642.769531 40.222656 640.941406 38.394531 C 639.113281 36.566406 634.238281 35.957031 625.710938 35.957031 C 617.789062 35.957031 612.914062 37.175781 611.085938 39.003906 Z M 611.085938 39.003906 " fill-opacity="1" fill-rule="evenodd"/><path fill="#000000" d="M 519.089844 39.003906 C 502.03125 40.222656 493.5 41.441406 492.28125 42.050781 C 491.0625 42.660156 490.453125 43.878906 489.84375 46.316406 C 489.234375 48.753906 489.84375 49.972656 490.453125 51.191406 C 491.671875 52.410156 495.9375 52.410156 505.078125 51.800781 C 513.605469 50.582031 520.308594 50.582031 524.574219 50.582031 C 528.839844 51.191406 531.273438 50.582031 531.882812 49.972656 C 532.492188 49.363281 537.367188 48.753906 546.507812 48.753906 C 555.644531 48.753906 560.519531 47.535156 561.738281 45.707031 C 562.957031 43.878906 562.347656 42.050781 561.128906 40.222656 C 559.910156 38.394531 556.253906 37.785156 551.378906 37.175781 C 546.507812 37.175781 535.539062 37.785156 519.089844 39.003906 Z M 519.089844 39.003906 " fill-opacity="1" fill-rule="evenodd"/><path fill="#000000" d="M 683.589844 103.601562 C 682.371094 105.429688 682.371094 109.695312 682.371094 115.789062 C 682.371094 121.882812 682.980469 126.148438 684.199219 127.976562 C 685.417969 129.804688 686.636719 130.414062 689.074219 130.414062 C 691.511719 130.414062 692.730469 128.585938 693.945312 124.320312 C 695.164062 120.054688 695.773438 116.398438 695.164062 111.523438 C 695.164062 106.648438 694.554688 104.210938 693.945312 103.601562 C 693.335938 102.382812 691.511719 101.773438 689.074219 101.164062 C 686.027344 101.164062 684.199219 101.773438 683.589844 103.601562 Z M 683.589844 103.601562 " fill-opacity="1" fill-rule="evenodd"/><path fill="#000000" d="M 279.652344 112.132812 C 272.949219 112.742188 269.292969 113.960938 268.683594 115.179688 C 268.074219 117.007812 268.683594 118.835938 269.902344 121.273438 C 271.730469 123.710938 275.386719 124.929688 282.089844 124.929688 C 288.789062 124.929688 293.054688 124.320312 293.664062 123.710938 C 294.882812 123.101562 296.710938 123.101562 298.539062 123.710938 C 300.367188 124.320312 305.847656 124.929688 314.378906 124.929688 C 323.519531 124.929688 328.390625 124.320312 330.21875 123.101562 C 332.046875 121.882812 332.65625 120.054688 332.65625 118.226562 C 332.65625 115.789062 332.046875 114.570312 330.828125 113.351562 C 329.609375 112.132812 322.300781 111.523438 309.503906 111.523438 C 296.710938 111.523438 286.351562 111.523438 279.652344 112.132812 Z M 279.652344 112.132812 " fill-opacity="1" fill-rule="evenodd"/><path fill="#000000" d="M 215.070312 113.351562 C 206.539062 113.960938 198.621094 114.570312 190.699219 113.960938 C 182.777344 113.351562 177.296875 113.351562 173.640625 113.960938 C 169.984375 114.570312 167.546875 114.570312 166.328125 113.960938 C 165.109375 113.351562 155.972656 113.351562 138.914062 113.351562 C 121.851562 113.351562 111.496094 113.960938 107.230469 114.570312 C 102.964844 115.179688 101.136719 117.007812 101.136719 119.445312 C 100.527344 122.492188 101.136719 124.320312 102.964844 125.539062 C 104.792969 126.757812 106.011719 127.367188 107.230469 126.757812 C 108.449219 126.148438 112.714844 126.148438 119.414062 126.148438 C 126.117188 126.148438 132.210938 126.148438 136.476562 125.539062 C 141.347656 124.929688 145.003906 124.929688 149.269531 125.539062 C 153.535156 126.148438 160.234375 126.148438 169.984375 125.539062 C 179.734375 124.929688 191.308594 124.929688 204.710938 124.929688 C 218.117188 125.539062 226.035156 124.929688 227.863281 124.320312 C 229.691406 123.710938 230.910156 122.492188 232.128906 121.273438 C 233.347656 120.054688 233.347656 118.835938 233.347656 116.398438 C 232.738281 114.570312 232.128906 113.351562 230.300781 112.132812 C 228.472656 112.132812 223.597656 112.132812 215.070312 113.351562 Z M 215.070312 113.351562 " fill-opacity="1" fill-rule="evenodd"/><path fill="#000000" d="M 246.75 113.351562 C 246.140625 113.960938 245.53125 115.789062 246.140625 118.226562 C 246.75 120.054688 246.75 121.882812 247.96875 123.101562 C 248.578125 123.710938 250.40625 124.320312 252.234375 124.320312 C 254.0625 124.320312 255.28125 123.710938 255.890625 123.101562 C 256.5 121.882812 256.5 120.664062 256.5 118.226562 C 256.5 115.789062 254.671875 113.960938 252.234375 113.351562 C 249.1875 112.132812 247.359375 112.132812 246.75 113.351562 Z M 246.75 113.351562 " fill-opacity="1" fill-rule="evenodd"/><path fill="#000000" d="M 661.65625 115.789062 C 660.4375 117.007812 659.828125 120.664062 661.046875 126.757812 C 661.65625 132.851562 662.265625 137.117188 663.484375 138.945312 C 664.09375 140.773438 665.921875 141.992188 668.359375 141.992188 C 670.1875 142.601562 672.011719 141.992188 673.230469 140.773438 C 673.839844 139.554688 674.449219 135.289062 673.839844 128.585938 C 673.230469 121.882812 672.011719 117.617188 671.40625 116.398438 C 670.1875 115.179688 668.96875 114.570312 667.140625 114.570312 C 665.3125 114.570312 662.875 115.179688 661.65625 115.789062 Z M 661.65625 115.789062 " fill-opacity="1" fill-rule="evenodd"/><path fill="#000000" d="M 241.269531 1.828125 C 237.613281 2.4375 235.785156 3.046875 234.566406 3.65625 C 233.347656 4.265625 231.519531 4.875 229.082031 3.65625 C 226.644531 2.4375 224.207031 2.4375 222.378906 2.4375 C 220.554688 3.046875 219.335938 3.046875 218.726562 3.65625 C 218.117188 4.265625 216.898438 4.265625 213.851562 3.65625 C 210.804688 3.046875 206.539062 3.046875 199.839844 3.65625 C 193.136719 4.265625 188.871094 4.265625 187.042969 3.046875 C 185.214844 1.828125 183.386719 1.828125 182.167969 3.046875 C 180.949219 4.265625 178.515625 4.265625 175.46875 3.65625 C 172.421875 3.046875 170.59375 3.65625 170.59375 4.265625 C 169.984375 4.875 168.15625 4.875 164.5 3.65625 C 160.84375 2.4375 158.410156 3.046875 157.191406 4.265625 C 155.972656 5.484375 153.535156 6.703125 149.878906 7.921875 C 146.222656 9.140625 144.394531 10.359375 143.785156 12.1875 C 143.785156 14.015625 142.566406 15.234375 140.128906 16.453125 C 138.304688 17.671875 136.476562 19.5 135.257812 21.328125 C 134.039062 23.15625 132.210938 26.203125 127.945312 29.25 C 123.679688 32.300781 121.851562 34.738281 121.242188 35.957031 C 120.632812 37.175781 119.414062 37.785156 118.199219 38.394531 C 116.980469 39.003906 115.152344 40.832031 113.324219 43.878906 C 111.496094 47.535156 109.058594 49.363281 106.011719 51.191406 C 102.964844 53.019531 101.136719 54.238281 100.527344 56.066406 C 99.917969 57.894531 97.484375 59.722656 93.828125 62.769531 C 89.5625 65.816406 87.125 68.863281 85.296875 71.300781 C 83.46875 74.347656 82.25 75.566406 80.421875 75.566406 C 79.203125 75.566406 75.550781 79.222656 70.066406 86.535156 C 64.582031 93.851562 60.925781 96.898438 59.707031 96.898438 C 57.878906 96.898438 56.664062 98.726562 54.835938 101.773438 C 53.007812 105.429688 50.570312 107.867188 48.132812 109.085938 C 45.085938 110.914062 43.867188 112.132812 43.257812 113.960938 C 42.648438 115.789062 41.429688 117.007812 38.382812 118.835938 C 35.339844 120.664062 32.902344 122.492188 31.683594 123.710938 C 29.855469 125.539062 29.246094 126.757812 28.636719 128.585938 C 28.027344 130.414062 26.808594 132.242188 23.761719 133.460938 C 20.714844 134.679688 17.667969 138.945312 12.1875 145.039062 C 6.703125 151.132812 4.265625 156.621094 4.265625 162.105469 C 4.265625 166.980469 4.875 170.027344 5.484375 170.636719 C 6.09375 171.246094 6.09375 172.464844 4.875 173.683594 C 3.65625 175.511719 3.65625 179.167969 4.875 185.261719 C 6.09375 191.355469 6.09375 195.621094 5.484375 197.449219 C 4.875 199.277344 4.265625 204.761719 4.265625 213.902344 C 4.265625 223.046875 4.875 228.53125 5.484375 230.359375 C 6.09375 232.1875 6.09375 234.625 4.875 237.0625 C 3.65625 239.5 3.046875 241.9375 3.046875 243.15625 C 3.046875 243.765625 3.046875 244.375 3.046875 244.984375 C 3.65625 244.984375 3.65625 244.984375 4.265625 244.984375 C 4.265625 244.984375 4.875 244.984375 5.484375 244.984375 C 5.484375 251.078125 5.484375 257.171875 5.484375 263.265625 C 5.484375 275.453125 4.875 281.550781 4.265625 282.160156 C 3.65625 282.160156 3.046875 283.988281 3.046875 287.035156 C 3.046875 290.082031 3.046875 292.519531 4.265625 294.347656 C 5.484375 296.175781 5.484375 298.003906 5.484375 299.832031 C 5.484375 300.441406 5.484375 301.660156 5.484375 302.878906 C 4.875 302.878906 4.875 302.878906 4.265625 302.878906 C 3.65625 302.878906 3.65625 302.878906 3.046875 302.878906 C 3.046875 306.535156 3.046875 309.582031 3.046875 313.238281 C 3.046875 319.941406 3.65625 324.207031 4.875 324.816406 C 6.09375 325.425781 6.09375 326.644531 6.09375 329.082031 C 6.09375 330.910156 5.484375 332.738281 4.875 334.566406 C 3.65625 336.394531 3.65625 341.882812 4.265625 352.242188 C 4.875 362.601562 4.875 369.914062 3.65625 374.789062 C 3.046875 379.664062 2.4375 382.710938 3.046875 384.539062 C 3.65625 386.367188 3.65625 388.804688 3.046875 391.242188 C 2.4375 393.679688 2.4375 396.117188 3.046875 396.726562 C 3.65625 397.335938 3.65625 399.773438 2.4375 402.824219 C 1.21875 405.871094 1.21875 407.699219 1.828125 408.308594 C 2.4375 408.917969 2.4375 411.964844 2.4375 417.449219 C 1.828125 422.933594 1.828125 426.589844 2.4375 427.808594 C 2.4375 428.417969 2.4375 429.636719 3.046875 430.246094 C 3.65625 430.246094 3.65625 430.246094 4.265625 429.636719 C 4.265625 429.636719 4.875 429.027344 5.484375 429.027344 C 4.875 432.683594 4.875 436.339844 4.265625 439.996094 C 3.65625 447.308594 3.65625 452.183594 4.875 455.230469 C 6.09375 458.277344 6.09375 461.933594 5.484375 465.59375 C 4.265625 469.25 3.65625 471.6875 3.65625 472.296875 C 3.65625 472.90625 3.65625 472.90625 3.65625 473.515625 C 4.265625 473.515625 4.265625 473.515625 4.875 473.515625 C 4.875 473.515625 5.484375 473.515625 6.09375 473.515625 C 6.09375 474.125 6.09375 474.734375 5.484375 475.953125 C 4.875 477.78125 5.484375 478.390625 6.09375 479 C 6.703125 479 6.703125 480.828125 5.484375 483.265625 C 4.265625 485.703125 4.265625 493.625 4.875 506.421875 C 5.484375 519.21875 5.484375 527.140625 4.265625 529.582031 C 3.65625 532.019531 3.046875 533.847656 3.65625 535.066406 C 4.265625 536.285156 4.265625 538.722656 4.265625 542.988281 C 4.265625 546.644531 4.265625 549.082031 4.875 550.300781 C 5.484375 551.519531 5.484375 553.347656 4.265625 557.003906 C 3.65625 560.050781 3.046875 562.488281 3.65625 563.097656 C 4.265625 564.316406 4.265625 564.925781 3.65625 566.144531 C 3.046875 566.753906 3.046875 566.753906 3.046875 567.363281 C 3.65625 567.363281 3.65625 567.363281 3.65625 567.363281 C 3.65625 567.363281 4.265625 567.363281 4.875 567.363281 C 4.875 570.410156 4.875 573.457031 4.265625 575.894531 C 4.265625 578.941406 3.65625 581.378906 3.65625 584.425781 C 4.265625 584.425781 4.265625 584.425781 4.875 584.425781 C 4.875 584.425781 5.484375 584.425781 6.09375 584.425781 C 5.484375 596.617188 5.484375 609.414062 4.875 621.601562 C 4.265625 633.789062 4.265625 645.976562 3.65625 658.777344 C 4.265625 658.777344 4.265625 658.777344 4.875 658.777344 C 5.484375 658.777344 6.09375 660.605469 6.09375 663.652344 C 6.09375 666.699219 6.09375 669.136719 5.484375 671.574219 C 4.265625 673.402344 3.65625 675.839844 3.65625 677.667969 C 3.65625 678.886719 3.65625 680.105469 3.65625 680.714844 C 4.265625 680.714844 4.265625 680.714844 4.875 680.714844 C 4.875 680.714844 5.484375 680.714844 6.09375 680.714844 C 6.09375 683.761719 6.09375 686.808594 6.09375 689.246094 C 6.09375 692.292969 6.09375 694.730469 6.09375 697.777344 C 5.484375 697.777344 5.484375 697.777344 4.875 697.167969 C 4.265625 697.167969 4.265625 697.167969 3.65625 696.558594 C 3.65625 697.167969 3.65625 697.167969 3.65625 697.167969 C 3.65625 697.777344 4.265625 698.386719 4.875 699.605469 C 4.875 700.214844 5.484375 700.824219 6.09375 701.433594 C 5.484375 701.433594 5.484375 701.433594 4.875 701.433594 C 4.875 702.652344 4.875 703.261719 4.265625 704.480469 C 4.265625 706.917969 4.265625 708.746094 5.484375 709.964844 C 6.703125 711.183594 6.703125 714.230469 6.703125 717.890625 C 6.703125 721.546875 7.3125 724.59375 8.53125 726.421875 C 9.75 728.25 12.1875 730.6875 15.839844 732.515625 C 19.496094 734.953125 26.199219 735.5625 35.945312 735.5625 C 45.695312 734.953125 51.179688 735.5625 53.007812 736.171875 C 54.835938 737.390625 57.269531 737.390625 60.316406 736.171875 C 63.972656 735.5625 65.800781 734.953125 67.019531 735.5625 C 68.238281 736.171875 69.457031 735.5625 71.285156 734.34375 C 73.113281 733.125 74.941406 733.125 77.984375 733.734375 C 81.03125 734.34375 82.859375 734.953125 82.859375 735.5625 C 82.859375 736.171875 83.46875 736.78125 84.6875 736.78125 C 85.296875 736.78125 85.296875 736.78125 85.90625 736.78125 C 85.90625 736.171875 85.90625 736.171875 85.90625 735.5625 C 85.90625 734.953125 85.90625 734.953125 85.90625 734.34375 C 86.515625 734.953125 87.125 734.953125 87.734375 735.5625 C 88.34375 736.171875 88.34375 736.171875 88.953125 736.78125 C 88.953125 736.171875 88.953125 736.171875 89.5625 735.5625 C 89.5625 734.953125 92.609375 734.34375 98.699219 734.34375 C 104.183594 734.34375 107.230469 734.953125 107.839844 735.5625 C 107.839844 736.171875 109.058594 736.171875 109.667969 736.171875 C 110.277344 736.171875 110.277344 736.171875 110.886719 735.5625 C 110.886719 736.171875 110.886719 736.171875 110.886719 736.78125 C 110.886719 736.78125 110.886719 737.390625 110.886719 738 C 110.886719 737.390625 110.886719 737.390625 111.496094 736.78125 C 112.105469 736.171875 115.152344 736.171875 120.632812 736.78125 C 126.726562 737.390625 129.773438 737.390625 130.992188 736.171875 C 132.210938 735.5625 133.429688 735.5625 135.867188 736.171875 C 138.300781 737.390625 140.128906 738 141.347656 738 C 142.566406 738 143.785156 737.390625 144.394531 736.171875 C 145.613281 735.5625 149.878906 734.953125 158.410156 735.5625 C 166.9375 736.171875 171.8125 736.171875 174.25 734.953125 C 176.078125 733.734375 178.515625 733.734375 180.339844 734.953125 C 182.167969 735.5625 183.996094 736.171875 186.433594 736.171875 C 188.871094 736.171875 191.308594 735.5625 194.355469 734.953125 C 197.402344 733.734375 200.445312 734.34375 202.882812 735.5625 C 205.320312 736.78125 207.757812 736.78125 209.585938 736.171875 C 211.414062 735.5625 212.632812 734.953125 213.851562 735.5625 C 214.460938 735.5625 214.460938 735.5625 215.070312 736.171875 C 215.070312 735.5625 215.070312 735.5625 215.070312 734.953125 C 215.070312 734.953125 215.070312 734.34375 215.070312 733.734375 C 220.550781 733.734375 226.644531 733.734375 232.738281 733.734375 C 244.3125 733.734375 250.40625 734.34375 251.625 735.5625 C 252.84375 736.171875 255.28125 736.171875 258.328125 735.5625 C 261.980469 734.34375 264.417969 734.34375 266.246094 735.5625 C 268.074219 736.171875 270.511719 736.171875 272.949219 735.5625 C 275.996094 734.34375 277.824219 733.734375 279.652344 733.734375 C 280.871094 733.734375 281.480469 733.734375 282.695312 733.734375 C 282.695312 734.34375 282.695312 734.34375 282.695312 734.953125 C 282.695312 735.5625 282.695312 735.5625 282.695312 736.171875 C 284.523438 736.171875 286.351562 736.171875 288.179688 735.5625 C 291.835938 734.953125 294.273438 735.5625 294.882812 736.171875 C 295.492188 736.78125 297.320312 736.78125 299.757812 735.5625 C 302.195312 734.34375 304.628906 734.34375 307.675781 734.953125 C 310.722656 735.5625 314.378906 735.5625 318.035156 735.5625 C 322.300781 734.953125 324.125 734.34375 324.125 733.734375 C 324.125 733.125 324.125 733.125 324.125 733.125 C 326.5625 733.125 329 733.125 332.046875 733.734375 C 337.53125 734.34375 341.1875 734.953125 343.015625 735.5625 C 345.449219 736.171875 353.371094 736.171875 367.992188 735.5625 C 382.007812 734.34375 391.144531 734.34375 394.191406 735.5625 C 396.019531 736.171875 397.238281 736.171875 399.066406 736.78125 C 399.066406 736.171875 399.066406 736.171875 399.066406 735.5625 C 399.066406 734.34375 402.113281 733.734375 408.8125 733.734375 C 414.90625 733.125 420.390625 733.125 423.4375 733.734375 C 427.089844 734.34375 428.308594 734.34375 428.308594 734.953125 C 428.308594 735.5625 431.355469 736.171875 438.058594 736.171875 C 441.105469 736.171875 444.761719 736.78125 447.804688 736.78125 C 447.804688 736.171875 447.804688 736.171875 447.804688 735.5625 C 447.804688 734.953125 448.414062 734.34375 450.242188 733.734375 C 452.070312 733.125 455.726562 732.515625 463.039062 731.90625 C 469.738281 731.296875 475.222656 731.90625 478.878906 733.125 C 482.535156 734.953125 487.410156 734.953125 494.109375 734.34375 C 500.8125 733.734375 504.46875 733.734375 505.6875 734.953125 C 506.296875 735.5625 506.90625 735.5625 507.515625 736.171875 C 507.515625 735.5625 508.125 735.5625 508.734375 734.953125 C 509.339844 733.734375 511.777344 733.734375 516.652344 734.34375 C 521.527344 734.953125 523.964844 734.953125 525.183594 734.34375 C 525.792969 733.734375 529.445312 733.125 534.929688 733.125 C 540.414062 732.515625 544.679688 733.125 546.507812 734.34375 C 548.335938 734.953125 550.769531 734.953125 553.207031 734.34375 C 555.644531 733.125 559.300781 733.125 564.175781 733.125 C 569.050781 733.734375 572.703125 733.125 575.75 732.515625 C 578.1875 731.90625 580.625 730.6875 582.453125 728.859375 C 584.28125 727.03125 586.71875 725.203125 590.375 723.984375 C 594.027344 722.765625 597.683594 719.71875 601.949219 714.230469 C 606.214844 708.746094 609.871094 705.089844 612.304688 703.261719 C 614.742188 701.433594 616.570312 700.214844 617.789062 698.386719 C 619.007812 696.558594 620.226562 695.949219 620.835938 695.949219 C 621.445312 695.949219 622.054688 695.339844 622.664062 694.121094 C 623.273438 693.511719 624.492188 692.292969 626.320312 691.683594 C 628.148438 691.074219 629.976562 689.246094 631.195312 686.808594 C 632.410156 684.371094 634.238281 682.542969 637.285156 680.714844 C 640.332031 678.886719 641.550781 677.058594 642.160156 675.230469 C 642.769531 673.402344 644.597656 670.964844 647.644531 667.917969 C 651.300781 664.871094 653.125 663.042969 654.34375 663.042969 C 655.5625 663.042969 656.78125 661.824219 658.609375 659.386719 C 660.4375 656.949219 662.265625 655.117188 664.703125 653.289062 C 667.140625 651.460938 668.359375 650.242188 668.96875 648.414062 C 669.578125 646.585938 671.40625 644.757812 675.667969 642.320312 C 679.933594 639.882812 682.371094 637.445312 683.589844 635.007812 C 684.808594 632.570312 689.074219 628.304688 697.601562 621.601562 C 705.523438 614.898438 709.179688 611.242188 709.179688 610.023438 C 709.179688 608.804688 710.398438 608.195312 712.226562 607.585938 C 714.054688 606.976562 715.878906 605.148438 718.316406 601.492188 C 720.144531 597.835938 722.582031 596.007812 725.019531 594.789062 C 727.457031 593.566406 729.894531 591.128906 732.332031 588.082031 C 734.765625 584.425781 737.203125 582.597656 740.25 580.769531 C 743.296875 578.941406 744.515625 577.722656 745.125 575.894531 C 745.734375 574.066406 746.34375 568.582031 746.34375 558.222656 C 746.34375 547.863281 746.953125 542.378906 747.5625 542.378906 C 748.171875 542.378906 748.78125 541.160156 748.78125 539.332031 C 748.78125 537.503906 748.171875 536.285156 747.5625 534.457031 C 746.34375 533.234375 746.34375 530.796875 746.953125 527.75 C 747.5625 524.703125 747.5625 522.875 746.953125 522.875 C 746.34375 522.265625 746.34375 519.828125 746.34375 514.34375 C 746.34375 509.46875 746.34375 505.8125 745.734375 504.59375 C 745.125 503.375 745.125 502.15625 746.34375 500.328125 C 746.953125 498.5 747.5625 496.0625 747.5625 491.796875 C 747.5625 487.53125 746.953125 483.265625 746.34375 479.609375 C 745.125 475.953125 745.125 468.636719 745.734375 457.667969 C 746.34375 446.699219 746.34375 440.605469 745.125 439.386719 C 744.515625 438.167969 744.515625 435.730469 745.125 431.464844 C 745.734375 427.808594 745.734375 425.371094 745.125 424.761719 C 744.515625 424.152344 743.90625 421.714844 743.90625 417.449219 C 744.515625 413.183594 743.90625 408.914062 743.296875 405.257812 C 742.6875 401.601562 742.6875 396.117188 743.90625 390.632812 C 745.125 385.148438 745.125 380.882812 743.90625 379.054688 C 743.296875 376.617188 742.6875 374.789062 742.6875 372.351562 C 742.6875 369.914062 743.296875 368.695312 743.90625 368.085938 C 744.515625 367.476562 744.515625 366.257812 743.90625 363.820312 C 743.296875 361.382812 743.296875 355.289062 743.90625 345.535156 C 744.515625 335.785156 744.515625 328.472656 743.90625 322.988281 C 743.296875 318.113281 742.6875 315.066406 742.078125 314.457031 C 741.46875 313.847656 741.46875 312.019531 742.6875 308.363281 C 743.296875 304.707031 743.90625 302.269531 743.296875 299.832031 C 742.6875 297.394531 742.6875 291.910156 742.6875 282.765625 C 743.296875 273.625 742.6875 268.140625 742.078125 266.921875 C 741.46875 265.703125 741.46875 263.265625 742.078125 259 C 742.6875 254.734375 742.6875 249.859375 741.46875 244.375 C 740.25 238.890625 740.25 235.84375 740.859375 234.625 C 741.46875 233.40625 742.078125 229.75 742.078125 222.433594 C 742.078125 215.121094 741.46875 210.246094 740.859375 208.417969 C 740.25 206.589844 740.25 196.839844 740.25 180.386719 C 740.25 163.933594 740.25 153.570312 739.03125 149.914062 C 738.421875 145.648438 737.8125 142.601562 738.421875 140.164062 C 739.03125 137.726562 739.03125 134.679688 738.421875 130.414062 C 737.8125 126.757812 737.8125 123.710938 739.03125 121.882812 C 740.25 120.054688 739.640625 116.398438 738.421875 110.914062 C 737.203125 105.429688 736.59375 100.550781 737.203125 96.285156 C 737.8125 92.019531 737.8125 87.753906 737.203125 83.488281 C 736.59375 79.222656 736.59375 73.128906 737.203125 64.597656 C 737.8125 56.675781 737.8125 51.191406 737.203125 49.972656 C 736.59375 48.753906 736.59375 46.316406 737.203125 43.878906 C 737.8125 41.441406 737.8125 36.5625 736.59375 29.859375 C 735.375 22.546875 734.15625 18.28125 732.941406 16.453125 C 731.113281 14.625 730.503906 12.1875 729.894531 9.140625 C 729.285156 6.09375 728.066406 3.65625 725.628906 2.4375 C 723.191406 1.21875 721.363281 0 718.925781 0 C 716.488281 0 714.050781 0 711.007812 0.609375 C 707.960938 1.21875 704.304688 1.21875 699.429688 0.609375 C 694.554688 0 691.511719 0 689.683594 0.609375 C 687.855469 1.21875 685.417969 1.21875 681.761719 0.609375 C 678.105469 0 675.058594 0 673.230469 0.609375 C 670.796875 1.21875 667.75 1.21875 664.09375 0.609375 C 659.828125 0 657.390625 0 655.5625 0.609375 C 653.734375 1.21875 651.90625 1.21875 650.691406 0.609375 C 649.472656 0 647.644531 0 646.425781 0.609375 C 645.207031 1.21875 643.378906 1.21875 641.550781 0.609375 C 639.113281 0 637.285156 0 635.457031 1.21875 C 633.628906 2.4375 631.800781 2.4375 629.367188 1.828125 C 626.929688 1.21875 618.398438 1.21875 604.386719 1.828125 C 590.371094 2.4375 582.453125 2.4375 581.234375 1.21875 C 579.40625 0.609375 578.1875 0 576.359375 0.609375 C 574.53125 1.21875 569.046875 1.828125 558.691406 1.828125 C 548.335938 1.828125 542.242188 1.21875 540.414062 0.609375 C 538.585938 0 536.757812 0 535.539062 0.609375 C 534.320312 1.21875 530.054688 1.21875 523.355469 1.21875 C 516.652344 1.21875 512.996094 1.21875 511.777344 1.828125 C 510.558594 2.4375 508.730469 2.4375 505.6875 1.828125 C 502.640625 1.21875 499.59375 1.21875 495.9375 1.828125 C 492.28125 2.4375 489.234375 2.4375 486.191406 1.21875 C 482.535156 0.609375 480.097656 0.609375 477.660156 1.21875 C 475.222656 2.4375 472.785156 2.4375 470.347656 1.828125 C 467.910156 1.21875 464.867188 0.609375 461.820312 0.609375 C 458.773438 0.609375 456.335938 1.21875 455.117188 1.828125 C 454.507812 2.4375 452.070312 2.4375 449.023438 1.828125 C 445.371094 1.21875 442.933594 1.21875 441.714844 2.4375 C 439.886719 3.65625 436.839844 3.65625 431.964844 3.046875 C 427.089844 2.4375 424.65625 2.4375 424.046875 1.828125 C 424.046875 1.21875 421.609375 1.21875 417.953125 2.4375 C 414.296875 3.65625 411.859375 3.65625 411.25 3.046875 C 410.640625 2.4375 408.203125 2.4375 404.546875 3.046875 C 400.894531 3.65625 398.457031 3.65625 396.628906 2.4375 C 394.800781 1.21875 386.878906 0.609375 372.867188 0.609375 C 358.855469 0.609375 351.542969 1.21875 350.324219 1.828125 C 349.714844 2.4375 347.886719 2.4375 344.839844 1.828125 C 341.796875 1.21875 338.75 1.21875 335.09375 1.828125 C 331.4375 2.4375 326.5625 3.046875 321.082031 3.046875 C 314.988281 3.046875 311.941406 2.4375 310.722656 1.828125 C 309.503906 1.21875 304.628906 0.609375 295.492188 0.609375 C 286.960938 0.609375 281.476562 1.21875 280.261719 1.828125 C 278.433594 2.4375 277.824219 2.4375 276.605469 1.828125 C 275.386719 1.21875 273.558594 0.609375 269.902344 0.609375 C 266.246094 0.609375 263.808594 1.21875 261.980469 1.828125 C 260.15625 2.4375 258.328125 2.4375 255.890625 1.21875 C 247.359375 1.828125 244.3125 1.21875 241.269531 1.828125 Z M 467.304688 29.859375 C 469.128906 29.859375 470.957031 29.859375 473.394531 29.859375 C 477.660156 29.859375 480.097656 30.46875 480.707031 31.078125 C 481.316406 31.691406 483.753906 32.300781 487.410156 32.300781 C 491.0625 32.300781 494.109375 31.691406 495.9375 31.078125 C 498.375 30.46875 500.203125 30.46875 502.640625 31.691406 C 504.46875 32.910156 508.125 33.519531 512.386719 32.910156 C 516.652344 32.300781 519.089844 32.300781 519.089844 31.691406 C 519.699219 31.078125 522.136719 30.46875 527.621094 30.46875 C 533.101562 30.46875 536.148438 31.078125 536.148438 31.691406 C 536.757812 32.300781 537.976562 32.300781 541.023438 32.300781 C 544.070312 32.300781 546.507812 32.300781 548.335938 32.910156 C 550.160156 33.519531 552.597656 33.519531 555.035156 32.300781 C 558.082031 31.078125 561.128906 31.691406 564.785156 32.910156 C 566.613281 33.519531 568.441406 34.128906 570.265625 34.738281 C 570.265625 34.128906 570.875 33.519531 570.875 32.910156 C 570.875 31.691406 577.578125 31.691406 590.375 32.300781 C 603.167969 32.910156 609.871094 32.300781 609.871094 31.691406 C 610.480469 31.078125 611.695312 30.46875 614.132812 30.46875 C 616.570312 30.46875 620.226562 31.078125 625.710938 31.691406 C 631.191406 32.300781 637.285156 32.300781 644.597656 31.078125 C 651.300781 30.46875 655.5625 29.859375 656.171875 30.46875 C 656.78125 31.078125 661.046875 31.691406 667.140625 31.691406 C 673.230469 31.691406 676.886719 32.300781 676.886719 32.910156 C 676.886719 33.519531 677.496094 33.519531 677.496094 34.128906 C 676.277344 34.738281 675.667969 34.738281 674.449219 35.347656 C 672.625 35.957031 671.40625 37.175781 670.1875 39.003906 C 668.96875 40.832031 668.359375 42.050781 666.53125 42.660156 C 664.703125 43.269531 663.484375 45.097656 661.65625 48.753906 C 659.828125 51.800781 658 54.238281 655.5625 55.457031 C 653.125 56.675781 650.691406 58.503906 647.644531 61.550781 C 644.597656 65.207031 642.160156 67.644531 639.722656 69.472656 C 636.675781 71.300781 635.457031 72.519531 635.457031 73.738281 C 635.457031 74.957031 634.847656 75.566406 633.019531 77.394531 C 631.195312 79.222656 629.976562 79.832031 628.148438 79.832031 C 626.320312 79.832031 625.101562 81.660156 623.273438 84.707031 C 621.445312 87.753906 617.179688 92.628906 609.871094 98.726562 C 603.167969 104.820312 598.902344 108.476562 598.902344 109.695312 C 598.902344 110.914062 598.292969 111.523438 597.074219 111.523438 C 595.855469 111.523438 594.027344 113.351562 591.589844 117.007812 C 589.15625 120.664062 586.71875 123.101562 584.28125 123.710938 C 581.84375 124.929688 580.015625 126.757812 577.578125 129.804688 C 575.140625 133.460938 567.222656 135.289062 553.816406 135.289062 C 539.804688 135.289062 533.101562 135.289062 532.492188 134.070312 C 531.882812 133.460938 530.054688 132.851562 527.621094 132.242188 C 525.183594 132.242188 520.917969 132.242188 516.652344 133.460938 C 512.386719 134.679688 503.859375 135.289062 490.453125 134.679688 C 477.660156 134.070312 470.347656 134.070312 469.128906 134.679688 C 467.910156 135.289062 465.476562 135.289062 463.039062 134.070312 C 460.601562 133.460938 458.773438 133.460938 457.554688 134.070312 C 456.335938 135.289062 455.117188 135.289062 454.507812 134.679688 C 453.898438 134.679688 453.898438 134.070312 453.898438 133.460938 C 453.289062 134.070312 452.679688 134.679688 452.070312 135.289062 C 451.460938 136.507812 445.980469 137.117188 436.839844 137.117188 C 427.089844 137.117188 422.21875 136.507812 421.609375 135.898438 C 421 135.289062 421 135.289062 420.390625 135.289062 C 420.390625 135.898438 420.390625 135.898438 420.390625 135.898438 C 420.390625 136.507812 418.5625 137.117188 415.515625 137.726562 C 412.46875 137.726562 409.421875 137.726562 406.375 137.117188 C 403.332031 136.507812 399.675781 136.507812 396.019531 137.117188 C 391.753906 137.726562 389.316406 137.726562 387.488281 137.726562 C 385.660156 137.117188 385.054688 136.507812 385.054688 135.898438 C 385.054688 135.289062 385.054688 135.289062 385.054688 135.289062 C 383.835938 135.898438 383.226562 135.898438 382.617188 135.898438 C 380.789062 136.507812 378.960938 136.507812 377.742188 135.289062 C 377.132812 134.679688 376.523438 134.070312 375.914062 133.460938 C 375.914062 134.070312 375.914062 134.070312 375.304688 134.679688 C 374.695312 135.289062 374.085938 135.289062 373.476562 135.289062 C 372.867188 135.289062 372.867188 135.289062 372.257812 134.679688 C 372.257812 135.289062 372.257812 135.289062 372.257812 135.898438 C 372.257812 136.507812 369.820312 137.117188 364.339844 137.726562 C 358.855469 138.335938 355.199219 138.335938 353.980469 137.726562 C 353.371094 137.117188 352.152344 137.117188 351.542969 136.507812 C 351.542969 136.507812 351.542969 137.117188 351.542969 137.726562 C 351.542969 137.726562 351.542969 138.335938 351.542969 138.945312 C 350.933594 138.945312 349.714844 138.945312 349.105469 138.945312 C 347.277344 138.945312 346.667969 138.335938 346.058594 137.726562 C 346.058594 136.507812 344.84375 136.507812 343.625 136.507812 C 342.40625 136.507812 341.1875 136.507812 338.75 137.117188 C 337.53125 137.117188 336.921875 137.117188 336.3125 137.726562 C 336.3125 137.726562 336.3125 138.335938 336.921875 138.945312 C 336.921875 138.945312 337.53125 139.554688 337.53125 140.164062 C 336.921875 140.164062 336.921875 140.164062 336.3125 139.554688 C 335.703125 139.554688 335.703125 138.945312 335.09375 138.945312 C 335.09375 138.945312 335.09375 139.554688 334.484375 140.164062 C 334.484375 140.773438 333.875 140.773438 333.875 141.382812 C 332.65625 140.773438 331.4375 140.164062 330.21875 139.554688 C 327.78125 138.335938 325.34375 137.726562 323.519531 138.335938 C 321.691406 138.945312 319.863281 139.554688 319.253906 140.164062 C 318.644531 140.773438 317.425781 141.382812 316.207031 140.773438 C 315.597656 140.773438 314.378906 140.773438 313.769531 140.164062 C 313.769531 140.773438 313.769531 140.773438 313.769531 141.382812 C 313.769531 141.992188 313.769531 141.992188 313.769531 142.601562 C 309.503906 141.992188 305.238281 141.382812 300.976562 140.773438 C 292.445312 140.164062 287.570312 139.554688 286.960938 140.164062 C 286.351562 140.773438 286.351562 140.773438 285.742188 141.382812 C 285.742188 141.382812 285.742188 140.773438 285.742188 140.164062 C 285.742188 139.554688 285.742188 139.554688 285.742188 138.945312 C 285.132812 138.945312 284.523438 138.945312 283.914062 138.945312 C 282.699219 138.945312 280.261719 139.554688 275.996094 140.164062 C 271.730469 141.382812 269.902344 141.382812 269.292969 140.773438 C 268.683594 140.164062 265.636719 139.554688 260.15625 139.554688 C 257.71875 139.554688 254.671875 138.945312 251.625 138.945312 C 251.625 138.945312 251.625 139.554688 251.625 140.164062 C 251.625 140.773438 251.625 140.773438 251.625 141.382812 C 249.1875 141.382812 246.75 141.382812 244.3125 141.382812 C 241.878906 141.382812 239.441406 141.382812 237.003906 141.382812 C 237.003906 141.992188 237.003906 141.992188 237.003906 142.601562 C 237.003906 143.210938 237.003906 143.210938 237.003906 143.210938 C 236.394531 143.210938 235.785156 143.210938 235.175781 142.601562 C 233.957031 141.992188 233.347656 141.992188 233.347656 141.382812 C 233.347656 141.382812 233.347656 140.773438 233.347656 140.164062 C 228.472656 140.773438 224.207031 140.773438 219.335938 141.382812 C 210.195312 141.992188 205.320312 141.382812 204.101562 140.164062 C 202.882812 138.945312 201.664062 138.335938 199.230469 138.335938 C 197.402344 138.335938 195.574219 138.945312 194.355469 140.164062 C 192.527344 140.773438 190.699219 141.382812 187.042969 141.382812 C 183.386719 141.382812 181.558594 140.773438 180.34375 140.164062 C 179.734375 139.554688 178.515625 139.554688 177.90625 140.773438 C 176.6875 141.992188 168.765625 141.992188 152.925781 141.992188 C 137.695312 141.382812 129.164062 141.992188 126.726562 142.601562 C 124.898438 143.210938 123.070312 143.210938 121.242188 142.601562 C 119.414062 141.992188 116.980469 141.992188 113.324219 143.210938 C 109.667969 144.429688 106.011719 144.429688 101.136719 143.210938 C 96.265625 141.992188 93.828125 141.992188 93.21875 142.601562 C 92.609375 143.210938 92 143.210938 90.78125 143.210938 C 90.171875 143.210938 90.171875 143.210938 89.5625 142.601562 C 89.5625 143.210938 89.5625 143.210938 89.5625 143.210938 C 89.5625 143.210938 89.5625 143.820312 89.5625 144.429688 C 89.5625 143.820312 88.953125 143.820312 88.34375 143.210938 C 87.734375 142.601562 84.078125 142.601562 77.378906 143.210938 C 70.675781 143.820312 67.019531 143.820312 66.410156 143.210938 C 65.800781 142.601562 63.363281 142.601562 59.707031 142.601562 C 56.054688 142.601562 53.007812 142.601562 51.789062 143.210938 C 51.789062 143.210938 52.398438 143.210938 52.398438 142.601562 C 54.226562 141.382812 57.273438 139.554688 59.707031 135.289062 C 62.753906 131.023438 64.582031 129.195312 66.410156 128.585938 C 68.238281 127.976562 70.066406 126.148438 71.285156 123.101562 C 73.113281 120.054688 76.769531 115.789062 83.46875 110.914062 C 89.5625 106.039062 93.21875 102.382812 94.4375 101.164062 C 95.65625 99.945312 95.65625 98.726562 95.65625 98.117188 C 95.046875 97.507812 97.484375 95.679688 101.136719 93.238281 C 105.402344 90.800781 107.839844 88.363281 109.058594 85.925781 C 110.277344 83.488281 112.105469 81.050781 113.933594 79.222656 C 115.761719 77.394531 118.199219 75.566406 120.632812 74.347656 C 122.460938 73.738281 124.898438 71.300781 126.726562 68.863281 C 128.554688 66.425781 130.382812 63.988281 132.210938 63.378906 C 134.039062 62.160156 134.648438 61.550781 134.648438 60.332031 C 134.648438 59.113281 135.257812 58.503906 137.085938 57.894531 C 138.914062 57.285156 140.738281 55.457031 143.785156 50.582031 C 146.832031 45.707031 149.269531 43.878906 151.097656 43.269531 C 152.925781 42.660156 154.753906 41.441406 157.191406 38.394531 C 159.019531 35.347656 163.28125 34.128906 169.984375 34.738281 C 176.6875 35.347656 179.734375 35.347656 180.949219 34.738281 C 182.167969 34.128906 183.386719 34.128906 185.824219 35.347656 C 188.261719 36.566406 190.089844 36.566406 192.527344 35.347656 C 194.964844 34.128906 196.792969 34.128906 198.011719 34.738281 C 199.230469 35.347656 201.058594 35.347656 202.882812 34.738281 C 204.710938 34.128906 205.929688 34.128906 206.539062 34.738281 C 207.148438 35.347656 211.414062 35.957031 218.726562 35.957031 C 226.035156 35.957031 230.300781 35.347656 231.519531 34.738281 C 232.738281 34.128906 233.957031 34.128906 234.566406 34.738281 C 235.175781 35.347656 237.613281 35.347656 241.878906 35.347656 C 245.53125 34.738281 247.96875 35.347656 248.578125 35.957031 C 249.1875 36.566406 250.40625 36.566406 252.234375 35.347656 C 254.0625 34.128906 255.890625 34.128906 258.328125 34.128906 C 260.15625 34.128906 262.59375 34.738281 266.246094 35.347656 C 268.074219 35.957031 269.292969 36.566406 271.121094 37.175781 C 271.121094 36.566406 271.121094 36.566406 271.121094 35.957031 C 271.121094 35.957031 271.121094 35.347656 271.121094 34.738281 C 272.339844 34.738281 274.167969 34.738281 275.386719 35.347656 C 277.824219 35.957031 280.871094 35.347656 284.523438 34.738281 C 288.179688 34.128906 290.617188 33.519531 292.445312 34.128906 C 294.882812 34.738281 296.710938 34.738281 299.148438 33.519531 C 300.976562 32.910156 304.023438 32.910156 307.066406 33.519531 C 310.113281 34.738281 318.644531 34.738281 332.046875 34.128906 C 346.058594 33.519531 353.371094 33.519531 355.199219 34.738281 C 357.027344 35.957031 359.464844 35.957031 362.511719 34.738281 C 365.558594 33.519531 369.820312 33.519531 375.914062 34.738281 C 382.007812 35.957031 385.664062 35.957031 387.488281 35.347656 C 389.925781 34.738281 392.972656 34.738281 397.238281 34.738281 C 401.503906 35.347656 405.160156 34.738281 408.203125 33.519531 C 411.25 32.910156 413.6875 32.910156 416.125 33.519531 C 418.5625 34.738281 425.875 34.738281 438.667969 34.128906 C 451.460938 33.519531 458.164062 33.519531 458.164062 34.128906 C 458.773438 34.738281 459.382812 35.347656 461.820312 35.347656 C 463.039062 35.347656 464.257812 35.347656 464.867188 35.347656 C 464.867188 34.738281 464.867188 34.738281 464.867188 34.128906 C 467.304688 30.46875 467.304688 29.859375 467.304688 29.859375 Z M 703.695312 41.441406 C 703.695312 46.316406 703.695312 50.582031 703.695312 55.457031 C 703.695312 64.597656 704.304688 70.691406 704.914062 73.738281 C 705.523438 76.175781 705.523438 79.222656 704.914062 82.878906 C 704.304688 85.925781 704.304688 91.410156 705.523438 98.726562 C 706.742188 106.039062 706.742188 113.351562 706.132812 120.054688 C 705.523438 126.757812 705.523438 131.023438 706.742188 132.242188 C 707.351562 132.851562 707.351562 134.070312 707.960938 134.679688 C 707.351562 134.679688 707.351562 135.289062 707.351562 135.289062 C 706.742188 135.898438 706.132812 138.335938 705.523438 143.210938 C 705.523438 148.085938 706.132812 157.839844 707.351562 171.855469 C 708.570312 185.871094 708.570312 196.839844 707.960938 204.761719 C 707.351562 212.683594 707.351562 218.171875 707.960938 220 C 708.570312 221.828125 708.570312 224.265625 707.960938 226.09375 C 707.351562 227.921875 707.351562 229.140625 707.960938 229.75 C 708.570312 230.359375 709.179688 232.1875 709.179688 235.84375 C 709.179688 239.5 708.570312 242.546875 707.960938 244.375 C 707.351562 246.203125 707.351562 247.421875 707.960938 248.03125 C 708.570312 248.640625 709.179688 250.46875 709.179688 255.34375 C 709.179688 260.21875 708.570312 263.265625 707.960938 264.484375 C 707.351562 266.3125 707.351562 267.53125 708.570312 268.140625 C 709.179688 268.75 709.789062 270.578125 710.398438 272.40625 C 711.007812 274.234375 710.398438 279.722656 709.789062 289.472656 C 708.570312 299.222656 708.570312 307.144531 709.789062 313.847656 C 710.398438 319.941406 710.398438 324.207031 709.789062 325.425781 C 708.570312 327.253906 708.570312 329.082031 708.570312 332.128906 C 708.570312 334.566406 709.179688 336.394531 709.789062 337.003906 C 710.398438 337.003906 710.398438 341.273438 710.398438 348.585938 C 710.398438 355.898438 710.398438 360.164062 711.007812 361.992188 C 711.617188 363.820312 711.617188 365.039062 711.007812 366.867188 C 710.398438 368.695312 710.398438 371.742188 711.007812 376.617188 C 711.617188 381.492188 711.617188 385.757812 711.007812 388.804688 C 710.398438 392.460938 710.398438 394.898438 711.007812 397.335938 C 711.617188 399.773438 711.617188 406.480469 711.617188 418.058594 C 711.617188 429.027344 711.617188 435.730469 712.226562 437.558594 C 712.835938 439.386719 712.835938 441.214844 712.226562 444.261719 C 711.617188 447.308594 711.617188 449.746094 712.835938 452.183594 C 713.445312 454.621094 714.054688 458.886719 714.054688 464.375 C 714.054688 469.859375 713.445312 473.515625 712.835938 474.734375 C 712.226562 475.953125 712.226562 477.78125 712.835938 480.828125 C 713.445312 483.265625 713.445312 485.703125 712.835938 488.140625 C 712.226562 490.578125 712.226562 491.796875 713.445312 493.015625 C 714.054688 494.234375 714.054688 496.671875 713.445312 501.546875 C 712.226562 506.421875 712.226562 510.078125 713.445312 511.90625 C 714.054688 513.734375 714.664062 519.21875 714.664062 528.363281 C 714.054688 537.503906 714.664062 542.988281 715.269531 544.207031 C 716.488281 545.425781 716.488281 547.253906 715.269531 549.691406 C 714.664062 552.128906 714.054688 555.175781 714.664062 558.222656 C 715.269531 561.878906 714.664062 563.707031 713.445312 563.707031 C 712.226562 564.316406 711.617188 564.925781 711.007812 566.753906 C 710.398438 568.582031 708.570312 570.410156 706.132812 572.238281 C 703.695312 574.066406 700.648438 576.503906 698.210938 580.160156 C 695.773438 583.816406 693.339844 585.644531 691.511719 586.253906 C 689.683594 586.863281 688.464844 588.085938 687.855469 589.304688 C 687.246094 590.523438 686.027344 591.742188 684.199219 592.960938 C 682.371094 594.179688 680.542969 596.007812 679.324219 598.445312 C 678.105469 601.492188 675.667969 603.320312 672.625 605.148438 C 668.96875 606.976562 665.921875 609.414062 662.265625 613.679688 C 658.609375 617.945312 656.171875 620.382812 654.953125 620.382812 C 653.734375 620.992188 652.519531 622.210938 650.691406 625.257812 C 648.863281 628.304688 647.644531 629.523438 645.816406 630.132812 C 643.988281 630.742188 641.550781 633.179688 638.503906 637.445312 C 635.457031 641.710938 631.804688 645.367188 628.148438 647.195312 C 624.492188 649.027344 622.054688 651.464844 620.226562 655.121094 C 618.398438 658.777344 615.960938 660.605469 613.523438 662.433594 C 611.089844 664.261719 609.871094 665.480469 608.652344 667.308594 C 608.042969 669.136719 606.824219 670.355469 603.777344 671.574219 C 601.339844 672.792969 597.683594 675.839844 593.417969 680.714844 C 590.984375 683.152344 589.15625 685.589844 587.328125 688.027344 C 587.328125 686.808594 586.71875 685.589844 586.71875 683.761719 C 586.71875 680.714844 586.71875 678.277344 587.328125 676.449219 C 587.9375 674.621094 587.9375 673.402344 587.328125 672.792969 C 586.71875 672.792969 586.71875 672.792969 586.109375 672.183594 C 586.71875 672.183594 586.71875 671.574219 587.328125 671.574219 C 587.328125 671.574219 587.9375 671.574219 588.546875 670.964844 C 587.9375 670.964844 587.9375 670.964844 587.328125 670.355469 C 586.71875 670.355469 586.71875 669.746094 586.109375 669.746094 C 586.71875 669.136719 586.71875 668.527344 587.328125 667.917969 C 587.9375 666.699219 587.9375 663.652344 587.328125 659.386719 C 586.71875 654.511719 586.71875 652.683594 587.328125 652.074219 C 587.9375 651.460938 587.9375 650.855469 587.9375 649.632812 C 587.9375 648.414062 587.9375 647.804688 589.15625 647.195312 C 589.765625 647.195312 589.765625 646.585938 590.375 646.585938 C 590.375 646.585938 589.765625 646.585938 589.15625 646.585938 C 588.546875 646.585938 588.546875 646.585938 588.546875 646.585938 C 588.546875 644.757812 588.546875 643.539062 588.546875 641.710938 C 588.546875 638.054688 587.9375 636.226562 587.328125 635.007812 C 586.71875 634.398438 586.71875 628.304688 586.71875 617.335938 C 587.328125 606.367188 586.71875 600.273438 586.109375 599.664062 C 585.5 599.054688 585.5 597.835938 585.5 596.007812 C 585.5 594.179688 585.5 593.570312 584.890625 592.960938 C 584.890625 592.960938 584.28125 592.960938 583.671875 592.351562 C 584.28125 591.742188 584.890625 590.523438 585.5 589.914062 C 586.71875 588.082031 587.328125 586.863281 586.71875 585.035156 C 586.71875 583.207031 586.71875 580.769531 587.9375 577.113281 C 588.546875 573.457031 588.546875 570.410156 587.328125 567.363281 C 586.109375 564.316406 585.5 561.878906 586.109375 560.050781 C 586.71875 558.222656 586.71875 554.566406 586.109375 549.082031 C 585.5 543.597656 585.5 539.941406 586.109375 536.894531 C 586.71875 534.457031 586.71875 532.019531 586.109375 530.191406 C 585.5 528.359375 585.5 527.75 586.109375 527.140625 C 586.71875 526.53125 587.328125 525.3125 587.328125 523.484375 C 587.328125 521.65625 586.71875 519.828125 586.109375 519.21875 C 585.5 518.609375 584.890625 516.171875 584.890625 512.515625 C 584.890625 508.25 585.5 505.8125 586.109375 504.59375 C 586.71875 503.375 586.71875 502.765625 586.109375 502.15625 C 585.5 501.546875 584.890625 497.890625 584.890625 491.796875 C 584.890625 488.75 584.28125 485.703125 584.28125 482.65625 C 584.890625 482.65625 584.890625 482.65625 585.5 482.65625 C 586.109375 482.65625 586.109375 482.65625 586.71875 482.65625 C 586.71875 480.828125 586.71875 479 586.71875 477.78125 C 586.71875 475.953125 586.71875 474.734375 586.71875 472.90625 C 586.71875 472.90625 587.328125 472.90625 587.9375 472.90625 C 588.546875 472.90625 589.15625 471.078125 589.15625 468.027344 C 589.15625 464.980469 589.15625 462.542969 587.9375 461.324219 C 586.71875 460.105469 586.71875 458.277344 586.71875 455.230469 C 587.328125 452.183594 586.71875 450.355469 586.109375 449.136719 C 585.5 447.917969 585.5 446.089844 586.109375 443.042969 C 586.109375 441.214844 586.71875 439.996094 587.328125 438.167969 C 586.71875 438.167969 586.71875 438.167969 586.109375 438.167969 C 585.5 438.167969 585.5 438.167969 584.890625 438.167969 C 584.890625 433.902344 584.890625 429.636719 585.5 425.371094 C 586.109375 416.839844 585.5 411.964844 584.890625 410.136719 C 584.28125 408.304688 584.28125 407.085938 585.5 405.257812 C 586.109375 404.648438 586.71875 403.429688 587.328125 402.820312 C 586.71875 402.820312 586.71875 402.820312 586.109375 402.820312 C 585.5 402.820312 584.890625 402.210938 584.890625 400.992188 C 584.28125 399.773438 584.890625 399.164062 585.5 398.554688 C 586.71875 397.945312 587.328125 396.726562 587.328125 394.289062 C 587.328125 392.460938 586.71875 390.632812 586.109375 390.023438 C 585.5 389.414062 585.5 387.585938 586.109375 385.148438 C 586.71875 382.710938 586.71875 381.492188 586.109375 380.882812 C 585.5 380.882812 585.5 378.445312 586.109375 374.789062 C 586.71875 371.132812 586.71875 368.085938 586.109375 366.257812 C 585.5 364.429688 585.5 362.601562 586.71875 361.382812 C 587.9375 360.773438 587.9375 358.335938 586.71875 354.070312 C 586.109375 350.414062 586.109375 346.148438 586.71875 342.488281 C 587.9375 338.222656 587.9375 333.957031 587.328125 328.472656 C 586.71875 322.988281 586.71875 320.550781 587.328125 319.941406 C 587.9375 319.332031 587.9375 318.113281 586.71875 316.894531 C 586.109375 315.066406 585.5 313.847656 586.109375 312.019531 C 586.71875 310.191406 586.71875 305.925781 586.71875 299.832031 C 586.71875 293.128906 586.71875 290.082031 587.328125 289.472656 C 587.9375 288.863281 587.9375 283.988281 587.328125 274.234375 C 586.71875 264.484375 586.71875 259.609375 587.9375 258.390625 C 588.546875 257.78125 589.765625 255.953125 589.765625 253.515625 C 589.765625 251.6875 589.15625 249.25 587.9375 246.8125 C 586.71875 244.375 586.71875 241.328125 587.328125 237.671875 C 587.9375 234.015625 587.9375 231.578125 587.328125 229.75 C 586.71875 227.921875 586.71875 226.703125 587.328125 225.484375 C 587.9375 224.875 587.9375 224.875 587.9375 224.265625 C 587.328125 224.265625 587.328125 224.265625 587.328125 224.265625 C 586.71875 224.265625 586.109375 223.65625 585.5 222.433594 C 585.5 221.214844 585.5 220.605469 586.71875 219.996094 C 587.9375 219.386719 587.9375 218.167969 587.328125 216.949219 C 586.71875 215.121094 586.71875 212.074219 587.9375 207.808594 C 589.15625 203.542969 588.546875 200.496094 587.328125 199.277344 C 586.71875 198.667969 586.109375 198.058594 585.5 197.449219 C 586.109375 196.839844 586.71875 196.230469 587.328125 195.621094 C 588.546875 194.402344 589.15625 192.574219 589.15625 190.746094 C 589.15625 189.527344 589.15625 188.308594 589.15625 187.699219 C 589.15625 187.699219 588.546875 187.699219 587.9375 187.699219 C 587.328125 187.699219 587.328125 187.699219 587.328125 187.699219 C 587.328125 186.480469 587.328125 185.261719 587.9375 184.042969 C 588.546875 181.605469 587.9375 179.777344 587.328125 179.167969 C 586.71875 177.949219 586.71875 174.902344 587.328125 168.808594 C 587.9375 165.761719 587.9375 162.714844 587.9375 160.273438 C 587.328125 160.273438 587.328125 160.273438 587.328125 160.273438 C 586.71875 160.273438 586.109375 159.664062 585.5 158.445312 C 585.5 157.835938 585.5 157.226562 584.890625 156.617188 C 585.5 156.617188 585.5 156.617188 586.109375 156.617188 C 587.328125 156.617188 587.9375 156.007812 587.9375 154.179688 C 587.9375 152.351562 589.765625 149.914062 592.808594 147.476562 C 595.246094 144.429688 598.292969 142.601562 601.949219 140.773438 C 604.996094 138.945312 608.652344 135.898438 612.304688 131.632812 C 615.351562 127.367188 617.789062 124.929688 619.617188 124.320312 C 621.445312 123.710938 622.054688 122.492188 622.054688 121.273438 C 622.664062 119.445312 623.882812 117.617188 626.929688 114.570312 C 629.976562 111.523438 632.410156 109.695312 634.847656 108.476562 C 636.675781 107.257812 638.503906 106.039062 639.722656 104.210938 C 640.332031 102.382812 643.378906 99.332031 647.644531 95.066406 C 651.910156 90.800781 655.5625 87.753906 658.609375 85.925781 C 661.65625 84.097656 663.484375 82.269531 663.484375 80.441406 C 664.09375 78.613281 664.703125 77.394531 665.921875 77.394531 C 667.140625 76.785156 668.359375 76.175781 668.96875 74.957031 C 670.1875 73.128906 670.796875 72.519531 672.625 71.910156 C 674.449219 71.300781 676.886719 69.472656 680.542969 65.816406 C 684.199219 62.160156 686.636719 59.722656 687.246094 57.894531 C 688.464844 56.066406 690.292969 54.238281 693.339844 51.800781 C 696.382812 49.972656 697.601562 48.144531 697.601562 47.535156 C 697.601562 46.925781 697.601562 46.925781 696.992188 46.316406 C 697.601562 46.316406 697.601562 46.925781 697.601562 46.925781 C 698.210938 47.535156 699.429688 45.707031 700.648438 43.269531 C 702.476562 44.488281 703.085938 42.660156 703.695312 41.441406 Z M 478.878906 168.808594 C 481.316406 169.417969 483.753906 169.417969 486.191406 170.027344 C 491.0625 170.636719 495.328125 170.636719 499.59375 169.417969 C 503.859375 168.808594 506.90625 168.199219 509.949219 168.808594 C 512.996094 169.417969 515.433594 169.417969 517.261719 168.808594 C 519.089844 168.199219 520.917969 168.199219 522.746094 169.417969 C 524.574219 170.636719 528.226562 170.636719 533.710938 170.027344 C 539.195312 169.417969 542.851562 169.417969 544.070312 170.636719 C 545.289062 171.855469 547.726562 171.855469 550.160156 171.855469 C 551.378906 171.855469 552.597656 171.855469 553.816406 171.246094 C 553.816406 172.464844 553.816406 173.074219 553.816406 174.292969 C 553.816406 175.511719 553.816406 176.730469 553.816406 177.339844 C 553.816406 177.339844 553.207031 177.339844 552.597656 177.339844 C 551.988281 177.339844 551.378906 177.949219 551.378906 179.777344 C 551.378906 181.605469 551.378906 183.433594 552.597656 185.871094 C 553.207031 188.308594 553.816406 191.355469 553.816406 194.402344 C 553.816406 197.449219 553.207031 199.277344 552.597656 199.886719 C 551.988281 200.496094 551.988281 201.714844 552.597656 202.933594 C 553.207031 204.761719 553.207031 211.464844 552.597656 223.046875 C 551.988281 235.234375 551.988281 241.328125 552.597656 242.546875 C 553.207031 243.15625 553.816406 247.421875 553.816406 254.125 C 553.816406 257.78125 553.816406 260.828125 553.816406 264.484375 C 553.816406 264.484375 553.207031 264.484375 552.597656 264.484375 C 551.988281 264.484375 551.988281 264.484375 551.988281 264.484375 C 551.988281 268.140625 551.988281 271.796875 551.988281 275.453125 C 551.988281 282.769531 551.988281 286.425781 552.597656 287.035156 C 553.207031 287.035156 553.816406 289.472656 553.816406 292.519531 C 553.816406 295.566406 553.207031 300.441406 552.597656 306.535156 C 551.988281 312.019531 551.378906 315.675781 551.988281 316.285156 C 552.597656 317.503906 552.597656 319.332031 552.597656 322.988281 C 551.988281 326.644531 552.597656 329.082031 553.207031 329.691406 C 553.816406 330.300781 553.816406 334.566406 553.207031 341.882812 C 552.597656 349.804688 552.597656 353.460938 553.207031 353.460938 C 553.816406 354.070312 554.425781 356.507812 554.425781 361.382812 C 554.425781 363.820312 554.425781 366.257812 554.425781 368.695312 C 554.425781 368.695312 553.816406 368.695312 553.207031 368.695312 C 552.597656 368.695312 551.988281 369.914062 551.988281 371.742188 C 551.988281 374.179688 551.988281 379.054688 553.207031 387.585938 C 553.816406 395.507812 553.816406 404.042969 552.597656 412.574219 C 551.378906 421.105469 551.378906 426.589844 552.597656 429.027344 C 553.816406 431.464844 553.816406 437.558594 552.597656 447.308594 C 551.378906 457.058594 551.378906 462.546875 551.988281 463.765625 C 553.207031 464.984375 553.207031 467.421875 553.207031 471.6875 C 552.597656 475.953125 553.207031 478.390625 553.816406 479 C 554.425781 479.609375 555.035156 481.4375 555.035156 483.875 C 555.035156 486.3125 554.425781 488.140625 553.816406 489.359375 C 553.207031 490.578125 551.988281 493.015625 551.988281 496.0625 C 551.988281 499.71875 551.988281 501.546875 552.597656 501.546875 C 553.207031 501.546875 553.816406 502.765625 553.816406 505.203125 C 553.816406 507.640625 553.816406 510.6875 553.207031 514.953125 C 552.597656 519.21875 552.597656 522.878906 553.816406 525.925781 C 554.425781 528.363281 554.425781 531.410156 553.816406 533.847656 C 553.207031 536.285156 552.597656 541.769531 553.207031 549.082031 C 553.816406 557.003906 553.816406 561.878906 552.597656 564.925781 C 551.988281 567.363281 551.988281 569.800781 553.207031 571.628906 C 554.425781 573.457031 554.425781 577.113281 553.816406 583.210938 C 553.207031 589.914062 553.207031 594.179688 553.816406 597.226562 C 554.425781 599.664062 554.425781 602.101562 553.207031 603.929688 C 551.988281 605.757812 551.988281 608.195312 551.988281 611.851562 C 551.988281 614.898438 552.597656 618.554688 553.207031 621.601562 C 553.816406 623.429688 553.816406 624.648438 554.425781 626.476562 C 554.425781 626.476562 553.816406 626.476562 553.207031 626.476562 C 552.597656 626.476562 551.988281 627.085938 551.988281 628.304688 C 551.988281 629.523438 551.988281 631.960938 552.597656 635.007812 C 553.207031 638.054688 553.207031 640.492188 552.597656 641.101562 C 551.988281 641.714844 551.988281 644.152344 551.988281 647.808594 C 552.597656 651.464844 551.988281 654.511719 551.378906 655.730469 C 550.769531 656.949219 550.769531 658.167969 551.378906 659.386719 C 551.988281 660.605469 551.988281 664.261719 551.988281 669.746094 C 551.988281 672.183594 551.988281 675.230469 551.378906 677.667969 C 551.378906 677.667969 551.988281 677.667969 552.597656 677.058594 C 553.207031 677.058594 553.207031 676.449219 553.207031 676.449219 C 553.207031 678.886719 553.207031 681.324219 553.207031 683.761719 C 553.207031 688.636719 553.207031 691.683594 552.597656 692.292969 C 551.988281 693.511719 551.988281 694.730469 553.207031 696.558594 C 553.816406 697.167969 554.425781 698.386719 555.035156 698.996094 C 551.378906 698.996094 548.335938 698.386719 544.679688 697.777344 C 537.976562 697.167969 533.710938 697.167969 531.882812 697.167969 C 530.054688 697.167969 528.835938 698.386719 528.226562 698.996094 C 527.621094 699.605469 527.621094 699.605469 527.011719 700.214844 C 526.402344 699.605469 525.792969 699.605469 525.183594 698.996094 C 523.964844 697.777344 522.746094 697.167969 520.308594 697.167969 C 518.480469 697.167969 515.433594 697.777344 511.167969 698.996094 C 506.90625 699.605469 503.25 699.605469 499.59375 698.996094 C 496.546875 697.777344 484.363281 697.167969 463.648438 697.167969 C 442.933594 696.558594 431.964844 697.167969 431.355469 697.777344 C 430.746094 698.386719 425.265625 698.386719 415.515625 698.386719 C 405.765625 697.777344 400.285156 698.386719 398.457031 699.605469 C 397.238281 700.214844 396.019531 700.824219 395.410156 700.214844 C 394.800781 699.605469 392.363281 699.605469 388.097656 700.214844 C 383.835938 700.824219 381.398438 700.824219 381.398438 700.214844 C 381.398438 699.605469 377.132812 698.996094 369.820312 698.996094 C 362.511719 698.996094 358.246094 699.605469 357.636719 700.214844 C 357.027344 700.824219 354.589844 700.214844 351.542969 698.996094 C 349.714844 698.386719 347.886719 697.777344 346.667969 697.167969 C 346.667969 697.777344 347.277344 697.777344 347.277344 698.386719 C 347.277344 698.996094 347.277344 698.996094 347.886719 699.605469 C 347.277344 698.996094 346.667969 698.996094 346.058594 698.386719 C 344.839844 697.777344 343.625 697.777344 341.796875 698.996094 C 339.96875 699.605469 333.875 699.605469 323.515625 698.996094 C 312.550781 697.777344 305.847656 698.386719 303.410156 699.605469 C 300.976562 700.824219 299.148438 700.824219 297.929688 700.214844 C 296.710938 699.605469 294.273438 699.605469 289.398438 700.214844 C 284.523438 701.433594 280.871094 701.433594 279.042969 700.214844 C 276.605469 699.605469 268.074219 698.996094 252.84375 699.605469 C 237.613281 700.214844 227.253906 700.214844 222.378906 698.996094 C 217.507812 697.777344 213.242188 698.386719 208.367188 699.605469 C 203.492188 700.824219 201.054688 701.433594 200.445312 700.824219 C 199.839844 700.214844 194.964844 699.605469 185.824219 699.605469 C 176.6875 699.605469 170.59375 700.214844 167.546875 700.824219 C 164.5 701.433594 162.671875 701.433594 161.453125 700.214844 C 160.84375 699.605469 158.410156 698.996094 153.535156 698.996094 C 149.269531 698.996094 146.222656 699.605469 145.003906 700.214844 C 143.785156 700.824219 140.128906 700.824219 135.257812 700.824219 C 130.382812 700.824219 127.335938 700.824219 126.726562 701.433594 C 126.117188 702.046875 124.289062 702.65625 121.242188 702.65625 C 118.195312 702.65625 115.761719 702.042969 114.542969 700.824219 C 112.714844 700.214844 109.667969 699.605469 104.792969 699.605469 C 99.917969 699.605469 96.875 700.214844 95.046875 700.824219 C 93.21875 701.433594 86.515625 702.042969 74.332031 702.042969 C 62.144531 702.65625 55.445312 702.65625 54.835938 703.265625 C 53.617188 703.875 53.007812 703.875 51.789062 702.652344 C 50.570312 702.042969 48.742188 701.433594 45.695312 701.433594 C 42.648438 701.433594 40.210938 696.558594 39.601562 687.417969 C 38.992188 678.277344 38.992188 672.183594 39.601562 669.746094 C 40.210938 667.308594 40.210938 665.480469 38.992188 664.871094 C 37.773438 664.261719 37.773438 663.042969 38.992188 661.824219 C 40.210938 660.605469 40.210938 657.558594 39.601562 652.074219 C 38.992188 647.199219 38.992188 644.152344 39.601562 643.542969 C 40.210938 642.933594 40.210938 642.933594 40.820312 642.324219 C 40.210938 641.710938 40.210938 641.710938 39.601562 641.101562 C 38.382812 640.492188 38.382812 639.273438 38.992188 637.445312 C 39.601562 635.617188 39.601562 630.132812 39.601562 620.382812 C 39.601562 610.632812 39.601562 604.539062 40.210938 600.882812 C 40.820312 597.226562 40.820312 594.789062 39.601562 593.570312 C 38.382812 592.351562 38.382812 590.523438 39.601562 588.695312 C 40.820312 586.867188 40.820312 581.382812 40.210938 574.066406 C 39.601562 566.753906 39.601562 561.269531 40.210938 558.222656 C 40.820312 556.394531 40.820312 555.175781 41.429688 553.347656 C 40.820312 553.347656 40.820312 553.347656 40.210938 553.347656 C 39.601562 553.347656 39.601562 553.347656 39.601562 553.347656 C 39.601562 551.519531 39.601562 549.691406 40.210938 547.253906 C 40.820312 543.597656 40.210938 541.160156 39.601562 540.550781 C 38.992188 539.941406 38.992188 528.363281 39.601562 505.8125 C 40.210938 483.265625 40.210938 471.078125 39.601562 469.859375 C 38.992188 468.640625 38.992188 466.203125 39.601562 463.765625 C 40.210938 461.328125 40.210938 458.28125 39.601562 455.230469 C 38.992188 452.183594 38.992188 449.746094 40.210938 449.136719 C 41.429688 448.527344 41.429688 446.699219 41.429688 444.261719 C 41.429688 441.824219 40.820312 440.605469 40.210938 439.386719 C 39.601562 438.167969 39.601562 436.339844 39.601562 431.464844 C 39.601562 426.589844 39.601562 424.152344 38.992188 423.542969 C 38.382812 422.933594 38.382812 421.714844 38.992188 420.496094 C 39.601562 419.277344 39.601562 411.964844 38.992188 399.167969 C 38.382812 386.976562 38.382812 376.617188 38.992188 369.304688 C 39.601562 365.648438 39.601562 361.992188 39.601562 358.335938 C 38.992188 358.335938 38.992188 358.335938 38.992188 358.335938 C 38.992188 358.335938 38.382812 358.335938 37.773438 358.335938 C 37.773438 357.117188 37.773438 355.898438 37.773438 354.679688 C 37.773438 352.242188 38.382812 345.539062 38.992188 333.960938 C 39.601562 322.378906 40.210938 315.675781 38.992188 313.238281 C 37.773438 310.800781 37.773438 307.753906 37.773438 302.878906 C 37.773438 298.003906 37.773438 295.566406 37.164062 294.957031 C 36.554688 294.347656 36.554688 292.519531 37.773438 289.472656 C 38.382812 286.425781 38.992188 283.988281 38.382812 282.769531 C 37.773438 281.550781 37.164062 279.113281 37.164062 277.285156 C 37.164062 274.847656 37.773438 274.238281 38.382812 273.628906 C 38.992188 273.628906 38.992188 273.019531 38.992188 273.019531 C 38.382812 273.019531 38.382812 273.019531 38.382812 273.019531 C 38.382812 273.019531 37.773438 273.019531 37.164062 273.019531 C 37.164062 271.1875 37.164062 269.359375 37.164062 267.53125 C 37.164062 263.875 37.773438 262.046875 38.382812 261.4375 C 38.992188 260.828125 38.992188 259.609375 38.992188 256.5625 C 38.992188 253.515625 38.382812 251.6875 37.773438 250.46875 C 36.554688 249.25 36.554688 246.8125 36.554688 241.9375 C 36.554688 237.0625 37.164062 235.234375 37.773438 234.625 C 38.382812 234.015625 38.382812 233.40625 38.382812 231.578125 C 37.773438 229.75 38.382812 228.53125 38.992188 227.921875 C 39.601562 227.3125 40.210938 224.875 40.210938 220.609375 C 40.820312 216.34375 40.210938 213.90625 38.992188 212.6875 C 37.773438 211.46875 37.773438 210.859375 38.382812 209.640625 C 38.992188 209.027344 38.992188 204.761719 38.992188 198.058594 C 38.992188 191.355469 38.992188 187.699219 38.382812 187.699219 C 37.773438 187.089844 37.164062 185.261719 37.164062 181.605469 C 37.164062 177.339844 40.820312 175.511719 47.523438 174.902344 C 54.835938 174.292969 59.707031 174.292969 63.363281 175.511719 C 65.191406 176.121094 66.410156 176.730469 68.238281 177.339844 C 68.238281 176.730469 68.238281 176.730469 68.238281 176.121094 C 68.238281 175.511719 68.238281 175.511719 68.238281 174.902344 C 69.457031 174.902344 70.675781 175.511719 71.285156 175.511719 C 73.722656 176.121094 74.332031 175.511719 74.941406 174.902344 C 75.550781 174.292969 77.378906 174.292969 81.640625 174.902344 C 85.90625 175.511719 88.953125 175.511719 90.171875 174.292969 C 91.390625 173.074219 92.609375 173.074219 93.21875 173.683594 C 93.828125 174.292969 94.4375 174.292969 95.65625 173.683594 C 96.875 173.074219 98.089844 173.074219 99.308594 173.683594 C 101.136719 174.292969 102.355469 174.292969 104.183594 173.074219 C 105.402344 171.855469 109.058594 171.855469 113.933594 171.855469 C 119.414062 171.855469 123.070312 172.464844 124.898438 173.074219 C 126.726562 173.683594 129.773438 173.683594 134.648438 173.683594 C 137.085938 173.683594 139.519531 173.683594 141.957031 173.074219 C 141.957031 173.683594 141.957031 173.683594 141.957031 174.292969 C 141.957031 174.902344 142.566406 175.511719 143.785156 175.511719 C 145.003906 176.121094 146.222656 176.121094 148.660156 175.511719 C 150.488281 175.511719 151.707031 174.292969 152.925781 173.683594 C 154.144531 173.074219 162.0625 172.464844 176.6875 172.464844 C 191.917969 172.464844 199.839844 173.074219 201.054688 173.683594 C 202.882812 174.902344 204.710938 174.902344 207.148438 174.902344 C 209.585938 174.902344 212.023438 174.292969 214.460938 173.683594 C 216.898438 173.074219 219.945312 172.464844 223.597656 172.464844 C 227.253906 173.074219 230.910156 172.464844 233.957031 171.855469 C 237.003906 171.246094 240.660156 171.246094 244.3125 172.464844 C 247.96875 173.683594 250.40625 173.683594 251.015625 172.464844 C 251.625 171.855469 257.71875 171.246094 268.683594 171.855469 C 279.652344 171.855469 285.132812 171.855469 285.742188 171.246094 C 286.351562 170.636719 286.960938 170.636719 288.789062 171.246094 C 290.617188 171.855469 297.929688 171.855469 311.332031 171.855469 C 324.734375 171.246094 332.046875 171.855469 334.484375 172.464844 C 336.921875 173.683594 338.75 173.683594 340.578125 172.464844 C 342.40625 171.855469 346.058594 171.246094 351.542969 171.246094 C 357.027344 171.246094 361.292969 170.636719 364.945312 170.027344 C 367.992188 168.808594 370.429688 168.808594 371.648438 170.027344 C 372.867188 171.246094 378.960938 171.246094 389.925781 170.027344 C 400.894531 168.808594 406.984375 168.808594 407.59375 170.027344 C 408.8125 171.246094 411.859375 171.246094 416.734375 171.246094 C 422.21875 171.246094 426.480469 170.636719 430.136719 170.027344 C 433.792969 169.417969 438.667969 169.417969 444.152344 169.417969 C 450.242188 170.027344 453.289062 169.417969 453.289062 168.808594 C 453.289062 168.808594 453.898438 168.199219 453.898438 167.589844 C 454.507812 168.199219 455.117188 168.199219 455.726562 168.808594 C 456.945312 169.417969 460.601562 169.417969 466.085938 169.417969 C 471.566406 169.417969 475.222656 169.417969 476.441406 168.808594 C 477.660156 168.199219 478.269531 168.199219 478.269531 167.589844 C 478.878906 169.417969 478.878906 168.808594 478.878906 168.808594 Z M 478.878906 168.808594 " fill-opacity="1" fill-rule="evenodd"/><path fill="#000000" d="M 509.339844 187.699219 C 507.515625 189.527344 506.296875 191.355469 506.296875 193.183594 C 505.6875 195.011719 504.46875 197.449219 502.03125 200.496094 C 499.59375 203.542969 497.765625 205.980469 497.15625 208.417969 C 496.546875 210.855469 495.328125 212.683594 494.109375 213.292969 C 492.890625 213.902344 492.28125 214.511719 492.890625 215.734375 C 493.5 216.953125 492.890625 217.5625 491.671875 218.78125 C 490.453125 220 490.453125 221.828125 491.0625 224.265625 C 492.28125 226.703125 493.5 227.921875 494.71875 228.53125 C 496.546875 229.140625 497.15625 228.53125 498.375 227.921875 C 499.59375 227.3125 502.640625 223.046875 507.515625 215.734375 C 512.996094 207.808594 516.042969 201.714844 517.871094 196.839844 C 519.699219 191.964844 519.699219 188.917969 518.480469 187.089844 C 517.871094 185.261719 516.652344 184.652344 514.824219 184.652344 C 512.996094 184.652344 511.167969 185.871094 509.339844 187.699219 Z M 509.339844 187.699219 " fill-opacity="1" fill-rule="evenodd"/><path fill="#000000" d="M 69.457031 196.839844 C 68.238281 199.277344 68.238281 201.714844 68.847656 202.933594 C 69.457031 204.761719 70.675781 209.027344 71.285156 215.121094 C 71.894531 221.21875 73.113281 224.875 74.332031 226.703125 C 75.550781 228.53125 76.769531 229.140625 79.203125 229.140625 C 81.03125 229.140625 82.25 228.53125 83.46875 227.3125 C 84.6875 226.09375 84.6875 222.4375 83.46875 215.730469 C 82.859375 209.027344 81.640625 204.152344 80.421875 200.496094 C 79.203125 196.839844 77.378906 195.011719 74.941406 194.402344 C 72.503906 193.792969 70.675781 194.402344 69.457031 196.839844 Z M 69.457031 196.839844 " fill-opacity="1" fill-rule="evenodd"/><path fill="#000000" d="M 522.746094 199.277344 C 521.527344 200.496094 520.917969 201.714844 520.308594 204.152344 C 520.308594 205.980469 518.480469 209.027344 514.824219 213.292969 C 511.167969 217.5625 509.949219 220.609375 509.949219 222.4375 C 509.949219 224.265625 510.558594 226.09375 511.777344 227.3125 C 512.996094 228.53125 514.824219 228.53125 516.652344 227.921875 C 518.480469 227.3125 520.308594 226.09375 522.136719 224.875 C 523.964844 223.65625 525.792969 220 528.839844 215.125 C 531.273438 209.636719 532.492188 205.980469 532.492188 204.152344 C 531.882812 202.324219 530.664062 200.496094 528.230469 199.886719 C 525.792969 198.058594 523.964844 198.058594 522.746094 199.277344 Z M 522.746094 199.277344 " fill-opacity="1" fill-rule="evenodd"/><path fill="#000000" d="M 54.835938 201.714844 C 53.007812 203.542969 53.007812 206.589844 53.617188 210.246094 C 54.835938 214.511719 56.054688 219.390625 57.878906 224.875 C 59.707031 230.96875 60.925781 234.015625 62.144531 235.234375 C 63.363281 236.453125 63.972656 237.0625 65.800781 237.671875 C 67.628906 238.28125 68.847656 237.671875 70.675781 235.84375 C 72.503906 234.015625 72.503906 230.359375 71.285156 223.65625 C 70.066406 216.949219 68.847656 213.292969 68.238281 212.074219 C 67.628906 210.855469 66.410156 209.027344 65.800781 205.980469 C 65.191406 202.933594 63.972656 201.105469 60.925781 199.886719 C 57.878906 199.277344 56.054688 199.886719 54.835938 201.714844 Z M 54.835938 201.714844 " fill-opacity="1" fill-rule="evenodd"/><path fill="#000000" d="M 292.445312 210.855469 C 289.398438 210.246094 286.351562 210.246094 283.304688 211.464844 C 279.652344 212.683594 277.214844 214.511719 275.386719 216.953125 C 273.558594 219.390625 272.339844 222.4375 272.339844 226.09375 C 272.339844 229.75 272.339844 232.1875 273.558594 234.015625 C 274.167969 235.84375 275.996094 237.671875 277.824219 238.890625 C 279.042969 239.5 279.652344 240.109375 280.261719 240.71875 C 279.042969 241.9375 277.824219 243.765625 277.214844 244.984375 C 275.386719 247.421875 274.167969 250.46875 273.558594 253.515625 C 272.949219 256.5625 273.558594 259.609375 274.777344 262.65625 C 275.386719 265.703125 276.605469 268.140625 278.433594 269.96875 C 280.261719 271.796875 282.089844 273.625 285.132812 274.84375 C 287.570312 276.0625 290.007812 276.671875 293.054688 276.671875 C 295.492188 276.671875 298.539062 275.453125 302.195312 273.015625 C 305.847656 270.578125 308.285156 266.921875 308.894531 262.046875 C 309.503906 257.171875 308.894531 252.90625 307.675781 249.859375 C 306.457031 246.8125 305.238281 244.984375 303.414062 243.765625 C 301.585938 242.546875 301.585938 240.71875 302.804688 238.890625 C 304.019531 237.0625 304.628906 234.015625 305.238281 229.75 C 305.847656 226.09375 304.628906 221.828125 301.585938 218.171875 C 297.929688 213.292969 294.882812 211.464844 292.445312 210.855469 Z M 286.960938 221.828125 C 288.179688 221.828125 289.398438 222.4375 291.226562 224.265625 C 293.054688 226.09375 293.054688 227.921875 292.445312 230.359375 C 291.835938 231.578125 291.835938 232.796875 291.226562 234.015625 C 290.007812 233.40625 288.789062 232.1875 287.570312 231.578125 C 285.132812 229.75 284.523438 227.921875 285.132812 225.484375 C 285.132812 223.046875 285.742188 221.828125 286.960938 221.828125 Z M 291.835938 248.03125 C 293.054688 248.640625 294.273438 250.46875 295.492188 252.90625 C 296.710938 255.34375 297.320312 257.78125 296.710938 259.609375 C 296.101562 261.4375 295.492188 262.65625 294.273438 263.265625 C 293.054688 263.875 291.835938 263.875 290.007812 263.875 C 288.179688 263.265625 286.960938 262.65625 285.742188 260.828125 C 284.523438 259 283.914062 256.5625 283.914062 254.125 C 284.523438 251.6875 285.132812 249.859375 286.960938 248.640625 C 288.789062 247.421875 290.617188 247.421875 291.835938 248.03125 Z M 291.835938 248.03125 " fill-opacity="1" fill-rule="evenodd"/><path fill="#000000" d="M 595.855469 373.570312 C 594.027344 375.398438 594.027344 384.539062 595.246094 402.824219 C 596.464844 420.496094 597.074219 432.074219 596.464844 436.339844 C 595.855469 441.214844 596.464844 443.652344 597.074219 444.871094 C 597.683594 445.480469 597.683594 448.527344 597.683594 452.183594 C 597.074219 456.449219 597.683594 459.496094 598.292969 461.933594 C 598.902344 464.375 598.902344 467.421875 598.292969 470.46875 C 597.683594 474.125 597.683594 477.171875 598.292969 480.828125 C 598.902344 483.875 598.902344 493.015625 598.902344 507.03125 C 598.902344 521.046875 598.902344 528.972656 600.121094 530.800781 C 600.730469 532.628906 602.558594 533.847656 604.996094 533.847656 C 606.824219 534.457031 608.652344 533.847656 609.871094 532.628906 C 610.480469 531.410156 611.085938 528.972656 610.480469 525.925781 C 609.871094 522.875 610.480469 521.046875 611.089844 519.828125 C 611.695312 518.609375 611.695312 499.109375 610.480469 460.714844 C 609.871094 422.324219 608.652344 399.164062 608.042969 390.023438 C 607.433594 380.882812 606.214844 375.398438 605.605469 374.179688 C 604.386719 372.960938 603.167969 372.351562 601.949219 371.742188 C 600.730469 371.132812 597.074219 372.351562 595.855469 373.570312 Z M 595.855469 373.570312 " fill-opacity="1" fill-rule="evenodd"/><path fill="#000000" d="M 296.710938 324.207031 C 291.835938 323.597656 288.789062 324.816406 286.960938 326.035156 C 285.132812 327.253906 283.914062 327.863281 282.699219 327.253906 C 282.089844 327.253906 282.089844 326.644531 281.480469 326.644531 C 282.089844 326.644531 282.089844 327.253906 282.089844 327.863281 C 282.699219 328.472656 282.699219 328.472656 283.304688 329.082031 C 280.261719 329.691406 277.214844 329.691406 273.558594 330.300781 C 266.855469 330.910156 260.15625 332.738281 252.234375 335.175781 C 244.3125 338.222656 239.441406 341.273438 237.003906 344.320312 C 234.566406 347.976562 231.519531 350.414062 228.472656 351.632812 C 224.816406 353.460938 222.988281 354.679688 222.378906 355.898438 C 221.769531 356.507812 221.769531 357.117188 221.769531 357.726562 C 221.769531 357.726562 221.164062 357.117188 220.554688 357.117188 C 219.945312 356.507812 218.726562 358.335938 216.289062 360.773438 C 214.460938 363.210938 212.632812 364.429688 211.414062 364.429688 C 210.804688 364.429688 210.804688 363.820312 210.195312 363.820312 C 210.195312 364.429688 210.195312 364.429688 210.804688 365.039062 C 211.414062 365.648438 210.804688 366.867188 208.976562 368.695312 C 207.148438 370.523438 206.539062 372.351562 206.539062 374.179688 C 206.539062 376.007812 204.710938 378.445312 201.664062 381.492188 C 198.621094 384.539062 196.183594 387.585938 194.355469 391.242188 C 192.527344 394.898438 191.917969 397.335938 191.917969 399.164062 C 191.917969 401.601562 190.699219 404.042969 188.261719 407.089844 C 185.824219 410.746094 184.605469 413.792969 184.605469 416.839844 C 184.605469 418.667969 184.605469 419.886719 184.605469 421.714844 C 183.996094 421.714844 183.386719 421.714844 182.777344 421.714844 C 182.167969 421.714844 182.167969 421.714844 181.558594 421.714844 C 181.558594 422.933594 181.558594 424.152344 181.558594 424.761719 C 181.558594 425.980469 181.558594 426.589844 181.558594 427.808594 C 180.949219 427.808594 180.949219 427.808594 180.34375 427.199219 C 179.734375 426.589844 179.734375 427.199219 179.125 426.589844 C 179.125 427.199219 179.125 427.199219 179.734375 427.808594 C 179.734375 428.417969 180.34375 428.417969 180.34375 429.027344 C 180.34375 429.027344 179.734375 429.027344 179.125 429.027344 C 179.125 429.027344 178.515625 429.027344 177.90625 429.027344 C 178.515625 429.027344 178.515625 429.027344 179.125 429.636719 C 179.734375 430.246094 179.734375 430.855469 179.734375 432.683594 C 179.125 434.511719 179.734375 435.730469 180.34375 436.949219 C 180.949219 437.558594 180.34375 439.996094 178.515625 443.042969 C 176.6875 446.089844 176.6875 448.527344 176.6875 449.746094 C 177.296875 451.574219 177.296875 452.183594 177.90625 452.183594 C 178.515625 452.183594 178.515625 452.183594 179.125 452.183594 C 178.515625 452.183594 178.515625 452.183594 177.90625 452.792969 C 176.6875 453.402344 176.078125 455.230469 176.078125 459.496094 C 176.078125 463.765625 176.6875 468.03125 178.515625 471.6875 C 180.339844 475.34375 180.949219 477.78125 180.949219 479.609375 C 180.949219 480.828125 180.339844 482.65625 179.734375 483.875 C 178.515625 485.09375 178.515625 486.921875 178.515625 489.359375 C 179.125 491.796875 179.734375 493.015625 180.34375 493.015625 C 180.949219 493.015625 180.949219 493.015625 180.949219 493.015625 C 180.949219 494.234375 180.949219 494.84375 180.949219 496.0625 C 180.949219 497.28125 180.949219 497.890625 180.949219 498.5 C 180.949219 498.5 181.558594 498.5 182.167969 497.890625 C 182.167969 497.890625 182.777344 497.28125 183.386719 497.28125 C 183.386719 497.890625 183.386719 498.5 182.777344 499.109375 C 182.167969 500.328125 182.777344 500.9375 183.386719 501.546875 C 183.996094 501.546875 184.605469 502.765625 184.605469 505.203125 C 184.605469 507.640625 185.214844 510.6875 187.042969 514.953125 C 188.871094 519.21875 189.480469 521.65625 189.480469 522.875 C 188.871094 524.09375 190.089844 525.925781 192.527344 529.582031 C 194.355469 532.628906 195.574219 535.066406 194.964844 535.675781 C 194.355469 536.894531 194.964844 537.503906 196.183594 538.113281 C 197.402344 538.722656 198.621094 540.550781 199.839844 544.207031 C 201.054688 547.863281 202.273438 549.691406 203.492188 550.300781 C 204.710938 550.910156 205.320312 552.738281 205.929688 556.394531 C 206.539062 560.050781 207.757812 562.488281 210.195312 564.925781 C 212.023438 567.363281 213.242188 569.191406 213.242188 569.800781 C 213.242188 570.410156 214.460938 572.238281 216.289062 574.675781 C 218.117188 577.113281 221.160156 578.332031 224.207031 579.550781 C 227.863281 580.769531 229.691406 581.988281 230.910156 583.816406 C 232.128906 585.648438 232.738281 586.253906 233.957031 586.253906 C 235.175781 586.253906 237.003906 587.476562 238.832031 590.523438 C 240.660156 592.960938 242.484375 594.789062 244.921875 596.007812 C 247.359375 597.226562 248.578125 597.226562 249.796875 597.226562 C 250.40625 597.226562 250.40625 597.226562 251.015625 596.617188 C 251.015625 596.617188 251.015625 597.226562 251.015625 597.835938 C 251.015625 598.445312 251.015625 598.445312 251.015625 598.445312 C 251.625 598.445312 252.84375 598.445312 253.453125 597.835938 C 254.0625 597.226562 255.28125 597.835938 255.890625 597.226562 C 255.890625 597.835938 255.890625 597.835938 255.890625 597.835938 C 255.890625 598.445312 258.328125 599.664062 262.589844 601.492188 C 267.464844 603.320312 269.292969 604.539062 269.292969 605.148438 C 269.292969 605.148438 269.292969 605.757812 269.292969 606.367188 C 269.902344 605.757812 271.121094 605.757812 271.730469 605.148438 C 273.558594 604.539062 276.605469 605.148438 280.871094 606.976562 C 285.132812 608.804688 289.398438 609.414062 292.445312 608.195312 C 295.492188 606.976562 299.148438 606.367188 302.800781 606.976562 C 307.066406 607.585938 311.941406 607.585938 317.425781 606.367188 C 323.515625 605.148438 326.5625 603.929688 327.78125 603.320312 C 328.390625 602.101562 330.828125 602.101562 333.265625 602.101562 C 335.703125 602.710938 337.53125 602.101562 338.140625 600.882812 C 338.140625 600.273438 339.359375 599.664062 340.578125 599.664062 C 341.1875 599.664062 342.40625 600.273438 343.011719 600.273438 C 343.011719 599.664062 343.011719 599.664062 343.011719 599.054688 C 343.011719 597.835938 343.621094 597.226562 345.449219 596.007812 C 347.277344 595.398438 349.105469 594.789062 352.152344 594.179688 C 354.589844 593.570312 356.417969 592.960938 357.027344 592.351562 C 357.636719 591.742188 358.246094 591.132812 359.464844 591.132812 C 360.683594 591.132812 361.292969 589.914062 362.511719 588.085938 C 363.726562 586.253906 365.554688 584.425781 367.992188 583.207031 C 370.429688 581.988281 371.648438 580.769531 371.648438 579.550781 C 371.648438 578.332031 374.085938 576.503906 378.351562 574.675781 C 383.226562 572.238281 385.050781 570.410156 385.660156 568.582031 C 385.660156 567.972656 386.269531 566.753906 386.269531 565.535156 C 386.878906 565.535156 386.878906 566.144531 387.488281 566.144531 C 388.097656 566.144531 388.097656 566.144531 388.707031 566.753906 C 389.316406 564.925781 389.316406 563.707031 389.925781 561.878906 C 390.535156 558.222656 391.144531 557.003906 391.753906 557.003906 C 392.363281 557.003906 392.363281 557.003906 392.363281 557.003906 C 392.363281 556.394531 392.363281 556.394531 391.753906 555.785156 C 391.144531 555.175781 391.753906 555.175781 391.144531 554.566406 C 391.753906 554.566406 391.753906 554.566406 391.753906 554.566406 C 392.363281 554.566406 394.191406 552.128906 396.628906 547.863281 C 399.066406 542.988281 401.503906 540.550781 402.113281 540.550781 C 402.722656 539.941406 403.332031 539.332031 403.332031 538.113281 C 403.332031 537.503906 403.332031 536.894531 403.332031 536.285156 C 403.332031 536.285156 403.941406 536.285156 404.546875 536.894531 C 405.15625 536.894531 405.15625 537.503906 405.15625 537.503906 C 405.15625 536.894531 405.15625 536.285156 404.546875 535.675781 C 404.546875 535.066406 404.546875 535.066406 403.9375 534.457031 C 404.546875 534.457031 404.546875 534.457031 404.546875 534.457031 C 405.15625 534.457031 406.375 533.238281 407.59375 530.800781 C 408.8125 528.363281 409.421875 526.535156 408.8125 525.316406 C 408.8125 524.707031 408.8125 524.097656 408.203125 523.484375 C 408.8125 523.484375 408.8125 523.484375 409.421875 524.097656 C 410.03125 524.097656 410.03125 524.097656 410.640625 524.707031 C 410.03125 524.097656 410.03125 523.488281 409.421875 522.878906 C 409.421875 522.265625 408.8125 521.65625 408.203125 521.046875 C 408.8125 521.046875 408.8125 521.046875 409.421875 521.046875 C 410.03125 521.046875 410.03125 521.046875 410.640625 521.046875 C 410.640625 520.4375 410.640625 519.828125 410.03125 519.21875 C 409.421875 518 410.640625 516.171875 412.46875 513.734375 C 414.296875 511.296875 415.515625 508.25 415.515625 504.59375 C 416.125 500.9375 416.734375 498.5 417.34375 497.890625 C 417.953125 496.671875 418.5625 494.84375 418.5625 491.796875 C 417.953125 488.75 418.5625 486.921875 419.171875 486.921875 C 419.78125 486.921875 419.78125 486.921875 420.390625 486.3125 C 419.78125 485.703125 419.78125 485.09375 419.171875 484.484375 C 418.5625 483.265625 418.5625 482.046875 419.171875 480.828125 C 419.78125 479.609375 419.78125 475.953125 418.5625 469.25 C 417.34375 462.542969 417.34375 457.667969 417.34375 455.230469 C 417.953125 452.792969 417.34375 450.355469 416.125 449.746094 C 415.515625 449.136719 414.90625 447.308594 414.90625 444.871094 C 415.515625 442.433594 414.90625 437.558594 414.296875 430.855469 C 413.6875 427.199219 413.078125 423.542969 412.46875 419.886719 C 411.859375 419.886719 411.859375 420.496094 411.25 420.496094 C 410.640625 420.496094 410.640625 420.496094 410.03125 421.105469 C 410.03125 421.105469 410.03125 420.496094 410.640625 419.886719 C 411.25 419.277344 410.640625 417.449219 408.8125 415.011719 C 406.984375 412.574219 406.375 410.136719 406.984375 409.527344 C 406.984375 408.917969 407.59375 408.917969 407.59375 408.308594 C 406.984375 408.308594 406.984375 408.308594 406.375 408.308594 C 405.765625 408.308594 405.765625 408.308594 405.15625 408.308594 C 405.15625 407.089844 405.15625 405.871094 405.765625 405.261719 C 406.375 403.433594 405.765625 401.605469 404.546875 400.386719 C 403.332031 399.773438 402.722656 398.554688 402.722656 396.726562 C 402.722656 396.117188 402.722656 394.898438 402.722656 394.289062 C 402.113281 394.289062 401.503906 394.289062 400.894531 394.289062 C 399.675781 394.289062 399.066406 393.070312 398.457031 390.023438 C 397.847656 387.585938 396.628906 385.757812 395.410156 385.148438 C 394.191406 384.539062 393.582031 383.929688 394.191406 382.710938 C 394.191406 382.101562 394.191406 382.101562 394.800781 381.492188 C 394.191406 381.492188 394.191406 380.882812 393.582031 380.882812 C 392.972656 380.273438 391.753906 379.054688 390.535156 376.007812 C 389.316406 372.960938 387.488281 371.132812 385.660156 369.914062 C 383.226562 368.695312 380.789062 366.257812 377.132812 361.992188 C 373.476562 357.726562 371.039062 355.289062 369.820312 355.289062 C 368.601562 355.289062 367.992188 354.070312 367.382812 352.851562 C 366.773438 351.023438 366.164062 349.804688 365.554688 348.585938 C 364.945312 347.367188 363.726562 346.757812 363.121094 346.757812 C 362.511719 346.757812 362.511719 346.757812 361.902344 346.757812 C 361.902344 346.148438 361.902344 346.148438 361.902344 345.539062 C 361.902344 344.929688 360.683594 343.710938 357.636719 343.101562 C 355.199219 342.492188 352.761719 341.273438 350.933594 339.445312 C 349.105469 337.613281 347.886719 337.003906 346.058594 337.003906 C 345.449219 337.003906 344.839844 337.003906 344.230469 337.003906 C 344.230469 336.394531 344.230469 336.394531 344.230469 335.785156 C 344.230469 335.175781 344.230469 335.175781 344.230469 334.566406 C 342.40625 334.566406 340.578125 334.566406 338.75 334.566406 C 335.09375 334.566406 332.046875 333.957031 329 332.128906 C 326.5625 330.300781 322.90625 329.691406 318.644531 329.691406 C 314.378906 329.082031 311.941406 328.472656 311.941406 327.863281 C 311.941406 327.253906 311.941406 327.253906 311.332031 327.253906 C 311.332031 327.863281 310.722656 327.863281 310.722656 327.863281 C 310.113281 328.472656 309.503906 329.082031 308.285156 329.082031 C 307.066406 329.082031 305.238281 328.472656 304.019531 327.863281 C 304.019531 325.425781 301.585938 324.816406 296.710938 324.207031 Z M 289.398438 378.445312 C 291.835938 377.835938 296.101562 377.835938 303.414062 378.445312 C 310.722656 378.445312 314.988281 379.664062 316.816406 380.882812 C 318.644531 382.710938 321.082031 383.320312 325.34375 384.539062 C 329.609375 385.757812 332.046875 386.976562 332.046875 388.804688 C 332.65625 390.632812 333.265625 391.851562 334.484375 391.851562 C 335.703125 391.851562 336.3125 393.070312 336.921875 394.289062 C 337.53125 396.117188 338.140625 396.726562 339.359375 396.726562 C 340.578125 396.726562 341.1875 397.335938 342.40625 399.164062 C 343.625 400.992188 345.449219 402.210938 347.277344 403.433594 C 349.105469 404.042969 350.324219 406.480469 350.324219 409.527344 C 350.324219 412.574219 351.542969 414.402344 352.761719 414.402344 C 353.980469 414.402344 354.589844 415.621094 354.589844 416.839844 C 354.589844 418.058594 355.808594 419.277344 357.636719 420.496094 C 360.074219 421.714844 360.683594 422.933594 360.683594 423.542969 C 360.683594 424.152344 361.292969 425.371094 361.902344 425.980469 C 363.121094 426.589844 363.730469 430.246094 364.945312 436.949219 C 366.164062 443.652344 367.382812 447.308594 367.992188 447.308594 C 368.601562 447.917969 368.601562 450.355469 368.601562 455.839844 C 368.601562 461.324219 367.382812 464.980469 366.773438 466.203125 C 366.164062 467.421875 365.554688 469.25 366.164062 471.078125 C 366.773438 472.296875 366.773438 473.515625 367.382812 474.125 C 366.773438 474.125 366.773438 474.125 366.164062 474.125 C 365.554688 474.125 365.554688 474.125 364.945312 474.125 C 364.945312 475.34375 364.945312 476.5625 364.945312 477.78125 C 364.945312 480.21875 365.554688 482.046875 366.164062 483.265625 C 366.773438 484.484375 366.164062 486.3125 364.945312 488.140625 C 363.121094 490.578125 362.511719 493.625 362.511719 497.28125 C 362.511719 501.546875 361.292969 503.984375 359.464844 505.8125 C 357.636719 507.640625 356.417969 509.46875 356.417969 510.6875 C 356.417969 511.296875 356.417969 512.515625 356.417969 513.125 C 356.417969 513.125 355.808594 513.125 355.199219 513.125 C 354.589844 513.125 353.980469 514.34375 352.761719 516.171875 C 351.542969 518.609375 350.933594 521.046875 350.324219 524.703125 C 349.714844 528.363281 348.496094 530.191406 347.277344 530.800781 C 346.058594 531.410156 344.839844 532.019531 343.625 533.238281 C 342.40625 535.066406 341.796875 535.675781 340.578125 535.675781 C 339.359375 535.675781 338.140625 536.285156 337.53125 538.113281 C 336.921875 539.941406 335.703125 540.550781 333.875 541.160156 C 332.046875 541.160156 330.828125 542.378906 329.609375 543.597656 C 328.390625 545.425781 326.5625 546.035156 322.910156 546.644531 C 319.253906 547.253906 317.425781 547.863281 317.425781 548.472656 C 317.425781 549.082031 317.425781 549.082031 316.816406 549.082031 C 316.207031 548.472656 316.207031 548.472656 315.597656 548.472656 C 314.988281 547.863281 314.378906 547.863281 313.769531 547.253906 C 313.769531 547.863281 314.378906 547.863281 314.378906 548.472656 C 314.378906 549.082031 314.378906 549.082031 314.988281 549.691406 C 314.378906 549.691406 313.160156 549.691406 312.550781 549.691406 C 310.722656 549.691406 310.113281 550.300781 310.113281 550.910156 C 309.503906 551.519531 305.847656 551.519531 297.929688 550.910156 C 290.617188 550.300781 286.351562 550.300781 285.132812 550.910156 C 284.523438 551.519531 282.089844 550.910156 279.652344 548.472656 C 277.214844 546.035156 274.167969 544.816406 271.730469 544.816406 C 269.292969 544.816406 266.855469 543.597656 265.636719 541.769531 C 264.417969 539.332031 263.199219 538.722656 261.984375 538.722656 C 260.765625 538.722656 258.9375 537.503906 257.109375 535.066406 C 255.28125 532.628906 254.0625 531.40625 252.84375 531.40625 C 252.234375 531.40625 252.234375 531.40625 251.625 531.40625 C 251.625 530.796875 251.625 530.1875 251.625 529.578125 C 251.625 528.359375 251.015625 527.140625 249.796875 526.53125 C 248.578125 525.921875 247.96875 524.703125 248.578125 522.875 C 249.1875 521.046875 248.578125 519.828125 247.96875 518 C 247.359375 516.78125 246.140625 515.5625 244.3125 514.34375 C 242.484375 513.125 241.269531 511.296875 240.050781 509.46875 C 239.441406 507.03125 238.222656 504.59375 238.222656 501.546875 C 238.222656 498.5 237.613281 496.0625 236.394531 494.84375 C 235.175781 493.625 235.175781 491.1875 235.175781 486.921875 C 235.175781 483.265625 234.566406 480.21875 232.738281 478.390625 C 230.910156 476.5625 230.300781 474.734375 230.910156 473.511719 C 231.519531 472.292969 232.128906 469.246094 232.128906 464.980469 C 232.128906 460.714844 231.519531 457.058594 230.300781 455.839844 C 229.082031 454.011719 228.472656 451.574219 228.472656 447.917969 C 229.082031 444.261719 229.691406 441.824219 230.300781 440.605469 C 231.519531 439.386719 232.128906 436.949219 232.738281 432.683594 C 233.957031 428.417969 235.785156 424.761719 238.222656 422.324219 C 240.660156 419.277344 242.484375 417.449219 242.484375 415.621094 C 242.484375 415.011719 242.484375 413.792969 242.484375 413.183594 C 243.09375 413.792969 243.09375 413.792969 243.703125 414.402344 C 244.3125 414.402344 244.3125 415.011719 244.921875 415.621094 C 245.53125 413.792969 245.53125 411.960938 246.140625 410.132812 C 247.359375 406.476562 249.1875 403.429688 252.234375 400.992188 C 255.28125 398.554688 257.109375 396.117188 257.71875 393.679688 C 258.328125 391.242188 259.546875 390.023438 260.765625 390.023438 C 261.980469 390.023438 262.589844 389.414062 263.199219 388.195312 C 263.199219 386.976562 264.417969 385.757812 266.855469 385.148438 C 269.292969 384.539062 271.121094 383.320312 272.339844 381.492188 C 273.558594 379.664062 275.996094 379.054688 278.433594 379.054688 C 280.871094 379.054688 282.695312 379.054688 283.304688 377.835938 C 285.742188 379.054688 287.570312 379.054688 289.398438 378.445312 Z M 289.398438 378.445312 " fill-opacity="1" fill-rule="evenodd"/><path fill="#000000" d="M 683.589844 527.144531 C 682.371094 527.753906 682.371094 529.582031 682.371094 532.628906 C 682.980469 535.675781 683.589844 536.894531 684.808594 537.503906 C 686.027344 538.113281 687.855469 539.941406 689.683594 542.988281 C 692.121094 546.035156 694.554688 547.863281 696.992188 547.863281 C 699.429688 547.863281 701.257812 547.253906 701.867188 546.035156 C 702.476562 544.816406 702.476562 543.597656 702.476562 541.160156 C 702.476562 538.722656 700.039062 536.285156 696.382812 532.628906 C 692.726562 528.972656 689.683594 526.535156 687.855469 526.535156 C 686.027344 525.925781 684.199219 526.535156 683.589844 527.144531 Z M 683.589844 527.144531 " fill-opacity="1" fill-rule="evenodd"/><path fill="#000000" d="M 670.796875 536.285156 C 670.1875 536.894531 669.578125 539.332031 670.1875 542.988281 C 670.796875 546.644531 671.40625 547.863281 672.011719 547.863281 C 672.621094 547.863281 674.449219 550.300781 678.105469 555.785156 C 681.761719 561.269531 684.199219 563.707031 685.417969 563.707031 C 686.636719 563.707031 687.855469 563.097656 689.683594 561.269531 C 691.511719 559.441406 691.511719 557.613281 690.902344 555.175781 C 690.292969 552.738281 689.074219 550.910156 687.246094 549.082031 C 685.417969 547.253906 683.589844 544.816406 681.152344 541.160156 C 678.714844 537.503906 676.886719 535.675781 674.449219 535.066406 C 673.230469 535.066406 671.40625 535.675781 670.796875 536.285156 Z M 670.796875 536.285156 " fill-opacity="1" fill-rule="evenodd"/><path fill="#000000" d="M 599.511719 548.472656 C 598.292969 550.300781 598.292969 558.222656 598.292969 573.457031 C 598.902344 588.085938 598.292969 600.273438 597.683594 610.023438 C 597.074219 619.773438 597.074219 624.648438 597.074219 625.867188 C 597.683594 626.476562 598.902344 627.695312 600.730469 627.695312 C 602.558594 627.695312 604.996094 627.085938 606.824219 625.257812 C 608.652344 623.429688 609.871094 611.242188 609.871094 589.304688 C 609.871094 567.363281 609.871094 554.566406 608.652344 551.519531 C 607.433594 548.472656 605.605469 546.644531 603.777344 546.644531 C 601.949219 546.035156 600.121094 546.644531 599.511719 548.472656 Z M 599.511719 548.472656 " fill-opacity="1" fill-rule="evenodd"/><path fill="#000000" d="M 599.511719 635.007812 C 598.292969 636.835938 597.683594 638.054688 597.683594 639.882812 C 597.683594 641.710938 598.902344 643.539062 600.730469 644.757812 C 602.558594 645.976562 604.996094 645.371094 606.824219 643.539062 C 609.261719 641.101562 609.261719 639.273438 608.042969 636.835938 C 606.214844 634.398438 604.996094 633.179688 603.167969 633.179688 C 601.339844 633.179688 600.730469 633.789062 599.511719 635.007812 Z M 599.511719 635.007812 " fill-opacity="1" fill-rule="evenodd"/><path fill="#000000" d="M 77.984375 644.148438 C 76.769531 646.585938 76.160156 650.246094 76.769531 654.511719 C 77.378906 658.777344 77.984375 662.433594 78.59375 663.652344 C 79.203125 665.480469 81.03125 666.089844 83.46875 667.308594 C 85.296875 668.527344 87.125 667.917969 88.953125 666.699219 C 90.78125 665.480469 90.78125 661.214844 90.171875 655.121094 C 89.5625 648.417969 88.953125 644.757812 88.34375 643.539062 C 87.734375 642.320312 86.515625 641.710938 83.46875 641.101562 C 81.03125 640.492188 79.203125 641.710938 77.984375 644.148438 Z M 77.984375 644.148438 " fill-opacity="1" fill-rule="evenodd"/><path fill="#000000" d="M 62.753906 642.320312 C 60.925781 642.929688 60.316406 644.148438 59.097656 645.367188 C 57.878906 646.585938 57.878906 651.464844 57.878906 659.386719 C 57.878906 667.308594 59.097656 671.574219 60.316406 673.402344 C 61.535156 675.230469 63.972656 675.230469 65.800781 674.011719 C 67.628906 672.792969 69.457031 670.964844 70.066406 667.917969 C 70.675781 664.871094 70.675781 660.605469 70.066406 653.902344 C 69.457031 647.199219 68.238281 644.148438 67.019531 642.929688 C 65.800781 641.710938 64.582031 641.710938 62.753906 642.320312 Z M 62.753906 642.320312 " fill-opacity="1" fill-rule="evenodd"/></svg>